{
.appVersion = "3343";
.formatVersion = 3;
DisplayStrings = (
Topographye,
"111111/one.tf.ss01/one.tf.ss01/one.tf.ss01/one.tf.ss01/one.tf.ss01/one.tf.ss01",
"̈",
"H/_corner.serif.uc/_corner.serif.lc i̇ınh"
);
axes = (
{
name = Weight;
tag = wght;
},
{
name = Width;
tag = wdth;
},
{
name = Contrast;
tag = CNTR;
}
);
date = "2018-07-12 08:58:22 +0000";
familyName = Topography;
featurePrefixes = (
{
automatic = 1;
code = "languagesystem DFLT dflt;
";
name = Languagesystems;
}
);
features = (
{
automatic = 1;
code = "feature pnum;
feature tnum;
feature case;
";
tag = aalt;
},
{
automatic = 1;
code = "sub one.tf by one;
";
tag = pnum;
},
{
automatic = 1;
code = "sub one by one.tf;
";
tag = tnum;
},
{
automatic = 1;
code = "sub dieresiscomb by dieresiscomb.case;
";
tag = case;
},
{
automatic = 1;
code = "lookupflag IgnoreMarks;
sub C h by C_h;
sub c h by c_h;
sub c k by c_k;
";
tag = dlig;
}
);
fontMaster = (
{
axesValues = (
100,
100,
300
);
id = "484F8FD9-52EC-47CF-91D8-DA5450121283";
metricValues = (
{
over = 16;
pos = 725;
},
{
over = 16;
pos = 670;
},
{
over = 16;
pos = 440;
},
{
over = -16;
},
{
over = -16;
pos = -275;
},
{
}
);
name = Regular;
stemValues = (
32,
100,
105,
115
);
},
{
axesValues = (
32,
50,
100
);
id = "ADE64B87-3839-4AD4-BD35-A3CFF79840FC";
metricValues = (
{
over = 16;
pos = 725;
},
{
over = 16;
pos = 670;
},
{
over = 16;
pos = 440;
},
{
over = -16;
},
{
over = -16;
pos = -275;
},
{
}
);
name = "Thin Narrow Low";
stemValues = (
0,
0,
0,
0
);
},
{
axesValues = (
32,
200,
300
);
id = "28D540C6-4B1C-4739-9DB3-C8E6E4DDF73A";
metricValues = (
{
over = 16;
pos = 725;
},
{
over = 16;
pos = 670;
},
{
over = 16;
pos = 440;
},
{
over = -16;
},
{
over = -16;
pos = -275;
},
{
}
);
name = Regular;
stemValues = (
0,
0,
0,
0
);
}
);
glyphs = (
{
glyphname = A;
kernLeft = A;
kernRight = A;
lastChange = "2018-07-13 09:52:20 +0000";
layers = (
{
anchors = (
{
name = bottom;
pos = (155,0);
},
{
name = ogonek;
pos = (279,10);
},
{
name = top;
pos = (155,670);
}
);
layerId = "ADE64B87-3839-4AD4-BD35-A3CFF79840FC";
shapes = (
{
closed = 1;
nodes = (
(214,215,l),
(214,245,l),
(74,245,l),
(74,215,l)
);
},
{
closed = 1;
nodes = (
(55,143,ls),
(42,62,o),
(23,30,o),
(-8,30,cs),
(-13,30,l),
(-13,0,l),
(120,0,l),
(120,30,l),
(115,30,ls),
(68,30,o),
(62,82,o),
(76,171,cs),
(140,582,ls),
(129,582,l),
(204,106,ls),
(214,47,o),
(208,30,o),
(184,30,cs),
(165,30,l),
(165,0,l),
(313,0,l),
(313,30,l),
(294,30,ls),
(272,30,o),
(262,54,o),
(252,122,cs),
(164,680,ls),
(138,680,l)
);
},
{
closed = 1;
nodes = (
(141,542,l),
(141,559,l),
(129,559,l),
(129,542,l)
);
}
);
width = 310;
},
{
anchors = (
{
name = bottom;
pos = (310,0);
},
{
name = ogonek;
pos = (558,10);
},
{
name = top;
pos = (310,670);
}
);
layerId = "484F8FD9-52EC-47CF-91D8-DA5450121283";
shapes = (
{
closed = 1;
nodes = (
(427,215,l),
(427,245,l),
(147,245,l),
(147,215,l)
);
},
{
closed = 1;
nodes = (
(109,143,ls),
(84,62,o),
(46,30,o),
(-15,30,cs),
(-25,30,l),
(-25,0,l),
(240,0,l),
(240,30,l),
(230,30,ls),
(135,30,o),
(124,82,o),
(152,171,cs),
(279,582,ls),
(258,582,l),
(408,106,ls),
(427,47,o),
(415,30,o),
(367,30,cs),
(330,30,l),
(330,0,l),
(625,0,l),
(625,30,l),
(587,30,ls),
(543,30,o),
(524,54,o),
(503,122,cs),
(328,680,ls),
(275,680,l)
);
},
{
closed = 1;
nodes = (
(281,542,l),
(281,559,l),
(258,559,l),
(258,542,l)
);
}
);
width = 620;
},
{
anchors = (
{
name = bottom;
pos = (620,0);
},
{
name = ogonek;
pos = (1116,10);
},
{
name = top;
pos = (620,670);
}
);
layerId = "28D540C6-4B1C-4739-9DB3-C8E6E4DDF73A";
shapes = (
{
closed = 1;
nodes = (
(854,215,l),
(854,245,l),
(294,245,l),
(294,215,l)
);
},
{
closed = 1;
nodes = (
(218,143,ls),
(168,62,o),
(92,30,o),
(-30,30,cs),
(-50,30,l),
(-50,0,l),
(480,0,l),
(480,30,l),
(460,30,ls),
(270,30,o),
(248,82,o),
(304,171,cs),
(558,582,ls),
(516,582,l),
(816,106,ls),
(854,47,o),
(830,30,o),
(734,30,cs),
(660,30,l),
(660,0,l),
(1250,0,l),
(1250,30,l),
(1174,30,ls),
(1086,30,o),
(1048,54,o),
(1006,122,cs),
(656,680,ls),
(550,680,l)
);
},
{
closed = 1;
nodes = (
(562,542,l),
(562,559,l),
(516,559,l),
(516,542,l)
);
}
);
width = 1240;
}
);
unicode = 65;
userData = {
com.typemytype.robofont.layerData = {
background = {
anchors = (
);
components = (
);
contours = (
);
lib = {
};
name = A;
unicodes = (
);
width = 620;
};
};
com.typemytype.robofont.mark = (
0.9366,
0.9212,
0.4821,
1
);
};
},
{
glyphname = B;
kernLeft = B;
lastChange = "2025-02-16 16:51:27 +0000";
layers = (
{
layerId = "ADE64B87-3839-4AD4-BD35-A3CFF79840FC";
shapes = (
{
closed = 1;
nodes = (
(200,338,l),
(200,358,l),
(158,358,l),
(158,338,l)
);
},
{
closed = 1;
nodes = (
(225,94,o),
(203,30,o),
(153,30,cs),
(103,30,l),
(103,640,l),
(152,640,ls),
(193,640,o),
(219,584,o),
(219,500,cs),
(219,424,o),
(202,362,o),
(152,362,cs),
(83,362,l),
(83,332,l),
(153,332,ls),
(208,332,o),
(225,269,o),
(225,182,cs)
);
},
{
closed = 1;
nodes = (
(272,602,o),
(237,670,o),
(156,670,cs),
(3,670,l),
(3,640,l),
(32,640,ls),
(45,640,o),
(50,626,o),
(50,602,cs),
(50,68,ls),
(50,44,o),
(45,30,o),
(32,30,cs),
(3,30,l),
(3,0,l),
(176,0,ls),
(237,0,o),
(280,65,o),
(280,181,cs),
(280,279,o),
(241,351,o),
(171,351,c),
(171,345,l),
(229,345,o),
(272,410,o),
(272,508,cs)
);
}
);
width = 310;
},
{
hints = (
{
name = _corner.serif.uc;
origin = (2,4);
type = Corner;
},
{
name = _corner.serif.uc;
options = 1;
origin = (2,3);
scale = (-1,1);
type = Corner;
}
);
layerId = "484F8FD9-52EC-47CF-91D8-DA5450121283";
shapes = (
{
closed = 1;
nodes = (
(400,338,l),
(400,358,l),
(315,358,l),
(315,338,l)
);
},
{
closed = 1;
nodes = (
(450,94,o),
(405,30,o),
(306,30,cs),
(205,30,l),
(205,640,l),
(303,640,ls),
(385,640,o),
(437,584,o),
(437,500,cs),
(437,424,o),
(404,362,o),
(303,362,cs),
(166,362,l),
(166,332,l),
(306,332,ls),
(416,332,o),
(450,269,o),
(450,182,cs)
);
},
{
closed = 1;
nodes = (
(543,602,o),
(473,670,o),
(312,670,cs),
(100,670,l),
(100,0,l),
(352,0,ls),
(473,0,o),
(560,65,o),
(560,181,cs),
(560,278.701,o),
(482,351,o),
(342,351,c),
(342,345,l),
(458,345,o),
(543,410,o),
(543,508,cs)
);
}
);
width = 620;
},
{
layerId = "28D540C6-4B1C-4739-9DB3-C8E6E4DDF73A";
shapes = (
{
closed = 1;
nodes = (
(800,338,l),
(800,358,l),
(630,358,l),
(630,338,l)
);
},
{
closed = 1;
nodes = (
(900,94,o),
(810,30,o),
(612,30,cs),
(410,30,l),
(410,640,l),
(606,640,ls),
(770,640,o),
(874,584,o),
(874,500,cs),
(874,424,o),
(808,362,o),
(606,362,cs),
(332,362,l),
(332,332,l),
(612,332,ls),
(832,332,o),
(900,269,o),
(900,182,cs)
);
},
{
closed = 1;
nodes = (
(1086,602,o),
(946,670,o),
(624,670,cs),
(10,670,l),
(10,640,l),
(126,640,ls),
(180,640,o),
(200,626,o),
(200,602,cs),
(200,68,ls),
(200,44,o),
(180,30,o),
(126,30,cs),
(10,30,l),
(10,0,l),
(704,0,ls),
(946,0,o),
(1120,65,o),
(1120,181,cs),
(1120,279,o),
(964,351,o),
(684,351,c),
(684,345,l),
(916,345,o),
(1086,410,o),
(1086,508,cs)
);
}
);
width = 1240;
}
);
unicode = 66;
userData = {
com.typemytype.robofont.layerData = {
background = {
anchors = (
);
components = (
);
contours = (
);
lib = {
};
name = B;
unicodes = (
);
width = 620;
};
};
com.typemytype.robofont.mark = (
0.9366,
0.9212,
0.4821,
1
);
};
},
{
glyphname = C;
kernLeft = C;
lastChange = "2018-07-13 09:52:20 +0000";
layers = (
{
background = {
shapes = (
{
closed = 1;
nodes = (
(471,688,o),
(329,688,cs),
(180,688,o),
(50,572,o),
(50,335,cs),
(50,98,o),
(180,-18,o),
(340,-18,cs),
(460,-18,o),
(537,40,o),
(606,165,c),
(578,180,l),
(515,74,o),
(452,22,o),
(369,22,cs),
(219,22,o),
(165,131,o),
(165,335,cs),
(165,546,o),
(209,657,o),
(328,657,cs),
(370,657,o),
(399,640,o),
(399,613,cs),
(399,586,o),
(383,582,o),
(383,547,cs),
(383,508,o),
(410,482,o),
(452,482,cs),
(493,482,o),
(525,513,o),
(525,560,cs),
(525,622,o)
);
}
);
};
layerId = "ADE64B87-3839-4AD4-BD35-A3CFF79840FC";
shapes = (
{
closed = 1;
nodes = (
(278,675,l),
(263,675,l),
(258,655,o),
(250,646,o),
(240,646,cs),
(230,646,o),
(222,656,o),
(211,666,cs),
(196,680,o),
(181,688,o),
(163,688,cs),
(90,688,o),
(25,558,o),
(25,335,cs),
(25,113,o),
(90,-18,o),
(164,-18,cs),
(236,-18,o),
(273,82,o),
(282,230,c),
(263,230,l),
(255,105,o),
(226,17,o),
(165,17,cs),
(105,17,o),
(83,127,o),
(83,335,cs),
(83,546,o),
(105,657,o),
(164,657,cs),
(210,657,o),
(248,572,o),
(262,435,c),
(278,435,l)
);
}
);
width = 319;
},
{
background = {
shapes = (
{
closed = 1;
nodes = (
(471,688,o),
(329,688,cs),
(180,688,o),
(50,572,o),
(50,335,cs),
(50,98,o),
(180,-18,o),
(340,-18,cs),
(460,-18,o),
(537,40,o),
(606,165,c),
(578,180,l),
(515,74,o),
(452,22,o),
(369,22,cs),
(219,22,o),
(165,131,o),
(165,335,cs),
(165,546,o),
(209,657,o),
(328,657,cs),
(370,657,o),
(399,640,o),
(399,613,cs),
(399,586,o),
(383,582,o),
(383,547,cs),
(383,508,o),
(410,482,o),
(452,482,cs),
(493,482,o),
(525,513,o),
(525,560,cs),
(525,622,o)
);
}
);
};
layerId = "484F8FD9-52EC-47CF-91D8-DA5450121283";
shapes = (
{
closed = 1;
nodes = (
(555,675,l),
(526,675,l),
(515,655,o),
(500,646,o),
(479,646,cs),
(460,646,o),
(443,656,o),
(422,666,cs),
(391,680,o),
(362,688,o),
(326,688,cs),
(180,688,o),
(50,558,o),
(50,335,cs),
(50,113,o),
(180,-18,o),
(327,-18,cs),
(471,-18,o),
(546,82,o),
(563,230,c),
(525,230,l),
(509,105,o),
(452.254,17,o),
(330,17,cs),
(209,17,o),
(165,127.306,o),
(165,335,cs),
(165,546,o),
(209,657,o),
(328,657,cs),
(420,657,o),
(495,572,o),
(523,435,c),
(555,435,l)
);
}
);
width = 638;
},
{
background = {
shapes = (
{
closed = 1;
nodes = (
(471,688,o),
(329,688,cs),
(180,688,o),
(50,572,o),
(50,335,cs),
(50,98,o),
(180,-18,o),
(340,-18,cs),
(460,-18,o),
(537,40,o),
(606,165,c),
(578,180,l),
(515,74,o),
(452,22,o),
(369,22,cs),
(219,22,o),
(165,131,o),
(165,335,cs),
(165,546,o),
(209,657,o),
(328,657,cs),
(370,657,o),
(399,640,o),
(399,613,cs),
(399,586,o),
(383,582,o),
(383,547,cs),
(383,508,o),
(410,482,o),
(452,482,cs),
(493,482,o),
(525,513,o),
(525,560,cs),
(525,622,o)
);
}
);
};
layerId = "28D540C6-4B1C-4739-9DB3-C8E6E4DDF73A";
shapes = (
{
closed = 1;
nodes = (
(1110,675,l),
(1052,675,l),
(1030,655,o),
(1000,646,o),
(958,646,cs),
(920,646,o),
(886,656,o),
(844,666,cs),
(782,680,o),
(724,688,o),
(652,688,cs),
(360,688,o),
(100,558,o),
(100,335,cs),
(100,113,o),
(360,-18,o),
(654,-18,cs),
(942,-18,o),
(1092,82,o),
(1126,230,c),
(1050,230,l),
(1018,105,o),
(905,17,o),
(660,17,cs),
(418,17,o),
(330,127,o),
(330,335,cs),
(330,546,o),
(418,657,o),
(656,657,cs),
(840,657,o),
(990,572,o),
(1046,435,c),
(1110,435,l)
);
}
);
width = 1276;
}
);
unicode = 67;
userData = {
com.typemytype.robofont.layerData = {
background = {
anchors = (
);
components = (
);
contours = (
{
points = (
{
segmentType = line;
smooth = 0;
x = 555;
y = 435;
},
{
segmentType = line;
smooth = 0;
x = 555;
y = 675;
},
{
segmentType = line;
smooth = 0;
x = 526;
y = 675;
},
{
smooth = 0;
x = 515;
y = 655;
},
{
smooth = 0;
x = 500;
y = 646;
},
{
segmentType = curve;
smooth = 1;
x = 479;
y = 646;
},
{
smooth = 0;
x = 460;
y = 646;
},
{
smooth = 0;
x = 443;
y = 656;
},
{
segmentType = curve;
smooth = 1;
x = 422;
y = 666;
},
{
smooth = 0;
x = 391;
y = 680;
},
{
smooth = 0;
x = 362;
y = 688;
},
{
segmentType = curve;
smooth = 1;
x = 326;
y = 688;
},
{
smooth = 0;
x = 180;
y = 688;
},
{
smooth = 0;
x = 50;
y = 558;
},
{
segmentType = curve;
smooth = 1;
x = 50;
y = 335;
},
{
smooth = 0;
x = 50;
y = 113;
},
{
smooth = 0;
x = 180;
y = -18;
},
{
segmentType = curve;
smooth = 1;
x = 327;
y = -18;
},
{
smooth = 0;
x = 471;
y = -18;
},
{
smooth = 0;
x = 546;
y = 86;
},
{
segmentType = curve;
smooth = 0;
x = 563;
y = 230;
},
{
segmentType = line;
smooth = 0;
x = 523;
y = 230;
},
{
smooth = 0;
x = 510;
y = 101;
},
{
smooth = 0;
x = 448;
y = 15;
},
{
segmentType = curve;
smooth = 1;
x = 330;
y = 15;
},
{
smooth = 0;
x = 209;
y = 15;
},
{
smooth = 0;
x = 165;
y = 126;
},
{
segmentType = curve;
smooth = 1;
x = 165;
y = 335;
},
{
smooth = 0;
x = 165;
y = 546;
},
{
smooth = 0;
x = 209;
y = 657;
},
{
segmentType = curve;
smooth = 1;
x = 328;
y = 657;
},
{
smooth = 0;
x = 420;
y = 657;
},
{
smooth = 0;
x = 495;
y = 572;
},
{
segmentType = curve;
smooth = 0;
x = 523;
y = 435;
}
);
}
);
lib = {
};
name = C;
unicodes = (
);
width = 638;
};
};
com.typemytype.robofont.mark = (
0.9366,
0.9212,
0.4821,
1
);
};
},
{
glyphname = D;
kernLeft = B;
kernRight = D;
lastChange = "2025-02-16 16:51:59 +0000";
layers = (
{
layerId = "ADE64B87-3839-4AD4-BD35-A3CFF79840FC";
shapes = (
{
closed = 1;
nodes = (
(215,640,o),
(233,535,o),
(233,335,cs),
(233,136,o),
(220,30,o),
(135,30,cs),
(103,30,l),
(103,640,l),
(135,640,ls)
);
},
{
closed = 1;
nodes = (
(3,670,l),
(3,640,l),
(32,640,ls),
(45,640,o),
(50,626,o),
(50,602,cs),
(50,68,ls),
(50,44,o),
(45,30,o),
(32,30,cs),
(3,30,l),
(3,0,l),
(137,0,ls),
(242,0,o),
(290,122,o),
(290,335,cs),
(290,547,o),
(240,670,o),
(137,670,cs)
);
}
);
width = 318;
},
{
hints = (
{
name = _corner.serif.uc;
options = 1;
origin = (1,0);
scale = (-1,1);
type = Corner;
},
{
name = _corner.serif.uc;
origin = (1,1);
type = Corner;
}
);
layerId = "484F8FD9-52EC-47CF-91D8-DA5450121283";
shapes = (
{
closed = 1;
nodes = (
(430,640,o),
(465,535,o),
(465,335,cs),
(465,136,o),
(439,30,o),
(270,30,cs),
(205,30,l),
(205,640,l),
(270,640,ls)
);
},
{
closed = 1;
nodes = (
(100,670,l),
(100,0,l),
(274,0,ls),
(484,0,o),
(580,122,o),
(580,335,cs),
(580,547,o),
(480,670,o),
(274,670,cs)
);
}
);
width = 635;
},
{
layerId = "28D540C6-4B1C-4739-9DB3-C8E6E4DDF73A";
shapes = (
{
closed = 1;
nodes = (
(860,640,o),
(930,535,o),
(930,335,cs),
(930,136,o),
(878,30,o),
(540,30,cs),
(410,30,l),
(410,640,l),
(540,640,ls)
);
},
{
closed = 1;
nodes = (
(10,670,l),
(10,640,l),
(126,640,ls),
(180,640,o),
(200,626,o),
(200,602,cs),
(200,68,ls),
(200,44,o),
(180,30,o),
(126,30,cs),
(10,30,l),
(10,0,l),
(548,0,ls),
(968,0,o),
(1160,122,o),
(1160,335,cs),
(1160,547,o),
(960,670,o),
(548,670,cs)
);
}
);
width = 1270;
}
);
unicode = 68;
userData = {
com.typemytype.robofont.layerData = {
background = {
anchors = (
);
components = (
);
contours = (
);
lib = {
};
name = D;
unicodes = (
);
width = 635;
};
};
com.typemytype.robofont.mark = (
0.9366,
0.9212,
0.4821,
1
);
};
},
{
glyphname = E;
kernLeft = B;
lastChange = "2025-02-16 16:52:23 +0000";
layers = (
{
layerId = "ADE64B87-3839-4AD4-BD35-A3CFF79840FC";
shapes = (
{
closed = 1;
nodes = (
(128,342,ls),
(160,342,o),
(179,301,o),
(183,220,c),
(195,220,l),
(195,495,l),
(183,495,l),
(179,410,o),
(160,372,o),
(128,372,cs),
(76,372,l),
(76,342,l)
);
},
{
closed = 1;
nodes = (
(160,640,ls),
(215,640,o),
(240,575,o),
(246,450,c),
(263,450,l),
(263,670,l),
(3,670,l),
(3,640,l),
(32,640,ls),
(45,640,o),
(50,626,o),
(50,602,cs),
(50,68,ls),
(50,44,o),
(45,30,o),
(32,30,cs),
(3,30,l),
(3,0,l),
(270,0,l),
(270,230,l),
(253,230,l),
(247,100,o),
(220,30,o),
(168,30,cs),
(103,30,l),
(103,640,l)
);
}
);
width = 305;
},
{
hints = (
{
name = _corner.serif.uc;
origin = (1,7);
type = Corner;
},
{
name = _corner.serif.uc;
options = 1;
origin = (1,6);
scale = (-1,1);
type = Corner;
}
);
layerId = "484F8FD9-52EC-47CF-91D8-DA5450121283";
shapes = (
{
closed = 1;
nodes = (
(255,342,ls),
(319,342,o),
(357,301,o),
(365,220,c),
(390,220,l),
(390,495,l),
(365,495,l),
(357,410,o),
(319,372,o),
(255,372,cs),
(152,372,l),
(152,342,l)
);
},
{
closed = 1;
nodes = (
(320,640,ls),
(430,640,o),
(480,575,o),
(491,450,c),
(525,450,l),
(525,670,l),
(100,670,l),
(100,0,l),
(540,0,l),
(540,230,l),
(506,230,l),
(494,100,o),
(439,30,o),
(335,30,cs),
(205,30,l),
(205,640,l)
);
}
);
width = 610;
},
{
layerId = "28D540C6-4B1C-4739-9DB3-C8E6E4DDF73A";
shapes = (
{
closed = 1;
nodes = (
(510,342,ls),
(638,342,o),
(714,301,o),
(730,220,c),
(780,220,l),
(780,495,l),
(730,495,l),
(714,410,o),
(638,372,o),
(510,372,cs),
(304,372,l),
(304,342,l)
);
},
{
closed = 1;
nodes = (
(640,640,ls),
(860,640,o),
(960,575,o),
(982,450,c),
(1050,450,l),
(1050,670,l),
(10,670,l),
(10,640,l),
(126,640,ls),
(180,640,o),
(200,626,o),
(200,602,cs),
(200,68,ls),
(200,44,o),
(180,30,o),
(126,30,cs),
(10,30,l),
(10,0,l),
(1080,0,l),
(1080,230,l),
(1012,230,l),
(988,100,o),
(878,30,o),
(670,30,cs),
(410,30,l),
(410,640,l)
);
}
);
width = 1220;
}
);
unicode = 69;
userData = {
com.typemytype.robofont.layerData = {
background = {
anchors = (
);
components = (
);
contours = (
);
lib = {
};
name = E;
unicodes = (
);
width = 610;
};
};
com.typemytype.robofont.mark = (
0.9366,
0.9212,
0.4821,
1
);
};
},
{
glyphname = F;
kernLeft = B;
lastChange = "2025-02-16 16:52:53 +0000";
layers = (
{
layerId = "ADE64B87-3839-4AD4-BD35-A3CFF79840FC";
shapes = (
{
closed = 1;
nodes = (
(150,30,l),
(121,30,ls),
(108,30,o),
(103,44,o),
(103,68,cs),
(103,640,l),
(137,640,ls),
(197,640,o),
(228,575,o),
(233,450,c),
(250,450,l),
(250,670,l),
(3,670,l),
(3,640,l),
(32,640,ls),
(45,640,o),
(50,626,o),
(50,602,cs),
(50,68,ls),
(50,44,o),
(45,30,o),
(32,30,cs),
(3,30,l),
(3,0,l),
(150,0,l)
);
},
{
closed = 1;
nodes = (
(128,342,ls),
(160,342,o),
(179,301,o),
(183,220,c),
(195,220,l),
(195,495,l),
(183,495,l),
(179,410,o),
(160,372,o),
(128,372,cs),
(76,372,l),
(76,342,l)
);
}
);
width = 285;
},
{
hints = (
{
name = _corner.serif.uc;
origin = (0,13);
type = Corner;
},
{
name = _corner.serif.uc;
options = 1;
origin = (0,12);
scale = (-1,1);
type = Corner;
}
);
layerId = "484F8FD9-52EC-47CF-91D8-DA5450121283";
shapes = (
{
closed = 1;
nodes = (
(300,30,l),
(242,30,ls),
(215,30,o),
(205,44,o),
(205,68,cs),
(205,640,l),
(274,640,ls),
(393,640,o),
(455,575,o),
(466,450,c),
(500,450,l),
(500,670,l),
(100,670,l),
(100,0,l),
(300,0,l)
);
},
{
closed = 1;
nodes = (
(255,342,ls),
(319,342,o),
(357,301,o),
(365,220,c),
(390,220,l),
(390,495,l),
(365,495,l),
(357,410,o),
(319,372,o),
(255,372,cs),
(152,372,l),
(152,342,l)
);
}
);
width = 570;
},
{
layerId = "28D540C6-4B1C-4739-9DB3-C8E6E4DDF73A";
shapes = (
{
closed = 1;
nodes = (
(600,30,l),
(484,30,ls),
(430,30,o),
(410,44,o),
(410,68,cs),
(410,640,l),
(548,640,ls),
(786,640,o),
(910,575,o),
(932,450,c),
(1000,450,l),
(1000,670,l),
(10,670,l),
(10,640,l),
(126,640,ls),
(180,640,o),
(200,626,o),
(200,602,cs),
(200,68,ls),
(200,44,o),
(180,30,o),
(126,30,cs),
(10,30,l),
(10,0,l),
(600,0,l)
);
},
{
closed = 1;
nodes = (
(510,342,ls),
(638,342,o),
(714,301,o),
(730,220,c),
(780,220,l),
(780,495,l),
(730,495,l),
(714,410,o),
(638,372,o),
(510,372,cs),
(304,372,l),
(304,342,l)
);
}
);
width = 1140;
}
);
unicode = 70;
userData = {
com.typemytype.robofont.layerData = {
background = {
anchors = (
);
components = (
);
contours = (
);
lib = {
};
name = E;
unicodes = (
);
width = 570;
};
};
com.typemytype.robofont.mark = (
0.9366,
0.9212,
0.4821,
1
);
};
},
{
glyphname = G;
kernLeft = C;
lastChange = "2018-07-13 09:52:20 +0000";
layers = (
{
background = {
shapes = (
{
closed = 1;
nodes = (
(387,657,o),
(424,633,o),
(424,594,cs),
(424,577,o),
(420,566,o),
(420,547,cs),
(420,510,o),
(445,486,o),
(484,486,cs),
(521,486,o),
(550,515,o),
(550,560,cs),
(550,622,o),
(489,688,o),
(336,688,cs),
(172,688,o),
(50,576,o),
(50,335,cs),
(50,94,o),
(180,-18,o),
(331,-18,cs),
(472,-18,o),
(555,74,o),
(561,212,cs),
(563,260,ls),
(565,305,o),
(581,325,o),
(617,325,cs),
(653,325,l),
(653,355,l),
(368,355,l),
(368,325,l),
(404,325,ls),
(440,325,o),
(458,305,o),
(458,261,cs),
(458,217,ls),
(458,76,o),
(409,15,o),
(332,15,cs),
(224,15,o),
(165,126,o),
(165,335,cs),
(165,546,o),
(227,657,o),
(334,657,cs)
);
}
);
};
layerId = "ADE64B87-3839-4AD4-BD35-A3CFF79840FC";
shapes = (
{
closed = 1;
nodes = (
(290,310,o),
(298,330,o),
(316,330,cs),
(329,330,l),
(329,360,l),
(196,360,l),
(196,330,l),
(209,330,ls),
(227,330,o),
(236,310,o),
(236,266,cs),
(236,222,ls),
(236,77,o),
(209,15,o),
(166,15,cs),
(112,15,o),
(83,126,o),
(83,335,cs),
(83,546,o),
(114,657,o),
(164,657,cs),
(215,657,o),
(255,586,o),
(267,470,c),
(283,470,l),
(283,675,l),
(268,675,l),
(263,655,o),
(255,646,o),
(246,646,cs),
(238,646,o),
(227,657,o),
(212,669,cs),
(199,679,o),
(183,688,o),
(163,688,cs),
(86,688,o),
(25,558,o),
(25,335,cs),
(25,113,o),
(90,-18,o),
(166,-18,cs),
(241,-18,o),
(285,76,o),
(288,217,cs),
(289,265,ls)
);
}
);
width = 336;
},
{
background = {
shapes = (
{
closed = 1;
nodes = (
(387,657,o),
(424,633,o),
(424,594,cs),
(424,577,o),
(420,566,o),
(420,547,cs),
(420,510,o),
(445,486,o),
(484,486,cs),
(521,486,o),
(550,515,o),
(550,560,cs),
(550,622,o),
(489,688,o),
(336,688,cs),
(172,688,o),
(50,576,o),
(50,335,cs),
(50,94,o),
(180,-18,o),
(331,-18,cs),
(472,-18,o),
(555,74,o),
(561,212,cs),
(563,260,ls),
(565,305,o),
(581,325,o),
(617,325,cs),
(653,325,l),
(653,355,l),
(368,355,l),
(368,325,l),
(404,325,ls),
(440,325,o),
(458,305,o),
(458,261,cs),
(458,217,ls),
(458,76,o),
(409,15,o),
(332,15,cs),
(224,15,o),
(165,126,o),
(165,335,cs),
(165,546,o),
(227,657,o),
(334,657,cs)
);
}
);
};
layerId = "484F8FD9-52EC-47CF-91D8-DA5450121283";
shapes = (
{
closed = 1;
nodes = (
(579,310,o),
(595,330,o),
(631,330,cs),
(657,330,l),
(657,360,l),
(392,360,l),
(392,330,l),
(418,330,ls),
(454,330,o),
(472,310,o),
(472,266,cs),
(472,222,ls),
(472,77,o),
(418,15,o),
(332,15,cs),
(224,15,o),
(165,126,o),
(165,335,cs),
(165,546,o),
(227,657,o),
(328,657,cs),
(430,657,o),
(509,586,o),
(533,470,c),
(565,470,l),
(565,675,l),
(536,675,l),
(525,655,o),
(510,646,o),
(492,646,cs),
(475,646,o),
(454,657,o),
(423,669,cs),
(397,679,o),
(366,688,o),
(326,688,cs),
(172,688,o),
(50,558,o),
(50,335,cs),
(50,113,o),
(180,-18,o),
(331,-18,cs),
(481,-18,o),
(569,76,o),
(575,217,cs),
(577,265,ls)
);
}
);
width = 672;
},
{
background = {
shapes = (
{
closed = 1;
nodes = (
(387,657,o),
(424,633,o),
(424,594,cs),
(424,577,o),
(420,566,o),
(420,547,cs),
(420,510,o),
(445,486,o),
(484,486,cs),
(521,486,o),
(550,515,o),
(550,560,cs),
(550,622,o),
(489,688,o),
(336,688,cs),
(172,688,o),
(50,576,o),
(50,335,cs),
(50,94,o),
(180,-18,o),
(331,-18,cs),
(472,-18,o),
(555,74,o),
(561,212,cs),
(563,260,ls),
(565,305,o),
(581,325,o),
(617,325,cs),
(653,325,l),
(653,355,l),
(368,355,l),
(368,325,l),
(404,325,ls),
(440,325,o),
(458,305,o),
(458,261,cs),
(458,217,ls),
(458,76,o),
(409,15,o),
(332,15,cs),
(224,15,o),
(165,126,o),
(165,335,cs),
(165,546,o),
(227,657,o),
(334,657,cs)
);
}
);
};
layerId = "28D540C6-4B1C-4739-9DB3-C8E6E4DDF73A";
shapes = (
{
closed = 1;
nodes = (
(1158,310,o),
(1190,330,o),
(1262,330,cs),
(1314,330,l),
(1314,360,l),
(784,360,l),
(784,330,l),
(836,330,ls),
(908,330,o),
(944,310,o),
(944,266,cs),
(944,222,ls),
(944,77,o),
(836,15,o),
(664,15,cs),
(448,15,o),
(330,126,o),
(330,335,cs),
(330,546,o),
(454,657,o),
(656,657,cs),
(860,657,o),
(1018,586,o),
(1066,470,c),
(1130,470,l),
(1130,675,l),
(1072,675,l),
(1050,655,o),
(1020,646,o),
(984,646,cs),
(950,646,o),
(908,657,o),
(846,669,cs),
(794,679,o),
(732,688,o),
(652,688,cs),
(344,688,o),
(100,558,o),
(100,335,cs),
(100,113,o),
(360,-18,o),
(662,-18,cs),
(962,-18,o),
(1138,76,o),
(1150,217,cs),
(1154,265,ls)
);
}
);
width = 1344;
}
);
unicode = 71;
userData = {
com.typemytype.robofont.layerData = {
background = {
anchors = (
);
components = (
);
contours = (
);
lib = {
};
name = C;
unicodes = (
);
width = 672;
};
};
};
},
{
glyphname = H;
kernLeft = B;
kernRight = H;
lastChange = "2025-02-16 16:54:23 +0000";
layers = (
{
layerId = "ADE64B87-3839-4AD4-BD35-A3CFF79840FC";
shapes = (
{
closed = 1;
nodes = (
(280,626,o),
(285,640,o),
(300,640,cs),
(328,640,l),
(328,670,l),
(180,670,l),
(180,640,l),
(209,640,ls),
(223,640,o),
(228,626,o),
(228,602,cs),
(228,68,ls),
(228,44,o),
(223,30,o),
(209,30,cs),
(180,30,l),
(180,0,l),
(328,0,l),
(328,30,l),
(300,30,ls),
(285,30,o),
(280,44,o),
(280,68,cs),
(280,602,ls)
);
},
{
closed = 1;
nodes = (
(103,626,o),
(108,640,o),
(123,640,cs),
(150,640,l),
(150,670,l),
(3,670,l),
(3,640,l),
(32,640,ls),
(45,640,o),
(50,626,o),
(50,602,cs),
(50,68,ls),
(50,44,o),
(45,30,o),
(32,30,cs),
(3,30,l),
(3,0,l),
(150,0,l),
(150,30,l),
(123,30,ls),
(108,30,o),
(103,44,o),
(103,68,cs),
(103,602,ls)
);
},
{
closed = 1;
nodes = (
(254,344,l),
(254,376,l),
(75,376,l),
(75,344,l)
);
}
);
width = 330;
},
{
background = {
shapes = (
{
closed = 1;
nodes = (
(655,0,l),
(655,30,l),
(600,30,ls),
(570,30,o),
(560,44,o),
(560,68,cs),
(560,602,ls),
(560,626,o),
(570,640,o),
(600,640,cs),
(655,640,l),
(655,670,l),
(360,670,l),
(360,640,l),
(418,640,ls),
(445,640,o),
(455,626,o),
(455,602,cs),
(455,68,ls),
(455,44,o),
(445,30,o),
(418,30,cs),
(360,30,l),
(360,0,l)
);
}
);
};
hints = (
{
name = _corner.serif.uc;
origin = (0,3);
type = Corner;
},
{
name = _corner.serif.uc;
options = 1;
origin = (0,2);
scale = (-1,1);
type = Corner;
},
{
name = _corner.serif.uc;
options = 1;
origin = (0,0);
scale = (-1,1);
type = Corner;
},
{
name = _corner.serif.uc;
origin = (0,1);
type = Corner;
},
{
name = _corner.serif.uc;
options = 1;
origin = (2,0);
scale = (-1,1);
type = Corner;
},
{
name = _corner.serif.uc;
origin = (2,1);
type = Corner;
},
{
name = _corner.serif.uc;
options = 1;
origin = (2,2);
scale = (-1,1);
type = Corner;
},
{
name = _corner.serif.uc;
origin = (2,3);
type = Corner;
}
);
layerId = "484F8FD9-52EC-47CF-91D8-DA5450121283";
shapes = (
{
closed = 1;
nodes = (
(205,0,l),
(205,670,l),
(100,670,l),
(100,0,l)
);
},
{
closed = 1;
nodes = (
(508,344,l),
(508,376,l),
(150,376,l),
(150,344,l)
);
},
{
closed = 1;
nodes = (
(560,0,l),
(560,670,l),
(455,670,l),
(455,0,l)
);
}
);
width = 660;
},
{
layerId = "28D540C6-4B1C-4739-9DB3-C8E6E4DDF73A";
shapes = (
{
closed = 1;
nodes = (
(1120,626,o),
(1140,640,o),
(1200,640,cs),
(1310,640,l),
(1310,670,l),
(720,670,l),
(720,640,l),
(836,640,ls),
(890,640,o),
(910,626,o),
(910,602,cs),
(910,68,ls),
(910,44,o),
(890,30,o),
(836,30,cs),
(720,30,l),
(720,0,l),
(1310,0,l),
(1310,30,l),
(1200,30,ls),
(1140,30,o),
(1120,44,o),
(1120,68,cs),
(1120,602,ls)
);
},
{
closed = 1;
nodes = (
(410,626,o),
(430,640,o),
(490,640,cs),
(600,640,l),
(600,670,l),
(10,670,l),
(10,640,l),
(126,640,ls),
(180,640,o),
(200,626,o),
(200,602,cs),
(200,68,ls),
(200,44,o),
(180,30,o),
(126,30,cs),
(10,30,l),
(10,0,l),
(600,0,l),
(600,30,l),
(490,30,ls),
(430,30,o),
(410,44,o),
(410,68,cs),
(410,602,ls)
);
},
{
closed = 1;
nodes = (
(1016,344,l),
(1016,376,l),
(300,376,l),
(300,344,l)
);
}
);
width = 1320;
}
);
unicode = 72;
userData = {
com.typemytype.robofont.layerData = {
background = {
anchors = (
);
components = (
);
contours = (
);
lib = {
};
name = H;
unicodes = (
);
width = 660;
};
};
com.typemytype.robofont.mark = (
0.9366,
0.9212,
0.4821,
1
);
};
},
{
glyphname = I;
kernLeft = B;
kernRight = H;
lastChange = "2025-02-16 16:54:47 +0000";
layers = (
{
layerId = "ADE64B87-3839-4AD4-BD35-A3CFF79840FC";
shapes = (
{
closed = 1;
nodes = (
(103,626,o),
(108,640,o),
(123,640,cs),
(150,640,l),
(150,670,l),
(3,670,l),
(3,640,l),
(32,640,ls),
(45,640,o),
(50,626,o),
(50,602,cs),
(50,68,ls),
(50,44,o),
(45,30,o),
(32,30,cs),
(3,30,l),
(3,0,l),
(150,0,l),
(150,30,l),
(123,30,ls),
(108,30,o),
(103,44,o),
(103,68,cs),
(103,602,ls)
);
}
);
width = 153;
},
{
background = {
shapes = (
{
closed = 1;
nodes = (
(205,626,o),
(215,640,o),
(245,640,cs),
(300,640,l),
(300,670,l),
(5,670,l),
(5,640,l),
(63,640,ls),
(90,640,o),
(100,626,o),
(100,602,cs),
(100,68,ls),
(100,44,o),
(90,30,o),
(63,30,cs),
(5,30,l),
(5,0,l),
(300,0,l),
(300,30,l),
(245,30,ls),
(215,30,o),
(205,44,o),
(205,68,cs),
(205,602,ls)
);
}
);
};
hints = (
{
name = _corner.serif.uc;
options = 1;
origin = (0,0);
scale = (-1,1);
type = Corner;
},
{
name = _corner.serif.uc;
origin = (0,1);
type = Corner;
},
{
name = _corner.serif.uc;
options = 1;
origin = (0,2);
scale = (-1,1);
type = Corner;
},
{
name = _corner.serif.uc;
origin = (0,3);
type = Corner;
}
);
layerId = "484F8FD9-52EC-47CF-91D8-DA5450121283";
shapes = (
{
closed = 1;
nodes = (
(205,0,l),
(205,670,l),
(100,670,l),
(100,0,l)
);
}
);
width = 305;
},
{
layerId = "28D540C6-4B1C-4739-9DB3-C8E6E4DDF73A";
shapes = (
{
closed = 1;
nodes = (
(410,626,o),
(430,640,o),
(490,640,cs),
(600,640,l),
(600,670,l),
(10,670,l),
(10,640,l),
(126,640,ls),
(180,640,o),
(200,626,o),
(200,602,cs),
(200,68,ls),
(200,44,o),
(180,30,o),
(126,30,cs),
(10,30,l),
(10,0,l),
(600,0,l),
(600,30,l),
(490,30,ls),
(430,30,o),
(410,44,o),
(410,68,cs),
(410,602,ls)
);
}
);
width = 610;
}
);
unicode = 73;
userData = {
com.typemytype.robofont.layerData = {
background = {
anchors = (
);
components = (
);
contours = (
);
lib = {
};
name = I;
unicodes = (
);
width = 305;
};
};
com.typemytype.robofont.mark = (
0.9366,
0.9212,
0.4821,
1
);
};
},
{
glyphname = J;
lastChange = "2025-02-16 16:55:16 +0000";
layers = (
{
layerId = "ADE64B87-3839-4AD4-BD35-A3CFF79840FC";
shapes = (
{
closed = 1;
nodes = (
(7,40,o),
(48,-18,o),
(97,-18,cs),
(148,-18,o),
(184,42,o),
(184,151,cs),
(184,602,ls),
(184,626,o),
(189,640,o),
(202,640,cs),
(231,640,l),
(231,670,l),
(84,670,l),
(84,640,l),
(111,640,ls),
(126,640,o),
(131,626,o),
(131,602,cs),
(131,136,ls),
(131,50,o),
(118,18,o),
(94,18,cs),
(77,18,o),
(64,33,o),
(64,59,cs),
(64,90,o),
(76,92,o),
(76,134,cs),
(76,170,o),
(62,198,o),
(43,198,cs),
(21,198,o),
(7,165,o),
(7,120,cs)
);
}
);
width = 231;
},
{
background = {
shapes = (
{
closed = 1;
nodes = (
(13,40,o),
(95,-18,o),
(193,-18,cs),
(295,-18,o),
(367,42,o),
(367,151,cs),
(367,602,ls),
(367,626,o),
(377,640,o),
(404,640,cs),
(462,640,l),
(462,670,l),
(167,670,l),
(167,640,l),
(222,640,ls),
(252,640,o),
(262,626,o),
(262,602,cs),
(262,136,ls),
(262,50,o),
(235,18,o),
(187,18,cs),
(154,18,o),
(127,33,o),
(127,59,cs),
(127,90,o),
(152,92,o),
(152,134,cs),
(152,170,o),
(123,198,o),
(86,198,cs),
(41,198,o),
(13,165,o),
(13,120,cs)
);
}
);
};
hints = (
{
name = _corner.serif.uc;
options = 1;
origin = (0,7);
scale = (-1,1);
type = Corner;
},
{
name = _corner.serif.uc;
origin = (0,6);
type = Corner;
}
);
layerId = "484F8FD9-52EC-47CF-91D8-DA5450121283";
shapes = (
{
closed = 1;
nodes = (
(13,40,o),
(95,-18,o),
(193,-18,cs),
(295,-18,o),
(367,42,o),
(367,151,cs),
(367,670,l),
(262,670,l),
(262,136,ls),
(262,50,o),
(235,18,o),
(187,18,cs),
(154,18,o),
(127,33,o),
(127,59,cs),
(127,90,o),
(152,92,o),
(152,134,cs),
(152,170,o),
(123,198,o),
(86,198,cs),
(41,198,o),
(13,165,o),
(13,120,cs)
);
}
);
width = 462;
},
{
layerId = "28D540C6-4B1C-4739-9DB3-C8E6E4DDF73A";
shapes = (
{
closed = 1;
nodes = (
(26,40,o),
(190,-18,o),
(386,-18,cs),
(590,-18,o),
(734,42,o),
(734,151,cs),
(734,602,ls),
(734,626,o),
(754,640,o),
(808,640,cs),
(924,640,l),
(924,670,l),
(334,670,l),
(334,640,l),
(444,640,ls),
(504,640,o),
(524,626,o),
(524,602,cs),
(524,136,ls),
(524,50,o),
(470,18,o),
(374,18,cs),
(308,18,o),
(254,33,o),
(254,59,cs),
(254,90,o),
(304,92,o),
(304,134,cs),
(304,170,o),
(246,198,o),
(172,198,cs),
(82,198,o),
(26,165,o),
(26,120,cs)
);
}
);
width = 924;
}
);
unicode = 74;
userData = {
com.typemytype.robofont.layerData = {
background = {
anchors = (
);
components = (
);
contours = (
);
lib = {
};
name = H;
unicodes = (
);
width = 462;
};
};
com.typemytype.robofont.mark = (
0.9366,
0.9212,
0.4821,
1
);
};
},
{
glyphname = K;
kernLeft = B;
kernRight = K;
lastChange = "2025-02-16 17:03:48 +0000";
layers = (
{
background = {
shapes = (
{
closed = 1;
nodes = (
(345,368,l),
(337,385,l),
(278,359,l),
(287,340,l)
);
},
{
closed = 1;
nodes = (
(432,592,o),
(448,610,o),
(469,610,cs),
(479,610,o),
(491,604,o),
(491,590,cs),
(491,585,o),
(489,573,o),
(489,566,cs),
(489,531,o),
(514,514,o),
(549,514,cs),
(590,514,o),
(619,545,o),
(619,585,cs),
(619,642,o),
(576,680,o),
(521,680,cs),
(459,680,o),
(408,640,o),
(377,536,cs),
(353,455,o),
(334,396,o),
(272,363,cs),
(231,341,o),
(210,324,o),
(193,293,c),
(205,293,l),
(205,602,ls),
(205,626,o),
(215,640,o),
(245,640,cs),
(300,640,l),
(300,670,l),
(5,670,l),
(5,640,l),
(63,640,ls),
(90,640,o),
(100,626,o),
(100,602,cs),
(100,68,ls),
(100,44,o),
(90,30,o),
(63,30,cs),
(5,30,l),
(5,0,l),
(300,0,l),
(300,30,l),
(245,30,ls),
(215,30,o),
(205,44,o),
(205,68,cs),
(205,212,ls),
(205,284,o),
(250,333,o),
(312,333,cs),
(379,333,o),
(396,280,o),
(396,231,cs),
(396,122,ls),
(396,47,o),
(427,-12,o),
(543,-12,cs),
(649,-12,o),
(720,47,o),
(757,187,c),
(726,194,l),
(700,99,o),
(649,36,o),
(586,36,cs),
(530,36,o),
(504,73,o),
(504,138,cs),
(504,241,ls),
(504,333,o),
(447,376,o),
(365,376,cs),
(341,376,o),
(309,369,o),
(291,358,c),
(298,348,l),
(357,373,o),
(383,439,o),
(410,523,cs)
);
}
);
};
layerId = "ADE64B87-3839-4AD4-BD35-A3CFF79840FC";
shapes = (
{
closed = 1;
nodes = (
(232,49,o),
(226,30,o),
(203,30,cs),
(190,30,l),
(190,0,l),
(328,0,l),
(328,30,l),
(315,30,ls),
(296,30,o),
(289,48,o),
(277,91,cs),
(179,438,l),
(142,372,l),
(219,97,ls)
);
},
{
closed = 1;
nodes = (
(243,545,ls),
(278,614,o),
(296,640,o),
(325,640,c),
(325,670,l),
(193,670,l),
(193,640,l),
(200,640,ls),
(232,640,o),
(238,582,o),
(212,529,cs),
(87,277,ls),
(96,249,l)
);
},
{
closed = 1;
nodes = (
(103,626,o),
(108,640,o),
(123,640,cs),
(145,640,l),
(145,670,l),
(8,670,l),
(8,640,l),
(32,640,ls),
(45,640,o),
(50,626,o),
(50,602,cs),
(50,68,ls),
(50,44,o),
(45,30,o),
(32,30,cs),
(8,30,l),
(8,0,l),
(145,0,l),
(145,30,l),
(123,30,ls),
(108,30,o),
(103,44,o),
(103,68,cs),
(103,602,ls)
);
}
);
width = 318;
},
{
background = {
hints = (
{
name = _corner.serif.uc;
options = 1;
origin = (2,0);
scale = (-1,1);
type = Corner;
},
{
name = _corner.serif.uc;
origin = (2,1);
type = Corner;
},
{
name = _corner.serif.uc;
options = 1;
origin = (2,2);
scale = (-1,1);
type = Corner;
},
{
name = _corner.serif.uc;
origin = (2,3);
type = Corner;
}
);
shapes = (
{
closed = 1;
nodes = (
(464,49,o),
(451,30,o),
(405,30,cs),
(380,30,l),
(380,0,l),
(655,0,l),
(655,30,l),
(630,30,ls),
(592,30,o),
(577,48,o),
(553,91,cs),
(358,438,l),
(283,372,l),
(437,97,ls)
);
},
{
closed = 1;
nodes = (
(486,545,ls),
(555,614,o),
(591,640,o),
(650,640,c),
(650,670,l),
(385,670,l),
(385,640,l),
(400,640,ls),
(463,640,o),
(475,582,o),
(423,529,cs),
(173,277,ls),
(191,249,l)
);
},
{
closed = 1;
nodes = (
(205,0,l),
(205,670,l),
(100,670,l),
(100,0,l)
);
}
);
};
hints = (
{
name = _corner.serif.uc;
options = 1;
origin = (1,0);
scale = (-1,1);
type = Corner;
},
{
name = _corner.serif.uc;
origin = (1,1);
type = Corner;
},
{
name = _corner.serif.uc;
options = 1;
origin = (1,2);
scale = (-1,1);
type = Corner;
},
{
name = _corner.serif.uc;
origin = (1,3);
type = Corner;
},
{
name = _corner.serif.uc;
origin = (2,3);
scale = (0.9,1);
type = Corner;
},
{
name = _corner.serif.uc;
options = 1;
origin = (2,0);
scale = (-0.8,1);
type = Corner;
}
);
layerId = "484F8FD9-52EC-47CF-91D8-DA5450121283";
shapes = (
{
closed = 1;
nodes = (
(486,545,ls),
(555,614,o),
(591,640,o),
(650,640,c),
(650,670,l),
(385,670,l),
(385,640,l),
(400,640,ls),
(463,640,o),
(475,582,o),
(423,529,cs),
(173,277,ls),
(191,249,l)
);
},
{
closed = 1;
nodes = (
(205,0,l),
(205,670,l),
(100,670,l),
(100,0,l)
);
},
{
closed = 1;
nodes = (
(604,0,l),
(358,438,l),
(283,372,l),
(491,0,l)
);
}
);
width = 635;
},
{
background = {
shapes = (
{
closed = 1;
nodes = (
(345,368,l),
(337,385,l),
(278,359,l),
(287,340,l)
);
},
{
closed = 1;
nodes = (
(432,592,o),
(448,610,o),
(469,610,cs),
(479,610,o),
(491,604,o),
(491,590,cs),
(491,585,o),
(489,573,o),
(489,566,cs),
(489,531,o),
(514,514,o),
(549,514,cs),
(590,514,o),
(619,545,o),
(619,585,cs),
(619,642,o),
(576,680,o),
(521,680,cs),
(459,680,o),
(408,640,o),
(377,536,cs),
(353,455,o),
(334,396,o),
(272,363,cs),
(231,341,o),
(210,324,o),
(193,293,c),
(205,293,l),
(205,602,ls),
(205,626,o),
(215,640,o),
(245,640,cs),
(300,640,l),
(300,670,l),
(5,670,l),
(5,640,l),
(63,640,ls),
(90,640,o),
(100,626,o),
(100,602,cs),
(100,68,ls),
(100,44,o),
(90,30,o),
(63,30,cs),
(5,30,l),
(5,0,l),
(300,0,l),
(300,30,l),
(245,30,ls),
(215,30,o),
(205,44,o),
(205,68,cs),
(205,212,ls),
(205,284,o),
(250,333,o),
(312,333,cs),
(379,333,o),
(396,280,o),
(396,231,cs),
(396,122,ls),
(396,47,o),
(427,-12,o),
(543,-12,cs),
(649,-12,o),
(720,47,o),
(757,187,c),
(726,194,l),
(700,99,o),
(649,36,o),
(586,36,cs),
(530,36,o),
(504,73,o),
(504,138,cs),
(504,241,ls),
(504,333,o),
(447,376,o),
(365,376,cs),
(341,376,o),
(309,369,o),
(291,358,c),
(298,348,l),
(357,373,o),
(383,439,o),
(410,523,cs)
);
}
);
};
layerId = "28D540C6-4B1C-4739-9DB3-C8E6E4DDF73A";
shapes = (
{
closed = 1;
nodes = (
(928,49,o),
(902,30,o),
(810,30,cs),
(760,30,l),
(760,0,l),
(1310,0,l),
(1310,30,l),
(1260,30,ls),
(1184,30,o),
(1154,48,o),
(1106,91,cs),
(716,438,l),
(566,372,l),
(874,97,ls)
);
},
{
closed = 1;
nodes = (
(972,545,ls),
(1110,614,o),
(1182,640,o),
(1300,640,c),
(1300,670,l),
(770,670,l),
(770,640,l),
(800,640,ls),
(926,640,o),
(950,582,o),
(846,529,cs),
(346,277,ls),
(382,249,l)
);
},
{
closed = 1;
nodes = (
(410,626,o),
(430,640,o),
(490,640,cs),
(580,640,l),
(580,670,l),
(30,670,l),
(30,640,l),
(126,640,ls),
(180,640,o),
(200,626,o),
(200,602,cs),
(200,68,ls),
(200,44,o),
(180,30,o),
(126,30,cs),
(30,30,l),
(30,0,l),
(580,0,l),
(580,30,l),
(490,30,ls),
(430,30,o),
(410,44,o),
(410,68,cs),
(410,602,ls)
);
}
);
width = 1270;
}
);
unicode = 75;
userData = {
com.typemytype.robofont.layerData = {
background = {
anchors = (
);
components = (
);
contours = (
);
lib = {
};
name = K;
unicodes = (
);
width = 635;
};
};
};
},
{
glyphname = L;
kernLeft = B;
lastChange = "2025-02-16 17:04:40 +0000";
layers = (
{
layerId = "ADE64B87-3839-4AD4-BD35-A3CFF79840FC";
shapes = (
{
closed = 1;
nodes = (
(103,626,o),
(108,640,o),
(123,640,cs),
(150,640,l),
(150,670,l),
(3,670,l),
(3,640,l),
(32,640,ls),
(45,640,o),
(50,626,o),
(50,602,cs),
(50,68,ls),
(50,44,o),
(45,30,o),
(32,30,cs),
(3,30,l),
(3,0,l),
(258,0,l),
(258,245,l),
(241,245,l),
(237,107,o),
(197,30,o),
(140,30,cs),
(103,30,l),
(103,602,ls)
);
}
);
width = 283;
},
{
background = {
shapes = (
{
closed = 1;
nodes = (
(205,626,o),
(215,640,o),
(245,640,cs),
(300,640,l),
(300,670,l),
(5,670,l),
(5,640,l),
(63,640,ls),
(90,640,o),
(100,626,o),
(100,602,cs),
(100,68,ls),
(100,44,o),
(90,30,o),
(63,30,cs),
(5,30,l),
(5,0,l),
(515,0,l),
(515,245,l),
(481,245,l),
(473,107,o),
(394,30,o),
(279,30,cs),
(205,30,l),
(205,602,ls)
);
}
);
};
hints = (
{
name = _corner.serif.uc;
origin = (0,9);
type = Corner;
},
{
name = _corner.serif.uc;
origin = (0,7);
type = Corner;
},
{
name = _corner.serif.uc;
options = 1;
origin = (0,8);
scale = (-1,1);
type = Corner;
}
);
layerId = "484F8FD9-52EC-47CF-91D8-DA5450121283";
shapes = (
{
closed = 1;
nodes = (
(515,0,l),
(515,245,l),
(481,245,l),
(473,107,o),
(394,30,o),
(279,30,cs),
(205,30,l),
(205,670,l),
(100,670,l),
(100,0,l)
);
}
);
width = 565;
},
{
layerId = "28D540C6-4B1C-4739-9DB3-C8E6E4DDF73A";
shapes = (
{
closed = 1;
nodes = (
(410,626,o),
(430,640,o),
(490,640,cs),
(600,640,l),
(600,670,l),
(10,670,l),
(10,640,l),
(126,640,ls),
(180,640,o),
(200,626,o),
(200,602,cs),
(200,68,ls),
(200,44,o),
(180,30,o),
(126,30,cs),
(10,30,l),
(10,0,l),
(1030,0,l),
(1030,245,l),
(962,245,l),
(946,107,o),
(788,30,o),
(558,30,cs),
(410,30,l),
(410,602,ls)
);
}
);
width = 1130;
}
);
unicode = 76;
userData = {
com.typemytype.robofont.layerData = {
background = {
anchors = (
);
components = (
);
contours = (
);
lib = {
};
name = L;
unicodes = (
);
width = 565;
};
};
com.typemytype.robofont.mark = (
0.4827,
0.8546,
0.4678,
1
);
};
},
{
glyphname = M;
kernLeft = M;
kernRight = H;
lastChange = "2025-02-16 17:08:53 +0000";
layers = (
{
layerId = "ADE64B87-3839-4AD4-BD35-A3CFF79840FC";
shapes = (
{
closed = 1;
nodes = (
(292,576,l),
(292,598,l),
(276,598,l),
(276,576,l)
);
},
{
closed = 1;
nodes = (
(115,670,l),
(3,670,l),
(3,640,l),
(32,640,ls),
(53,640,o),
(60,619,o),
(60,582,cs),
(60,180,ls),
(60,93,o),
(43,30,o),
(8,30,cs),
(3,30,l),
(3,0,l),
(135,0,l),
(135,30,l),
(130,30,ls),
(95,30,o),
(78,93,o),
(78,180,cs),
(78,640,ls),
(62,670,l),
(151,150,l),
(175,0,l),
(187,0,l),
(210,150,l),
(296,670,l),
(283,640,l),
(283,68,ls),
(283,44,o),
(278,30,o),
(264,30,cs),
(235,30,l),
(235,0,l),
(383,0,l),
(383,30,l),
(355,30,ls),
(340,30,o),
(335,44,o),
(335,68,cs),
(335,602,ls),
(335,626,o),
(340,640,o),
(355,640,cs),
(383,640,l),
(383,670,l),
(279,670,l),
(193,150,l),
(204,150,l)
);
},
{
closed = 1;
nodes = (
(87,565,l),
(87,587,l),
(71,587,l),
(71,565,l)
);
},
{
closed = 1;
nodes = (
(204,173,l),
(204,190,l),
(192,190,l),
(192,173,l)
);
}
);
width = 385;
},
{
background = {
shapes = (
{
closed = 1;
nodes = (
(584,576,l),
(584,598,l),
(551,598,l),
(551,576,l)
);
},
{
closed = 1;
nodes = (
(230,670,l),
(5,670,l),
(5,640,l),
(63,640,ls),
(105,640,o),
(120,619,o),
(120,582,cs),
(120,180,ls),
(120,93,o),
(86,30,o),
(15,30,cs),
(5,30,l),
(5,0,l),
(270,0,l),
(270,30,l),
(260,30,ls),
(189,30,o),
(155,93,o),
(155,180,cs),
(155,640,ls),
(123,670,l),
(301,150,l),
(349,0,l),
(374,0,l),
(420,150,l),
(592,670,l),
(565,640,l),
(565,68,ls),
(565,44,o),
(555,30,o),
(528,30,cs),
(470,30,l),
(470,0,l),
(765,0,l),
(765,30,l),
(710,30,ls),
(680,30,o),
(670,44,o),
(670,68,cs),
(670,602,ls),
(670,626,o),
(680,640,o),
(710,640,cs),
(765,640,l),
(765,670,l),
(557,670,l),
(385,150,l),
(408,150,l)
);
},
{
closed = 1;
nodes = (
(174,565,l),
(174,587,l),
(141,587,l),
(141,565,l)
);
},
{
closed = 1;
nodes = (
(408,173,l),
(408,190,l),
(384,190,l),
(384,173,l)
);
}
);
};
hints = (
{
name = _corner.serif.uc;
origin = (1,29);
type = Corner;
},
{
name = _corner.serif.uc;
origin = (1,27);
type = Corner;
},
{
name = _corner.serif.uc;
options = 1;
origin = (1,28);
scale = (-1,1);
type = Corner;
}
);
layerId = "484F8FD9-52EC-47CF-91D8-DA5450121283";
shapes = (
{
closed = 1;
nodes = (
(584,576,l),
(584,598,l),
(551,598,l),
(551,576,l)
);
},
{
closed = 1;
nodes = (
(230,670,l),
(5,670,l),
(5,640,l),
(63,640,ls),
(105,640,o),
(120,619,o),
(120,582,cs),
(120,180,ls),
(120,93,o),
(86,30,o),
(15,30,cs),
(5,30,l),
(5,0,l),
(270,0,l),
(270,30,l),
(260,30,ls),
(189,30,o),
(155,93,o),
(155,180,cs),
(155,640,ls),
(123,670,l),
(301,150,l),
(349,0,l),
(374,0,l),
(420,150,l),
(592,670,l),
(565,640,l),
(565,0,l),
(670,0,l),
(670,670,l),
(557,670,l),
(385,150,l),
(408,150,l)
);
},
{
closed = 1;
nodes = (
(174,565,l),
(174,587,l),
(141,587,l),
(141,565,l)
);
},
{
closed = 1;
nodes = (
(408,173,l),
(408,190,l),
(384,190,l),
(384,173,l)
);
}
);
width = 770;
},
{
layerId = "28D540C6-4B1C-4739-9DB3-C8E6E4DDF73A";
shapes = (
{
closed = 1;
nodes = (
(1168,576,l),
(1168,598,l),
(1102,598,l),
(1102,576,l)
);
},
{
closed = 1;
nodes = (
(460,670,l),
(10,670,l),
(10,640,l),
(126,640,ls),
(210,640,o),
(240,619,o),
(240,582,cs),
(240,180,ls),
(240,93,o),
(172,30,o),
(30,30,cs),
(10,30,l),
(10,0,l),
(540,0,l),
(540,30,l),
(520,30,ls),
(378,30,o),
(310,93,o),
(310,180,cs),
(310,640,ls),
(246,670,l),
(602,150,l),
(698,0,l),
(748,0,l),
(840,150,l),
(1184,670,l),
(1130,640,l),
(1130,68,ls),
(1130,44,o),
(1110,30,o),
(1056,30,cs),
(940,30,l),
(940,0,l),
(1530,0,l),
(1530,30,l),
(1420,30,ls),
(1360,30,o),
(1340,44,o),
(1340,68,cs),
(1340,602,ls),
(1340,626,o),
(1360,640,o),
(1420,640,cs),
(1530,640,l),
(1530,670,l),
(1114,670,l),
(770,150,l),
(816,150,l)
);
},
{
closed = 1;
nodes = (
(348,565,l),
(348,587,l),
(282,587,l),
(282,565,l)
);
},
{
closed = 1;
nodes = (
(816,173,l),
(816,190,l),
(768,190,l),
(768,173,l)
);
}
);
width = 1540;
}
);
unicode = 77;
userData = {
com.typemytype.robofont.layerData = {
background = {
anchors = (
);
components = (
);
contours = (
);
lib = {
};
name = M;
unicodes = (
);
width = 770;
};
};
com.typemytype.robofont.mark = (
0.9366,
0.9212,
0.4821,
1
);
};
},
{
glyphname = N;
kernLeft = M;
lastChange = "2018-07-13 09:52:20 +0000";
layers = (
{
layerId = "ADE64B87-3839-4AD4-BD35-A3CFF79840FC";
shapes = (
{
closed = 1;
nodes = (
(260,147,l),
(260,168,l),
(237,168,l),
(237,147,l)
);
},
{
closed = 1;
nodes = (
(268,577,o),
(285,640,o),
(321,640,cs),
(326,640,l),
(326,670,l),
(193,670,l),
(193,640,l),
(198,640,ls),
(234,640,o),
(251,577,o),
(251,490,cs),
(251,150,l),
(254,150,l),
(93,670,l),
(3,670,l),
(3,640,l),
(32,640,ls),
(53,640,o),
(60,619,o),
(60,582,cs),
(60,180,ls),
(60,93,o),
(43,30,o),
(8,30,cs),
(3,30,l),
(3,0,l),
(135,0,l),
(135,30,l),
(130,30,ls),
(95,30,o),
(78,93,o),
(78,180,cs),
(78,575,ls),
(66,575,l),
(198,150,l),
(243,0,l),
(268,0,l),
(268,490,ls)
);
},
{
closed = 1;
nodes = (
(91,532,l),
(91,553,l),
(69,553,l),
(69,532,l)
);
}
);
width = 328;
},
{
layerId = "484F8FD9-52EC-47CF-91D8-DA5450121283";
shapes = (
{
closed = 1;
nodes = (
(519,147,l),
(519,168,l),
(474,168,l),
(474,147,l)
);
},
{
closed = 1;
nodes = (
(536,577,o),
(570,640,o),
(641,640,cs),
(651,640,l),
(651,670,l),
(386,670,l),
(386,640,l),
(396,640,ls),
(467,640,o),
(501,577,o),
(501,490,cs),
(501,150,l),
(508,150,l),
(185,670,l),
(5,670,l),
(5,640,l),
(63,640,ls),
(105,640,o),
(120,619,o),
(120,582,cs),
(120,180,ls),
(120,93,o),
(86,30,o),
(15,30,cs),
(5,30,l),
(5,0,l),
(270,0,l),
(270,30,l),
(260,30,ls),
(189,30,o),
(155,93,o),
(155,180,cs),
(155,575,ls),
(132,575,l),
(396,150,l),
(485,0,l),
(536,0,l),
(536,490,ls)
);
},
{
closed = 1;
nodes = (
(182,532,l),
(182,553,l),
(137,553,l),
(137,532,l)
);
}
);
width = 656;
},
{
layerId = "28D540C6-4B1C-4739-9DB3-C8E6E4DDF73A";
shapes = (
{
closed = 1;
nodes = (
(1038,147,l),
(1038,168,l),
(948,168,l),
(948,147,l)
);
},
{
closed = 1;
nodes = (
(1072,577,o),
(1140,640,o),
(1282,640,cs),
(1302,640,l),
(1302,670,l),
(772,670,l),
(772,640,l),
(792,640,ls),
(934,640,o),
(1002,577,o),
(1002,490,cs),
(1002,150,l),
(1016,150,l),
(370,670,l),
(10,670,l),
(10,640,l),
(126,640,ls),
(210,640,o),
(240,619,o),
(240,582,cs),
(240,180,ls),
(240,93,o),
(172,30,o),
(30,30,cs),
(10,30,l),
(10,0,l),
(540,0,l),
(540,30,l),
(520,30,ls),
(378,30,o),
(310,93,o),
(310,180,cs),
(310,575,ls),
(264,575,l),
(792,150,l),
(970,0,l),
(1072,0,l),
(1072,490,ls)
);
},
{
closed = 1;
nodes = (
(364,532,l),
(364,553,l),
(274,553,l),
(274,532,l)
);
}
);
width = 1312;
}
);
unicode = 78;
userData = {
com.typemytype.robofont.layerData = {
background = {
anchors = (
);
components = (
);
contours = (
);
lib = {
};
name = N;
unicodes = (
);
width = 656;
};
};
com.typemytype.robofont.mark = (
0.9366,
0.9212,
0.4821,
1
);
};
},
{
glyphname = O;
kernLeft = C;
kernRight = D;
lastChange = "2018-07-13 09:52:20 +0000";
layers = (
{
anchors = (
{
name = bottom;
pos = (168,0);
},
{
name = center;
pos = (168,335);
},
{
name = ogonek;
pos = (302,10);
},
{
name = top;
pos = (168,670);
},
{
name = topleft;
pos = (10,670);
},
{
name = topright;
pos = (325,670);
}
);
layerId = "ADE64B87-3839-4AD4-BD35-A3CFF79840FC";
shapes = (
{
closed = 1;
nodes = (
(93,688,o),
(28,558,o),
(28,335,cs),
(28,113,o),
(93,-18,o),
(168,-18,cs),
(243,-18,o),
(308,113,o),
(308,335,cs),
(308,558,o),
(243,688,o),
(168,688,cs)
);
},
{
closed = 1;
nodes = (
(228,657,o),
(250,546,o),
(250,335,cs),
(250,126,o),
(228,15,o),
(168,15,cs),
(107,15,o),
(85,126,o),
(85,335,cs),
(85,546,o),
(107,657,o),
(168,657,cs)
);
}
);
width = 335;
},
{
anchors = (
{
name = bottom;
pos = (335,0);
},
{
name = center;
pos = (335,335);
},
{
name = ogonek;
pos = (603,10);
},
{
name = top;
pos = (335,670);
},
{
name = topleft;
pos = (20,670);
},
{
name = topright;
pos = (650,670);
}
);
layerId = "484F8FD9-52EC-47CF-91D8-DA5450121283";
shapes = (
{
closed = 1;
nodes = (
(185,688,o),
(55,558,o),
(55,335,cs),
(55,113,o),
(185,-18,o),
(335,-18,cs),
(485,-18,o),
(615,113,o),
(615,335,cs),
(615,558,o),
(485,688,o),
(335,688,cs)
);
},
{
closed = 1;
nodes = (
(456,657,o),
(500,546,o),
(500,335,cs),
(500,126,o),
(456,15,o),
(335,15,cs),
(214,15,o),
(170,126,o),
(170,335,cs),
(170,546,o),
(214,657,o),
(335,657,cs)
);
}
);
width = 670;
},
{
anchors = (
{
name = bottom;
pos = (670,0);
},
{
name = center;
pos = (670,335);
},
{
name = ogonek;
pos = (1206,10);
},
{
name = top;
pos = (670,670);
},
{
name = topleft;
pos = (40,670);
},
{
name = topright;
pos = (1300,670);
}
);
layerId = "28D540C6-4B1C-4739-9DB3-C8E6E4DDF73A";
shapes = (
{
closed = 1;
nodes = (
(370,688,o),
(110,558,o),
(110,335,cs),
(110,113,o),
(370,-18,o),
(670,-18,cs),
(970,-18,o),
(1230,113,o),
(1230,335,cs),
(1230,558,o),
(970,688,o),
(670,688,cs)
);
},
{
closed = 1;
nodes = (
(912,657,o),
(1000,546,o),
(1000,335,cs),
(1000,126,o),
(912,15,o),
(670,15,cs),
(428,15,o),
(340,126,o),
(340,335,cs),
(340,546,o),
(428,657,o),
(670,657,cs)
);
}
);
width = 1340;
}
);
unicode = 79;
userData = {
com.typemytype.robofont.layerData = {
background = {
anchors = (
);
components = (
);
contours = (
);
lib = {
};
name = O;
unicodes = (
);
width = 670;
};
};
com.typemytype.robofont.mark = (
0.9366,
0.9212,
0.4821,
1
);
};
},
{
glyphname = P;
kernLeft = B;
lastChange = "2025-02-16 17:09:59 +0000";
layers = (
{
layerId = "ADE64B87-3839-4AD4-BD35-A3CFF79840FC";
shapes = (
{
closed = 1;
nodes = (
(150,30,l),
(121,30,ls),
(108,30,o),
(103,44,o),
(103,68,cs),
(103,640,l),
(152,640,ls),
(192,640,o),
(218,590,o),
(218,487,cs),
(218,384,o),
(196,330,o),
(152,330,cs),
(83,330,l),
(83,300,l),
(156,300,ls),
(239,300,o),
(273,383,o),
(273,487,cs),
(273,591,o),
(237,670,o),
(156,670,cs),
(3,670,l),
(3,640,l),
(32,640,ls),
(45,640,o),
(50,626,o),
(50,602,cs),
(50,68,ls),
(50,44,o),
(45,30,o),
(32,30,cs),
(3,30,l),
(3,0,l),
(150,0,l)
);
}
);
width = 282;
},
{
background = {
shapes = (
{
closed = 1;
nodes = (
(300,30,l),
(242,30,ls),
(215,30,o),
(205,44,o),
(205,68,cs),
(205,640,l),
(303,640,ls),
(384,640,o),
(435,590,o),
(435,487,cs),
(435,384,o),
(392,330,o),
(303,330,cs),
(166,330,l),
(166,300,l),
(312,300,ls),
(478,300,o),
(545,383,o),
(545,487,cs),
(545,591,o),
(474,670,o),
(312,670,cs),
(5,670,l),
(5,640,l),
(63,640,ls),
(90,640,o),
(100,626,o),
(100,602,cs),
(100,68,ls),
(100,44,o),
(90,30,o),
(63,30,cs),
(5,30,l),
(5,0,l),
(300,0,l)
);
}
);
};
hints = (
{
name = _corner.serif.uc;
options = 1;
origin = (0,18);
scale = (-1,1);
type = Corner;
},
{
name = _corner.serif.uc;
options = 1;
origin = (0,0);
scale = (-1,1);
type = Corner;
},
{
name = _corner.serif.uc;
origin = (0,19);
type = Corner;
}
);
layerId = "484F8FD9-52EC-47CF-91D8-DA5450121283";
shapes = (
{
closed = 1;
nodes = (
(205,0,l),
(205,640,l),
(303,640,ls),
(384,640,o),
(435,590,o),
(435,487,cs),
(435,384,o),
(392,330,o),
(303,330,cs),
(166,330,l),
(166,300,l),
(312,300,ls),
(478,300,o),
(545,383,o),
(545,487,cs),
(545,591,o),
(474,670,o),
(312,670,cs),
(100,670,l),
(100,0,l)
);
}
);
width = 563;
},
{
layerId = "28D540C6-4B1C-4739-9DB3-C8E6E4DDF73A";
shapes = (
{
closed = 1;
nodes = (
(600,30,l),
(484,30,ls),
(430,30,o),
(410,44,o),
(410,68,cs),
(410,640,l),
(606,640,ls),
(768,640,o),
(870,590,o),
(870,487,cs),
(870,384,o),
(784,330,o),
(606,330,cs),
(332,330,l),
(332,300,l),
(624,300,ls),
(956,300,o),
(1090,383,o),
(1090,487,cs),
(1090,591,o),
(948,670,o),
(624,670,cs),
(10,670,l),
(10,640,l),
(126,640,ls),
(180,640,o),
(200,626,o),
(200,602,cs),
(200,68,ls),
(200,44,o),
(180,30,o),
(126,30,cs),
(10,30,l),
(10,0,l),
(600,0,l)
);
}
);
width = 1126;
}
);
unicode = 80;
userData = {
com.typemytype.robofont.layerData = {
background = {
anchors = (
);
components = (
);
contours = (
);
lib = {
};
name = P;
unicodes = (
);
width = 563;
};
};
com.typemytype.robofont.mark = (
0.9366,
0.9212,
0.4821,
1
);
};
},
{
glyphname = Q;
kernLeft = C;
lastChange = "2018-07-13 09:52:20 +0000";
layers = (
{
layerId = "ADE64B87-3839-4AD4-BD35-A3CFF79840FC";
shapes = (
{
closed = 1;
nodes = (
(157,-187,l),
(169,-187,l),
(173,-160,o),
(184,-141,o),
(198,-141,cs),
(220,-141,o),
(236,-190,o),
(260,-190,cs),
(290,-190,o),
(313,-132,o),
(336,-27,c),
(321,-13,l),
(306,-76,o),
(297,-93,o),
(284,-93,cs),
(262,-93,o),
(248,-50,o),
(225,-50,cs),
(200,-50,o),
(179,-86,o),
(160,-177,c),
(174,-147,l),
(174,160,l),
(157,160,l)
);
},
{
ref = O;
}
);
width = 335;
},
{
layerId = "484F8FD9-52EC-47CF-91D8-DA5450121283";
shapes = (
{
closed = 1;
nodes = (
(313,-187,l),
(338,-187,l),
(346,-160,o),
(367,-141,o),
(395,-141,cs),
(439,-141,o),
(471,-190,o),
(520,-190,cs),
(579,-190,o),
(625,-132,o),
(672,-27,c),
(641,-13,l),
(612,-76,o),
(593,-93,o),
(568,-93,cs),
(524,-93,o),
(496,-50,o),
(449,-50,cs),
(400,-50,o),
(357,-86,o),
(320,-177,c),
(347,-147,l),
(347,160,l),
(313,160,l)
);
},
{
ref = O;
}
);
width = 670;
},
{
layerId = "28D540C6-4B1C-4739-9DB3-C8E6E4DDF73A";
shapes = (
{
closed = 1;
nodes = (
(626,-187,l),
(676,-187,l),
(692,-160,o),
(734,-141,o),
(790,-141,cs),
(878,-141,o),
(942,-190,o),
(1040,-190,cs),
(1158,-190,o),
(1250,-132,o),
(1344,-27,c),
(1282,-13,l),
(1224,-76,o),
(1186,-93,o),
(1136,-93,cs),
(1048,-93,o),
(992,-50,o),
(898,-50,cs),
(800,-50,o),
(714,-86,o),
(640,-177,c),
(694,-147,l),
(694,160,l),
(626,160,l)
);
},
{
ref = O;
}
);
width = 1340;
}
);
unicode = 81;
userData = {
com.typemytype.robofont.layerData = {
background = {
anchors = (
);
components = (
);
contours = (
);
lib = {
};
name = Q;
unicodes = (
);
width = 670;
};
};
com.typemytype.robofont.mark = (
0.3692,
0.5456,
0.891,
1
);
};
},
{
glyphname = R;
kernLeft = B;
lastChange = "2025-02-16 16:50:01 +0000";
layers = (
{
background = {
shapes = (
{
closed = 1;
nodes = (
(390,334,l),
(390,358,l),
(307,358,l),
(307,334,l)
);
},
{
closed = 1;
nodes = (
(479,340,o),
(547,413,o),
(547,505,cs),
(547,599,o),
(476,670,o),
(312,670,cs),
(5,670,l),
(5,640,l),
(63,640,ls),
(90,640,o),
(100,626,o),
(100,602,cs),
(100,68,ls),
(100,44,o),
(90,30,o),
(63,30,cs),
(5,30,l),
(5,0,l),
(300,0,l),
(300,30,l),
(242,30,ls),
(215,30,o),
(205,44,o),
(205,68,cs),
(205,640,l),
(303,640,ls),
(385,640,o),
(437,596,o),
(437,505,cs),
(437,410,o),
(393,360,o),
(303,360,cs),
(166,360,l),
(166,330,l),
(303,330,ls),
(381,330,o),
(404,297,o),
(407,224,cs),
(411,135,ls),
(416,11,o),
(474,-14,o),
(550,-14,cs),
(643,-14,o),
(678,37,o),
(724,112,c),
(697,128,l),
(655,61,o),
(627,32,o),
(588,32,cs),
(546,32,o),
(530,59,o),
(524,125,cs),
(515,222,ls),
(507,312,o),
(453,336,o),
(315,356,c),
(312,340,l)
);
}
);
};
layerId = "ADE64B87-3839-4AD4-BD35-A3CFF79840FC";
shapes = (
{
closed = 1;
nodes = (
(195,334,l),
(195,358,l),
(154,358,l),
(154,334,l)
);
},
{
closed = 1;
nodes = (
(145,0,l),
(145,30,l),
(121,30,ls),
(108,30,o),
(103,44,o),
(103,68,cs),
(103,640,l),
(152,640,ls),
(193,640,o),
(219,596,o),
(219,505,cs),
(219,410,o),
(197,360,o),
(152,360,cs),
(83,360,l),
(83,330,l),
(152,330,ls),
(195,330,o),
(209,291,o),
(210,218,cs),
(211,67,ls),
(211,17,o),
(222,0,o),
(246,0,cs),
(303,0,l),
(303,30,l),
(285,30,ls),
(269,30,o),
(262,45,o),
(262,78,cs),
(261,222,ls),
(261,307,o),
(229,335,o),
(158,356,c),
(156,340,l),
(240,340,o),
(274,413,o),
(274,505,cs),
(274,599,o),
(238,670,o),
(156,670,cs),
(8,670,l),
(8,640,l),
(32,640,ls),
(45,640,o),
(50,626,o),
(50,602,cs),
(50,68,ls),
(50,44,o),
(45,30,o),
(32,30,cs),
(8,30,l),
(8,0,l)
);
}
);
width = 310;
},
{
background = {
shapes = (
{
closed = 1;
nodes = (
(390,334,l),
(390,358,l),
(307,358,l),
(307,334,l)
);
},
{
closed = 1;
nodes = (
(290,0,l),
(290,30,l),
(242,30,ls),
(215,30,o),
(205,44,o),
(205,68,cs),
(205,640,l),
(303,640,ls),
(385,640,o),
(437,596,o),
(437,505,cs),
(437,410,o),
(393,360,o),
(303,360,cs),
(166,360,l),
(166,330,l),
(303,330,ls),
(390,330,o),
(418,291,o),
(419,218,cs),
(421,67,ls),
(422,17,o),
(444,0,o),
(492,0,cs),
(605,0,l),
(605,30,l),
(570,30,ls),
(537,30,o),
(524,45,o),
(524,78,cs),
(522,222,ls),
(521,307,o),
(458,335,o),
(315,356,c),
(312,340,l),
(479,340,o),
(547,413,o),
(547,505,cs),
(547,599,o),
(476,670,o),
(312,670,cs),
(15,670,l),
(15,640,l),
(63,640,ls),
(90,640,o),
(100,626,o),
(100,602,cs),
(100,68,ls),
(100,44,o),
(90,30,o),
(63,30,cs),
(10,30,l),
(10,0,l)
);
}
);
};
hints = (
{
name = _corner.serif.uc;
origin = (1,37);
type = Corner;
},
{
name = _corner.serif.uc;
options = 1;
origin = (1,0);
scale = (-1,1);
type = Corner;
},
{
name = _corner.serif.uc;
options = 1;
origin = (1,36);
scale = (-1,1);
type = Corner;
}
);
layerId = "484F8FD9-52EC-47CF-91D8-DA5450121283";
shapes = (
{
closed = 1;
nodes = (
(390,334,l),
(390,358,l),
(307,358,l),
(307,334,l)
);
},
{
closed = 1;
nodes = (
(205,0,l),
(205,640,l),
(303,640,ls),
(385,640,o),
(437,596,o),
(437,505,cs),
(437,410,o),
(393,360,o),
(303,360,cs),
(166,360,l),
(166,330,l),
(303,330,ls),
(390,330,o),
(418,291,o),
(419,218,cs),
(421,67,ls),
(422,17,o),
(444,0,o),
(492,0,cs),
(605,0,l),
(605,30,l),
(570,30,ls),
(537,30,o),
(524,45,o),
(524,78,cs),
(522,222,ls),
(521,307,o),
(458,335,o),
(315,356,c),
(312,340,l),
(479,340,o),
(547,413,o),
(547,505,cs),
(547,599,o),
(476,670,o),
(312,670,cs),
(100,670,l),
(100,0,l)
);
}
);
width = 620;
},
{
background = {
shapes = (
{
closed = 1;
nodes = (
(390,334,l),
(390,358,l),
(307,358,l),
(307,334,l)
);
},
{
closed = 1;
nodes = (
(479,340,o),
(547,413,o),
(547,505,cs),
(547,599,o),
(476,670,o),
(312,670,cs),
(5,670,l),
(5,640,l),
(63,640,ls),
(90,640,o),
(100,626,o),
(100,602,cs),
(100,68,ls),
(100,44,o),
(90,30,o),
(63,30,cs),
(5,30,l),
(5,0,l),
(300,0,l),
(300,30,l),
(242,30,ls),
(215,30,o),
(205,44,o),
(205,68,cs),
(205,640,l),
(303,640,ls),
(385,640,o),
(437,596,o),
(437,505,cs),
(437,410,o),
(393,360,o),
(303,360,cs),
(166,360,l),
(166,330,l),
(303,330,ls),
(381,330,o),
(404,297,o),
(407,224,cs),
(411,135,ls),
(416,11,o),
(474,-14,o),
(550,-14,cs),
(643,-14,o),
(678,37,o),
(724,112,c),
(697,128,l),
(655,61,o),
(627,32,o),
(588,32,cs),
(546,32,o),
(530,59,o),
(524,125,cs),
(515,222,ls),
(507,312,o),
(453,336,o),
(315,356,c),
(312,340,l)
);
}
);
};
layerId = "28D540C6-4B1C-4739-9DB3-C8E6E4DDF73A";
shapes = (
{
closed = 1;
nodes = (
(780,334,l),
(780,358,l),
(614,358,l),
(614,334,l)
);
},
{
closed = 1;
nodes = (
(580,0,l),
(580,30,l),
(484,30,ls),
(430,30,o),
(410,44,o),
(410,68,cs),
(410,640,l),
(606,640,ls),
(770,640,o),
(874,596,o),
(874,505,cs),
(874,410,o),
(786,360,o),
(606,360,cs),
(332,360,l),
(332,330,l),
(606,330,ls),
(780,330,o),
(836,291,o),
(838,218,cs),
(842,67,ls),
(844,17,o),
(888,0,o),
(984,0,cs),
(1210,0,l),
(1210,30,l),
(1140,30,ls),
(1074,30,o),
(1048,45,o),
(1048,78,cs),
(1044,222,ls),
(1042,307,o),
(916,335,o),
(630,356,c),
(624,340,l),
(958,340,o),
(1094,413,o),
(1094,505,cs),
(1094,599,o),
(952,670,o),
(624,670,cs),
(30,670,l),
(30,640,l),
(126,640,ls),
(180,640,o),
(200,626,o),
(200,602,cs),
(200,68,ls),
(200,44,o),
(180,30,o),
(126,30,cs),
(30,30,l),
(30,0,l)
);
}
);
width = 1240;
}
);
unicode = 82;
userData = {
com.typemytype.robofont.layerData = {
background = {
anchors = (
);
components = (
);
contours = (
);
lib = {
};
name = R;
unicodes = (
);
width = 620;
};
};
};
},
{
glyphname = S;
lastChange = "2018-07-13 09:52:20 +0000";
layers = (
{
background = {
shapes = (
{
closed = 1;
nodes = (
(186,182,o),
(158,209,o),
(116,209,cs),
(75,209,o),
(45,176,o),
(45,131,cs),
(45,48,o),
(132,-18,o),
(263,-18,cs),
(427,-18,o),
(507,67,o),
(507,182,cs),
(507,258,o),
(470,328,o),
(364,373,cs),
(237,427,ls),
(174,454,o),
(159,491,o),
(159,533,cs),
(159,599,o),
(199,646,o),
(278,646,cs),
(324,646,o),
(363,633,o),
(363,598,cs),
(363,585,o),
(351,571,o),
(351,542,cs),
(351,509,o),
(376,477,o),
(422,477,cs),
(467,477,o),
(489,515,o),
(489,549,cs),
(489,614,o),
(425,682,o),
(278,682,cs),
(144,682,o),
(57,607,o),
(57,500,cs),
(57,444,o),
(84,379,o),
(173,341,cs),
(315,280,ls),
(386,250,o),
(405,198,o),
(405,151,cs),
(405,69,o),
(358,18,o),
(269,18,cs),
(227,18,o),
(170,41,o),
(170,76,cs),
(170,91,o),
(186,112,o),
(186,143,cs)
);
}
);
};
layerId = "ADE64B87-3839-4AD4-BD35-A3CFF79840FC";
shapes = (
{
closed = 1;
nodes = (
(72,684,o),
(29,623,o),
(29,525,cs),
(29,467,o),
(42,424,o),
(77,379,cs),
(175,253,ls),
(195,227,o),
(204,193,o),
(204,147,cs),
(204,79,o),
(183,22,o),
(148,22,cs),
(94,22,o),
(56,116,o),
(43,240,c),
(28,240,l),
(28,-5,l),
(40,-5,l),
(43,16,o),
(52,28,o),
(62,28,cs),
(87,28,o),
(105,-14,o),
(159,-14,cs),
(212,-14,o),
(252,59,o),
(252,172,cs),
(252,239,o),
(238,290,o),
(206,331,cs),
(108,456,ls),
(86,484,o),
(76,508,o),
(76,551,cs),
(76,607,o),
(93,652,o),
(127,652,cs),
(174,652,o),
(205,574,o),
(214,461,c),
(229,461,l),
(229,675,l),
(216,675,l),
(214,660,o),
(211,650,o),
(201,650,cs),
(183,650,o),
(168,684,o),
(127,684,cs)
);
}
);
width = 275;
},
{
background = {
shapes = (
{
closed = 1;
nodes = (
(186,182,o),
(158,209,o),
(116,209,cs),
(75,209,o),
(45,176,o),
(45,131,cs),
(45,48,o),
(132,-18,o),
(263,-18,cs),
(427,-18,o),
(507,67,o),
(507,182,cs),
(507,258,o),
(470,328,o),
(364,373,cs),
(237,427,ls),
(174,454,o),
(159,491,o),
(159,533,cs),
(159,599,o),
(199,646,o),
(278,646,cs),
(324,646,o),
(363,633,o),
(363,598,cs),
(363,585,o),
(351,571,o),
(351,542,cs),
(351,509,o),
(376,477,o),
(422,477,cs),
(467,477,o),
(489,515,o),
(489,549,cs),
(489,614,o),
(425,682,o),
(278,682,cs),
(144,682,o),
(57,607,o),
(57,500,cs),
(57,444,o),
(84,379,o),
(173,341,cs),
(315,280,ls),
(386,250,o),
(405,198,o),
(405,151,cs),
(405,69,o),
(358,18,o),
(269,18,cs),
(227,18,o),
(170,41,o),
(170,76,cs),
(170,91,o),
(186,112,o),
(186,143,cs)
);
}
);
};
layerId = "484F8FD9-52EC-47CF-91D8-DA5450121283";
shapes = (
{
closed = 1;
nodes = (
(143,684,o),
(57,623,o),
(57,525,cs),
(57,467,o),
(84,424,o),
(153,379,cs),
(349,253,ls),
(389,227,o),
(408,193,o),
(408,147,cs),
(408,79,o),
(365,22,o),
(295,22,cs),
(188,22,o),
(111,116,o),
(85,240,c),
(55,240,l),
(55,-5,l),
(80,-5,l),
(86,16,o),
(103,28,o),
(123,28,cs),
(174,28,o),
(209,-14,o),
(318,-14,cs),
(424,-14,o),
(504,59,o),
(504,172,cs),
(504,239,o),
(475,290,o),
(411,331,cs),
(215,456,ls),
(171,484,o),
(151,508,o),
(151,551,cs),
(151,607,o),
(186,652,o),
(253,652,cs),
(348,652,o),
(410,574,o),
(427,461,c),
(457,461,l),
(457,675,l),
(432,675,l),
(428,660,o),
(421,650,o),
(401,650,cs),
(366,650,o),
(335,684,o),
(253,684,cs)
);
}
);
width = 550;
},
{
background = {
shapes = (
{
closed = 1;
nodes = (
(186,182,o),
(158,209,o),
(116,209,cs),
(75,209,o),
(45,176,o),
(45,131,cs),
(45,48,o),
(132,-18,o),
(263,-18,cs),
(427,-18,o),
(507,67,o),
(507,182,cs),
(507,258,o),
(470,328,o),
(364,373,cs),
(237,427,ls),
(174,454,o),
(159,491,o),
(159,533,cs),
(159,599,o),
(199,646,o),
(278,646,cs),
(324,646,o),
(363,633,o),
(363,598,cs),
(363,585,o),
(351,571,o),
(351,542,cs),
(351,509,o),
(376,477,o),
(422,477,cs),
(467,477,o),
(489,515,o),
(489,549,cs),
(489,614,o),
(425,682,o),
(278,682,cs),
(144,682,o),
(57,607,o),
(57,500,cs),
(57,444,o),
(84,379,o),
(173,341,cs),
(315,280,ls),
(386,250,o),
(405,198,o),
(405,151,cs),
(405,69,o),
(358,18,o),
(269,18,cs),
(227,18,o),
(170,41,o),
(170,76,cs),
(170,91,o),
(186,112,o),
(186,143,cs)
);
}
);
};
layerId = "28D540C6-4B1C-4739-9DB3-C8E6E4DDF73A";
shapes = (
{
closed = 1;
nodes = (
(286,684,o),
(114,623,o),
(114,525,cs),
(114,467,o),
(168,424,o),
(306,379,cs),
(698,253,ls),
(778,227,o),
(816,193,o),
(816,147,cs),
(816,79,o),
(730,22,o),
(590,22,cs),
(376,22,o),
(222,116,o),
(170,240,c),
(110,240,l),
(110,-5,l),
(160,-5,l),
(172,16,o),
(206,28,o),
(246,28,cs),
(348,28,o),
(418,-14,o),
(636,-14,cs),
(848,-14,o),
(1008,59,o),
(1008,172,cs),
(1008,239,o),
(950,290,o),
(822,331,cs),
(430,456,ls),
(342,484,o),
(302,508,o),
(302,551,cs),
(302,607,o),
(372,652,o),
(506,652,cs),
(696,652,o),
(820,574,o),
(854,461,c),
(914,461,l),
(914,675,l),
(864,675,l),
(856,660,o),
(842,650,o),
(802,650,cs),
(732,650,o),
(670,684,o),
(506,684,cs)
);
}
);
width = 1100;
}
);
unicode = 83;
userData = {
com.typemytype.robofont.layerData = {
background = {
anchors = (
);
components = (
);
contours = (
);
lib = {
};
name = S;
unicodes = (
);
width = 550;
};
};
};
},
{
glyphname = T;
kernLeft = T;
kernRight = T;
lastChange = "2025-02-16 17:10:23 +0000";
layers = (
{
background = {
shapes = (
{
closed = 1;
nodes = (
(15,440,l),
(32,440,l),
(38,572,o),
(65,640,o),
(105,640,cs),
(115,640,l),
(115,68,ls),
(115,44,o),
(110,30,o),
(97,30,cs),
(68,30,l),
(68,0,l),
(215,0,l),
(215,30,l),
(186,30,ls),
(173,30,o),
(168,44,o),
(168,68,cs),
(168,640,l),
(178,640,ls),
(218,640,o),
(245,572,o),
(251,440,c),
(268,440,l),
(268,670,l),
(15,670,l)
);
}
);
};
color = 4;
layerId = "ADE64B87-3839-4AD4-BD35-A3CFF79840FC";
shapes = (
{
closed = 1;
nodes = (
(212,0,l),
(212,24,l),
(171,24,ls),
(159,24,o),
(156,30,o),
(156,40,cs),
(156,648,l),
(177,648,ls),
(233,648,o),
(239,614,o),
(244,440,c),
(266,440,l),
(264,670,l),
(16,670,l),
(14,440,l),
(36,440,l),
(41,614,o),
(47,648,o),
(103,648,cs),
(124,648,l),
(124,40,ls),
(124,30,o),
(121,24,o),
(108,24,cs),
(67,24,l),
(67,0,l)
);
}
);
width = 280;
},
{
hints = (
{
name = _corner.serif.uc;
origin = (0,15);
type = Corner;
},
{
name = _corner.serif.uc;
options = 1;
origin = (0,0);
scale = (-1,1);
type = Corner;
}
);
layerId = "484F8FD9-52EC-47CF-91D8-DA5450121283";
shapes = (
{
closed = 1;
nodes = (
(335,0,l),
(335,640,l),
(355,640,ls),
(436,640,o),
(489,572,o),
(501,440,c),
(535,440,l),
(535,670,l),
(30,670,l),
(30,440,l),
(64,440,l),
(76,572,o),
(129,640,o),
(210,640,cs),
(230,640,l),
(230,0,l)
);
}
);
width = 565;
},
{
layerId = "28D540C6-4B1C-4739-9DB3-C8E6E4DDF73A";
shapes = (
{
closed = 1;
nodes = (
(860,0,l),
(860,30,l),
(744,30,ls),
(690,30,o),
(670,44,o),
(670,68,cs),
(670,640,l),
(710,640,ls),
(872,640,o),
(978,572,o),
(1002,440,c),
(1070,440,l),
(1070,670,l),
(60,670,l),
(60,440,l),
(128,440,l),
(152,572,o),
(258,640,o),
(420,640,cs),
(460,640,l),
(460,68,ls),
(460,44,o),
(440,30,o),
(386,30,cs),
(270,30,l),
(270,0,l)
);
}
);
width = 1130;
}
);
unicode = 84;
userData = {
com.typemytype.robofont.layerData = {
background = {
anchors = (
);
components = (
);
contours = (
);
lib = {
};
name = E;
unicodes = (
);
width = 565;
};
};
com.typemytype.robofont.mark = (
0.9366,
0.9212,
0.4821,
1
);
};
},
{
glyphname = U;
kernLeft = U;
kernRight = U;
lastChange = "2025-02-16 17:10:51 +0000";
layers = (
{
anchors = (
{
name = bottom;
pos = (161,0);
},
{
name = ogonek;
pos = (289,10);
},
{
name = top;
pos = (168,670);
},
{
name = topright;
pos = (311,670);
}
);
layerId = "ADE64B87-3839-4AD4-BD35-A3CFF79840FC";
shapes = (
{
closed = 1;
nodes = (
(100,602,ls),
(100,626,o),
(105,640,o),
(120,640,cs),
(148,640,l),
(148,670,l),
(0,670,l),
(0,640,l),
(29,640,ls),
(43,640,o),
(48,626,o),
(48,602,cs),
(48,216,ls),
(48,48,o),
(97,-18,o),
(165,-18,cs),
(223,-18,o),
(266,60,o),
(266,198,cs),
(266,490,ls),
(266,577,o),
(283,640,o),
(318,640,cs),
(323,640,l),
(323,670,l),
(191,670,l),
(191,640,l),
(196,640,ls),
(231,640,o),
(248,577,o),
(248,490,cs),
(248,200,ls),
(248,96,o),
(218,33,o),
(174,33,cs),
(133,33,o),
(100,79,o),
(100,194,cs)
);
}
);
width = 321;
},
{
anchors = (
{
name = bottom;
pos = (321,0);
},
{
name = ogonek;
pos = (577,10);
},
{
name = top;
pos = (335,670);
},
{
name = topright;
pos = (621,670);
}
);
hints = (
{
name = _corner.serif.uc;
options = 1;
origin = (0,23);
scale = (-1,1);
type = Corner;
},
{
name = _corner.serif.uc;
origin = (0,22);
type = Corner;
}
);
layerId = "484F8FD9-52EC-47CF-91D8-DA5450121283";
shapes = (
{
closed = 1;
nodes = (
(446,-18,o),
(531,60,o),
(531,198,cs),
(531,490,ls),
(531,577,o),
(565,640,o),
(636,640,cs),
(646,640,l),
(646,670,l),
(381,670,l),
(381,640,l),
(391,640,ls),
(462,640,o),
(496,577,o),
(496,490,cs),
(496,200,ls),
(496,96,o),
(435,33,o),
(347,33,cs),
(265,33,o),
(200,79,o),
(200,194,cs),
(200,670,l),
(95,670,l),
(95,216,ls),
(95,48,o),
(194,-18,o),
(330,-18,cs)
);
}
);
width = 641;
},
{
anchors = (
{
name = bottom;
pos = (642,0);
},
{
name = ogonek;
pos = (1154,10);
},
{
name = top;
pos = (670,670);
},
{
name = topright;
pos = (1242,670);
}
);
layerId = "28D540C6-4B1C-4739-9DB3-C8E6E4DDF73A";
shapes = (
{
closed = 1;
nodes = (
(400,602,ls),
(400,626,o),
(420,640,o),
(480,640,cs),
(590,640,l),
(590,670,l),
(0,670,l),
(0,640,l),
(116,640,ls),
(170,640,o),
(190,626,o),
(190,602,cs),
(190,216,ls),
(190,48,o),
(388,-18,o),
(660,-18,cs),
(892,-18,o),
(1062,60,o),
(1062,198,cs),
(1062,490,ls),
(1062,577,o),
(1130,640,o),
(1272,640,cs),
(1292,640,l),
(1292,670,l),
(762,670,l),
(762,640,l),
(782,640,ls),
(924,640,o),
(992,577,o),
(992,490,cs),
(992,200,ls),
(992,96,o),
(870,33,o),
(694,33,cs),
(530,33,o),
(400,79,o),
(400,194,cs)
);
}
);
width = 1282;
}
);
unicode = 85;
userData = {
com.typemytype.robofont.layerData = {
background = {
anchors = (
);
components = (
);
contours = (
);
lib = {
};
name = H;
unicodes = (
);
width = 641;
};
};
com.typemytype.robofont.mark = (
0.9366,
0.9212,
0.4821,
1
);
};
},
{
glyphname = V;
kernLeft = T;
kernRight = T;
lastChange = "2018-07-13 09:52:20 +0000";
layers = (
{
layerId = "ADE64B87-3839-4AD4-BD35-A3CFF79840FC";
shapes = (
{
closed = 1;
nodes = (
(186,120,l),
(233,444,ls),
(243,506,o),
(253,556,o),
(264,588,cs),
(276,623,o),
(292,640,o),
(308,640,cs),
(313,640,l),
(313,670,l),
(180,670,l),
(180,640,l),
(185,640,ls),
(215,640,o),
(225,598,o),
(225,549,cs),
(225,518,o),
(221,482,o),
(216,450,cs),
(169,120,ls),
(171,120,l),
(93,564,ls),
(82,620,o),
(88,640,o),
(112,640,cs),
(130,640,l),
(130,670,l),
(-18,670,l),
(-18,640,l),
(-3,640,ls),
(21,640,o),
(32,617,o),
(41,569,cs),
(121,119,l),
(141,0,ls),
(169,0,l)
);
},
{
closed = 1;
nodes = (
(180,106,l),
(180,132,l),
(160,132,l),
(160,106,l)
);
}
);
width = 310;
},
{
layerId = "484F8FD9-52EC-47CF-91D8-DA5450121283";
shapes = (
{
closed = 1;
nodes = (
(372,120,l),
(466,444,ls),
(486,506,o),
(506,556,o),
(528,588,cs),
(552,623,o),
(584,640,o),
(615,640,cs),
(625,640,l),
(625,670,l),
(360,670,l),
(360,640,l),
(370,640,ls),
(429,640,o),
(450,598,o),
(450,549,cs),
(450,518,o),
(442,482,o),
(432,450,cs),
(338,120,ls),
(342,120,l),
(185,564,ls),
(164,620,o),
(175,640,o),
(223,640,cs),
(260,640,l),
(260,670,l),
(-35,670,l),
(-35,640,l),
(-5,640,ls),
(41,640,o),
(64,617,o),
(82,569,cs),
(241,119,l),
(282,0,ls),
(338,0,l)
);
},
{
closed = 1;
nodes = (
(359,106,l),
(359,132,l),
(320,132,l),
(320,106,l)
);
}
);
width = 620;
},
{
layerId = "28D540C6-4B1C-4739-9DB3-C8E6E4DDF73A";
shapes = (
{
closed = 1;
nodes = (
(744,120,l),
(932,444,ls),
(972,506,o),
(1012,556,o),
(1056,588,cs),
(1104,623,o),
(1168,640,o),
(1230,640,cs),
(1250,640,l),
(1250,670,l),
(720,670,l),
(720,640,l),
(740,640,ls),
(858,640,o),
(900,598,o),
(900,549,cs),
(900,518,o),
(884,482,o),
(864,450,cs),
(676,120,ls),
(684,120,l),
(370,564,ls),
(328,620,o),
(350,640,o),
(446,640,cs),
(520,640,l),
(520,670,l),
(-70,670,l),
(-70,640,l),
(-10,640,ls),
(82,640,o),
(128,617,o),
(164,569,cs),
(482,119,l),
(564,0,ls),
(676,0,l)
);
},
{
closed = 1;
nodes = (
(718,106,l),
(718,132,l),
(640,132,l),
(640,106,l)
);
}
);
width = 1240;
}
);
unicode = 86;
userData = {
com.typemytype.robofont.layerData = {
background = {
anchors = (
);
components = (
);
contours = (
);
lib = {
};
name = V;
unicodes = (
);
width = 620;
};
};
com.typemytype.robofont.mark = (
0.9366,
0.9212,
0.4821,
1
);
};
},
{
glyphname = W;
kernLeft = T;
kernRight = T;
lastChange = "2018-07-13 09:52:20 +0000";
layers = (
{
layerId = "ADE64B87-3839-4AD4-BD35-A3CFF79840FC";
shapes = (
{
closed = 1;
nodes = (
(155,116,ls),
(166,116,l),
(98,564,ls),
(91,606,o),
(93,640,o),
(117,640,cs),
(135,640,l),
(135,670,l),
(-13,670,l),
(-13,640,l),
(3,640,ls),
(26,640,o),
(38,619,o),
(46,569,cs),
(115,116,l),
(131,0,ls),
(157,0,l),
(171,116,l),
(226,529,ls),
(212,504,l),
(274,116,l),
(292,0,l),
(317,0,l),
(333,116,l),
(378,444,ls),
(388,506,o),
(398,556,o),
(409,588,cs),
(421,623,o),
(437,640,o),
(453,640,cs),
(458,640,l),
(458,670,l),
(325,670,l),
(325,640,l),
(330,640,ls),
(360,640,o),
(370,598,o),
(370,549,cs),
(370,518,o),
(366,482,o),
(361,450,cs),
(315,116,ls),
(325,116,l),
(258,532,l),
(237,670,l),
(226,670,l),
(209,529,l)
);
},
{
closed = 1;
nodes = (
(170,136,l),
(170,162,l),
(150,162,l),
(150,136,l)
);
},
{
closed = 1;
nodes = (
(226,460,l),
(226,478,l),
(210,478,l),
(210,460,l)
);
},
{
closed = 1;
nodes = (
(330,130,l),
(330,156,l),
(310,156,l),
(310,130,l)
);
}
);
width = 460;
},
{
layerId = "484F8FD9-52EC-47CF-91D8-DA5450121283";
shapes = (
{
closed = 1;
nodes = (
(309,116,ls),
(331,116,l),
(195,564,ls),
(182,606,o),
(185,640,o),
(233,640,cs),
(270,640,l),
(270,670,l),
(-25,670,l),
(-25,640,l),
(5,640,ls),
(51,640,o),
(76,619,o),
(92,569,cs),
(229,116,l),
(262,0,ls),
(313,0,l),
(342,116,l),
(451,529,ls),
(423,504,l),
(548,116,l),
(583,0,l),
(634,0,l),
(665,116,l),
(756,444,ls),
(775,506,o),
(796,556,o),
(818,588,cs),
(842,623,o),
(874,640,o),
(905,640,cs),
(915,640,l),
(915,670,l),
(650,670,l),
(650,640,l),
(660,640,ls),
(719,640,o),
(740,598,o),
(740,549,cs),
(740,518,o),
(732,482,o),
(722,450,cs),
(630,116,ls),
(650,116,l),
(516,532,l),
(474,670,l),
(452,670,l),
(417,529,l)
);
},
{
closed = 1;
nodes = (
(339,136,l),
(339,162,l),
(300,162,l),
(300,136,l)
);
},
{
closed = 1;
nodes = (
(451,460,l),
(451,478,l),
(420,478,l),
(420,460,l)
);
},
{
closed = 1;
nodes = (
(659,130,l),
(659,156,l),
(620,156,l),
(620,130,l)
);
}
);
width = 920;
},
{
layerId = "28D540C6-4B1C-4739-9DB3-C8E6E4DDF73A";
shapes = (
{
closed = 1;
nodes = (
(618,116,ls),
(662,116,l),
(390,564,ls),
(364,606,o),
(370,640,o),
(466,640,cs),
(540,640,l),
(540,670,l),
(-50,670,l),
(-50,640,l),
(10,640,ls),
(102,640,o),
(152,619,o),
(184,569,cs),
(458,116,l),
(524,0,ls),
(626,0,l),
(684,116,l),
(902,529,ls),
(846,504,l),
(1096,116,l),
(1166,0,l),
(1268,0,l),
(1330,116,l),
(1512,444,ls),
(1550,506,o),
(1592,556,o),
(1636,588,cs),
(1684,623,o),
(1748,640,o),
(1810,640,cs),
(1830,640,l),
(1830,670,l),
(1300,670,l),
(1300,640,l),
(1320,640,ls),
(1438,640,o),
(1480,598,o),
(1480,549,cs),
(1480,518,o),
(1464,482,o),
(1444,450,cs),
(1260,116,ls),
(1300,116,l),
(1032,532,l),
(948,670,l),
(904,670,l),
(834,529,l)
);
},
{
closed = 1;
nodes = (
(678,136,l),
(678,162,l),
(600,162,l),
(600,136,l)
);
},
{
closed = 1;
nodes = (
(902,460,l),
(902,478,l),
(840,478,l),
(840,460,l)
);
},
{
closed = 1;
nodes = (
(1318,130,l),
(1318,156,l),
(1240,156,l),
(1240,130,l)
);
}
);
width = 1840;
}
);
unicode = 87;
userData = {
com.typemytype.robofont.layerData = {
background = {
anchors = (
);
components = (
);
contours = (
);
lib = {
};
name = W;
unicodes = (
);
width = 920;
};
};
com.typemytype.robofont.mark = (
0.9366,
0.9212,
0.4821,
1
);
};
},
{
glyphname = X;
lastChange = "2018-07-13 09:52:20 +0000";
layers = (
{
layerId = "ADE64B87-3839-4AD4-BD35-A3CFF79840FC";
shapes = (
{
closed = 1;
nodes = (
(44,68,o),
(21,30,o),
(-10,30,cs),
(-15,30,l),
(-15,0,l),
(120,0,l),
(120,30,l),
(115,30,ls),
(78,30,o),
(68,86,o),
(94,161,cs),
(215,515,ls),
(245,602,o),
(272,640,o),
(303,640,cs),
(308,640,l),
(308,670,l),
(173,670,l),
(173,640,l),
(178,640,ls),
(197,640,o),
(206,616,o),
(206,580,cs),
(206,553,o),
(201,527,o),
(191,496,cs),
(75,159,ls)
);
},
{
closed = 1;
nodes = (
(219,67,o),
(212,30,o),
(183,30,cs),
(168,30,l),
(168,0,l),
(320,0,l),
(320,30,l),
(310,30,ls),
(288,30,o),
(279,59,o),
(264,104,cs),
(113,579,ls),
(102,614,o),
(104,640,o),
(122,640,cs),
(141,640,l),
(141,670,l),
(1,670,l),
(1,640,l),
(13,640,ls),
(36,640,o),
(45,614,o),
(59,569,cs),
(201,122,ls)
);
}
);
width = 305;
},
{
layerId = "484F8FD9-52EC-47CF-91D8-DA5450121283";
shapes = (
{
closed = 1;
nodes = (
(87,68,o),
(42,30,o),
(-20,30,cs),
(-30,30,l),
(-30,0,l),
(240,0,l),
(240,30,l),
(230,30,ls),
(155,30,o),
(136,86,o),
(188,161,cs),
(430,515,ls),
(489,602,o),
(543,640,o),
(605,640,cs),
(615,640,l),
(615,670,l),
(345,670,l),
(345,640,l),
(355,640,ls),
(394,640,o),
(412,616,o),
(412,580,cs),
(412,553,o),
(402,527,o),
(381,496,cs),
(150,159,ls)
);
},
{
closed = 1;
nodes = (
(438,67,o),
(423,30,o),
(365,30,cs),
(335,30,l),
(335,0,l),
(640,0,l),
(640,30,l),
(620,30,ls),
(576,30,o),
(557,59,o),
(528,104,cs),
(225,579,ls),
(204,614,o),
(207,640,o),
(244,640,cs),
(281,640,l),
(281,670,l),
(1,670,l),
(1,640,l),
(25,640,ls),
(71,640,o),
(89,614,o),
(118,569,cs),
(402,122,ls)
);
}
);
width = 610;
},
{
layerId = "28D540C6-4B1C-4739-9DB3-C8E6E4DDF73A";
shapes = (
{
closed = 1;
nodes = (
(174,68,o),
(84,30,o),
(-40,30,cs),
(-60,30,l),
(-60,0,l),
(480,0,l),
(480,30,l),
(460,30,ls),
(310,30,o),
(272,86,o),
(376,161,cs),
(860,515,ls),
(978,602,o),
(1086,640,o),
(1210,640,cs),
(1230,640,l),
(1230,670,l),
(690,670,l),
(690,640,l),
(710,640,ls),
(788,640,o),
(824,616,o),
(824,580,cs),
(824,553,o),
(804,527,o),
(762,496,cs),
(300,159,ls)
);
},
{
closed = 1;
nodes = (
(876,67,o),
(846,30,o),
(730,30,cs),
(670,30,l),
(670,0,l),
(1280,0,l),
(1280,30,l),
(1240,30,ls),
(1152,30,o),
(1114,59,o),
(1056,104,cs),
(450,579,ls),
(408,614,o),
(414,640,o),
(488,640,cs),
(562,640,l),
(562,670,l),
(2,670,l),
(2,640,l),
(50,640,ls),
(142,640,o),
(178,614,o),
(236,569,cs),
(804,122,ls)
);
}
);
width = 1220;
}
);
unicode = 88;
userData = {
com.typemytype.robofont.layerData = {
background = {
anchors = (
);
components = (
);
contours = (
);
lib = {
};
name = X;
unicodes = (
);
width = 610;
};
};
com.typemytype.robofont.mark = (
0.9366,
0.9212,
0.4821,
1
);
};
},
{
glyphname = Y;
kernLeft = T;
kernRight = T;
lastChange = "2025-02-16 17:11:14 +0000";
layers = (
{
layerId = "ADE64B87-3839-4AD4-BD35-A3CFF79840FC";
shapes = (
{
closed = 1;
nodes = (
(232,511,ls),
(262,606,o),
(278,640,o),
(310,640,cs),
(315,640,l),
(315,670,l),
(182,670,l),
(182,640,l),
(187,640,ls),
(220,640,o),
(232,570,o),
(214,513,cs),
(159,340,ls),
(173,340,l),
(98,571,ls),
(84,615,o),
(91,640,o),
(110,640,cs),
(128,640,l),
(128,670,l),
(-20,670,l),
(-20,640,l),
(-8,640,ls),
(11,640,o),
(21,623,o),
(34,585,cs),
(138,276,ls),
(157,276,l)
);
},
{
closed = 1;
nodes = (
(125,68,ls),
(125,44,o),
(120,30,o),
(107,30,cs),
(78,30,l),
(78,0,l),
(225,0,l),
(225,30,l),
(198,30,ls),
(183,30,o),
(178,44,o),
(178,68,cs),
(178,353,ls),
(125,353,l)
);
}
);
width = 303;
},
{
hints = (
{
name = _corner.serif.uc;
origin = (1,3);
type = Corner;
},
{
name = _corner.serif.uc;
options = 1;
origin = (1,0);
scale = (-1,1);
type = Corner;
}
);
layerId = "484F8FD9-52EC-47CF-91D8-DA5450121283";
shapes = (
{
closed = 1;
nodes = (
(314,276,l),
(463,511,ls),
(523,606,o),
(555,640,o),
(619,640,cs),
(629,640,l),
(629,670,l),
(364,670,l),
(364,640,l),
(374,640,ls),
(439,640,o),
(464,570,o),
(428,513,cs),
(318,340,ls),
(345,340,l),
(196,571,ls),
(167,615,o),
(182,640,o),
(219,640,cs),
(256,640,l),
(256,670,l),
(-39,670,l),
(-39,640,l),
(-16,640,ls),
(21,640,o),
(42,623,o),
(68,585,cs),
(275,276,ls)
);
},
{
closed = 1;
nodes = (
(355,0,l),
(355,353,ls),
(250,353,l),
(250,0,l)
);
}
);
width = 605;
},
{
layerId = "28D540C6-4B1C-4739-9DB3-C8E6E4DDF73A";
shapes = (
{
closed = 1;
nodes = (
(926,511,ls),
(1046,606,o),
(1110,640,o),
(1238,640,cs),
(1258,640,l),
(1258,670,l),
(728,670,l),
(728,640,l),
(748,640,ls),
(878,640,o),
(928,570,o),
(856,513,cs),
(636,340,ls),
(690,340,l),
(392,571,ls),
(334,615,o),
(364,640,o),
(438,640,cs),
(512,640,l),
(512,670,l),
(-78,670,l),
(-78,640,l),
(-32,640,ls),
(42,640,o),
(84,623,o),
(136,585,cs),
(550,276,ls),
(628,276,l)
);
},
{
closed = 1;
nodes = (
(500,68,ls),
(500,44,o),
(480,30,o),
(426,30,cs),
(310,30,l),
(310,0,l),
(900,0,l),
(900,30,l),
(790,30,ls),
(730,30,o),
(710,44,o),
(710,68,cs),
(710,353,ls),
(500,353,l)
);
}
);
width = 1210;
}
);
unicode = 89;
userData = {
com.typemytype.robofont.layerData = {
background = {
anchors = (
);
components = (
);
contours = (
);
lib = {
};
name = I;
unicodes = (
);
width = 605;
};
};
com.typemytype.robofont.mark = (
0.9366,
0.9212,
0.4821,
1
);
};
},
{
glyphname = Z;
lastChange = "2018-07-13 09:52:20 +0000";
layers = (
{
layerId = "ADE64B87-3839-4AD4-BD35-A3CFF79840FC";
shapes = (
{
closed = 1;
nodes = (
(38,430,l),
(53,571,o),
(74,640,o),
(140,640,cs),
(197,640,l),
(194,650,l),
(13,20,l),
(13,0,l),
(247,0,l),
(247,245,l),
(234,245,l),
(217,97,o),
(192,30,o),
(138,30,cs),
(69,30,l),
(69,20,l),
(250,650,l),
(250,670,l),
(25,670,l),
(25,430,l)
);
}
);
width = 271;
},
{
layerId = "484F8FD9-52EC-47CF-91D8-DA5450121283";
shapes = (
{
closed = 1;
nodes = (
(75,430,l),
(105,571,o),
(148,640,o),
(280,640,cs),
(393,640,l),
(387,650,l),
(25,20,l),
(25,0,l),
(493,0,l),
(493,245,l),
(468,245,l),
(434,97,o),
(384,30,o),
(275,30,cs),
(138,30,l),
(138,20,l),
(500,650,l),
(500,670,l),
(50,670,l),
(50,430,l)
);
}
);
width = 541;
},
{
layerId = "28D540C6-4B1C-4739-9DB3-C8E6E4DDF73A";
shapes = (
{
closed = 1;
nodes = (
(150,430,l),
(210,571,o),
(296,640,o),
(560,640,cs),
(786,640,l),
(774,650,l),
(50,20,l),
(50,0,l),
(986,0,l),
(986,245,l),
(936,245,l),
(868,97,o),
(768,30,o),
(550,30,cs),
(276,30,l),
(276,20,l),
(1000,650,l),
(1000,670,l),
(100,670,l),
(100,430,l)
);
}
);
width = 1082;
}
);
unicode = 90;
userData = {
com.typemytype.robofont.layerData = {
background = {
anchors = (
);
components = (
);
contours = (
{
points = (
{
segmentType = line;
smooth = 0;
x = 50;
y = 430;
},
{
segmentType = line;
smooth = 0;
x = 50;
y = 670;
},
{
segmentType = line;
smooth = 0;
x = 500;
y = 670;
},
{
segmentType = line;
smooth = 0;
x = 500;
y = 650;
},
{
segmentType = line;
smooth = 0;
x = 138;
y = 20;
},
{
segmentType = line;
smooth = 0;
x = 138;
y = 30;
},
{
segmentType = line;
smooth = 1;
x = 275;
y = 30;
},
{
smooth = 0;
x = 384;
y = 30;
},
{
smooth = 0;
x = 434;
y = 97;
},
{
segmentType = curve;
smooth = 0;
x = 468;
y = 245;
},
{
segmentType = line;
smooth = 0;
x = 493;
y = 245;
},
{
segmentType = line;
smooth = 0;
x = 493;
y = 0;
},
{
segmentType = line;
smooth = 0;
x = 25;
y = 0;
},
{
segmentType = line;
smooth = 0;
x = 25;
y = 20;
},
{
segmentType = line;
smooth = 0;
x = 387;
y = 650;
},
{
segmentType = line;
smooth = 0;
x = 393;
y = 640;
},
{
segmentType = line;
smooth = 1;
x = 280;
y = 640;
},
{
smooth = 0;
x = 148;
y = 640;
},
{
smooth = 0;
x = 105;
y = 571;
},
{
segmentType = curve;
smooth = 0;
x = 75;
y = 430;
}
);
}
);
lib = {
};
name = Z;
unicodes = (
);
width = 541;
};
};
com.typemytype.robofont.mark = (
0.9366,
0.9212,
0.4821,
1
);
};
},
{
export = 0;
glyphname = C.ss01;
kernLeft = C;
lastChange = "2018-07-13 09:52:20 +0000";
layers = (
{
layerId = "ADE64B87-3839-4AD4-BD35-A3CFF79840FC";
shapes = (
{
closed = 1;
nodes = (
(236,688,o),
(165,688,cs),
(90,688,o),
(25,572,o),
(25,335,cs),
(25,98,o),
(90,-18,o),
(170,-18,cs),
(230,-18,o),
(269,40,o),
(303,165,c),
(289,180,l),
(258,74,o),
(226,22,o),
(185,22,cs),
(110,22,o),
(83,131,o),
(83,335,cs),
(83,546,o),
(105,657,o),
(164,657,cs),
(185,657,o),
(200,640,o),
(200,613,cs),
(200,586,o),
(192,582,o),
(192,547,cs),
(192,508,o),
(205,482,o),
(226,482,cs),
(247,482,o),
(263,513,o),
(263,560,cs),
(263,622,o)
);
}
);
width = 293;
},
{
layerId = "484F8FD9-52EC-47CF-91D8-DA5450121283";
shapes = (
{
closed = 1;
nodes = (
(471,688,o),
(329,688,cs),
(180,688,o),
(50,572,o),
(50,335,cs),
(50,98,o),
(180,-18,o),
(340,-18,cs),
(460,-18,o),
(537,40,o),
(606,165,c),
(578,180,l),
(515,74,o),
(452,22,o),
(369,22,cs),
(219,22,o),
(165,131,o),
(165,335,cs),
(165,546,o),
(209,657,o),
(328,657,cs),
(370,657,o),
(399,640,o),
(399,613,cs),
(399,586,o),
(383,582,o),
(383,547,cs),
(383,508,o),
(410,482,o),
(452,482,cs),
(493,482,o),
(525,513,o),
(525,560,cs),
(525,622,o)
);
}
);
width = 586;
},
{
layerId = "28D540C6-4B1C-4739-9DB3-C8E6E4DDF73A";
shapes = (
{
closed = 1;
nodes = (
(942,688,o),
(658,688,cs),
(360,688,o),
(100,572,o),
(100,335,cs),
(100,98,o),
(360,-18,o),
(680,-18,cs),
(920,-18,o),
(1074,40,o),
(1212,165,c),
(1156,180,l),
(1030,74,o),
(904,22,o),
(738,22,cs),
(438,22,o),
(330,131,o),
(330,335,cs),
(330,546,o),
(418,657,o),
(656,657,cs),
(740,657,o),
(798,640,o),
(798,613,cs),
(798,586,o),
(766,582,o),
(766,547,cs),
(766,508,o),
(820,482,o),
(904,482,cs),
(986,482,o),
(1050,513,o),
(1050,560,cs),
(1050,622,o)
);
}
);
width = 1172;
}
);
userData = {
com.typemytype.robofont.layerData = {
background = {
anchors = (
);
components = (
);
contours = (
);
lib = {
};
name = C;
unicodes = (
);
width = 586;
};
};
com.typemytype.robofont.mark = (
0.4827,
0.8546,
0.4678,
1
);
};
},
{
export = 0;
glyphname = G.ss01;
kernLeft = C;
lastChange = "2018-07-13 09:52:20 +0000";
layers = (
{
layerId = "ADE64B87-3839-4AD4-BD35-A3CFF79840FC";
shapes = (
{
closed = 1;
nodes = (
(194,657,o),
(212,633,o),
(212,594,cs),
(212,577,o),
(210,566,o),
(210,547,cs),
(210,510,o),
(223,486,o),
(242,486,cs),
(261,486,o),
(275,515,o),
(275,560,cs),
(275,622,o),
(245,688,o),
(168,688,cs),
(86,688,o),
(25,576,o),
(25,335,cs),
(25,94,o),
(90,-18,o),
(166,-18,cs),
(236,-18,o),
(278,74,o),
(281,212,cs),
(282,260,ls),
(283,305,o),
(291,325,o),
(309,325,cs),
(327,325,l),
(327,355,l),
(184,355,l),
(184,325,l),
(202,325,ls),
(220,325,o),
(229,305,o),
(229,261,cs),
(229,217,ls),
(229,76,o),
(205,15,o),
(166,15,cs),
(112,15,o),
(83,126,o),
(83,335,cs),
(83,546,o),
(114,657,o),
(167,657,cs)
);
}
);
width = 329;
},
{
layerId = "484F8FD9-52EC-47CF-91D8-DA5450121283";
shapes = (
{
closed = 1;
nodes = (
(387,657,o),
(424,633,o),
(424,594,cs),
(424,577,o),
(420,566,o),
(420,547,cs),
(420,510,o),
(445,486,o),
(484,486,cs),
(521,486,o),
(550,515,o),
(550,560,cs),
(550,622,o),
(489,688,o),
(336,688,cs),
(172,688,o),
(50,576,o),
(50,335,cs),
(50,94,o),
(180,-18,o),
(331,-18,cs),
(472,-18,o),
(555,74,o),
(561,212,cs),
(563,260,ls),
(565,305,o),
(581,325,o),
(617,325,cs),
(653,325,l),
(653,355,l),
(368,355,l),
(368,325,l),
(404,325,ls),
(440,325,o),
(458,305,o),
(458,261,cs),
(458,217,ls),
(458,76,o),
(409,15,o),
(332,15,cs),
(224,15,o),
(165,126,o),
(165,335,cs),
(165,546,o),
(227,657,o),
(334,657,cs)
);
}
);
width = 658;
},
{
layerId = "28D540C6-4B1C-4739-9DB3-C8E6E4DDF73A";
shapes = (
{
closed = 1;
nodes = (
(774,657,o),
(848,633,o),
(848,594,cs),
(848,577,o),
(840,566,o),
(840,547,cs),
(840,510,o),
(890,486,o),
(968,486,cs),
(1042,486,o),
(1100,515,o),
(1100,560,cs),
(1100,622,o),
(978,688,o),
(672,688,cs),
(344,688,o),
(100,576,o),
(100,335,cs),
(100,94,o),
(360,-18,o),
(662,-18,cs),
(944,-18,o),
(1110,74,o),
(1122,212,cs),
(1126,260,ls),
(1130,305,o),
(1162,325,o),
(1234,325,cs),
(1306,325,l),
(1306,355,l),
(736,355,l),
(736,325,l),
(808,325,ls),
(880,325,o),
(916,305,o),
(916,261,cs),
(916,217,ls),
(916,76,o),
(818,15,o),
(664,15,cs),
(448,15,o),
(330,126,o),
(330,335,cs),
(330,546,o),
(454,657,o),
(668,657,cs)
);
}
);
width = 1316;
}
);
userData = {
com.typemytype.robofont.layerData = {
background = {
anchors = (
);
components = (
);
contours = (
);
lib = {
};
name = C;
unicodes = (
);
width = 658;
};
};
com.typemytype.robofont.mark = (
0.9366,
0.9212,
0.4821,
1
);
};
},
{
export = 0;
glyphname = K.ss01;
kernLeft = B;
kernRight = K;
lastChange = "2025-02-16 17:11:52 +0000";
layers = (
{
layerId = "ADE64B87-3839-4AD4-BD35-A3CFF79840FC";
shapes = (
{
closed = 1;
nodes = (
(173,368,l),
(169,385,l),
(139,359,l),
(144,340,l)
);
},
{
closed = 1;
nodes = (
(216,592,o),
(224,610,o),
(235,610,cs),
(240,610,o),
(246,604,o),
(246,590,cs),
(246,585,o),
(245,573,o),
(245,566,cs),
(245,531,o),
(257,514,o),
(275,514,cs),
(295,514,o),
(310,545,o),
(310,585,cs),
(310,642,o),
(288,680,o),
(261,680,cs),
(230,680,o),
(204,640,o),
(189,536,cs),
(177,455,o),
(167,396,o),
(136,363,cs),
(116,341,o),
(105,324,o),
(97,293,c),
(103,293,l),
(103,602,ls),
(103,626,o),
(108,640,o),
(123,640,cs),
(150,640,l),
(150,670,l),
(3,670,l),
(3,640,l),
(32,640,ls),
(45,640,o),
(50,626,o),
(50,602,cs),
(50,68,ls),
(50,44,o),
(45,30,o),
(32,30,cs),
(3,30,l),
(3,0,l),
(150,0,l),
(150,30,l),
(123,30,ls),
(108,30,o),
(103,44,o),
(103,68,cs),
(103,212,ls),
(103,284,o),
(125,333,o),
(156,333,cs),
(190,333,o),
(198,280,o),
(198,231,cs),
(198,122,ls),
(198,47,o),
(214,-12,o),
(272,-12,cs),
(325,-12,o),
(360,47,o),
(379,187,c),
(363,194,l),
(350,99,o),
(325,36,o),
(293,36,cs),
(265,36,o),
(252,73,o),
(252,138,cs),
(252,241,ls),
(252,333,o),
(224,376,o),
(183,376,cs),
(171,376,o),
(155,369,o),
(146,358,c),
(149,348,l),
(179,373,o),
(192,439,o),
(205,523,cs)
);
}
);
width = 336;
},
{
hints = (
{
name = _corner.serif.uc;
options = 1;
origin = (1,29);
scale = (-1,1);
type = Corner;
},
{
name = _corner.serif.uc;
options = 1;
origin = (1,31);
scale = (-1,1);
type = Corner;
},
{
name = _corner.serif.uc;
origin = (1,30);
type = Corner;
},
{
name = _corner.serif.uc;
origin = (1,28);
type = Corner;
}
);
layerId = "484F8FD9-52EC-47CF-91D8-DA5450121283";
shapes = (
{
closed = 1;
nodes = (
(345,368,l),
(337,385,l),
(278,359,l),
(287,340,l)
);
},
{
closed = 1;
nodes = (
(432,592,o),
(448,610,o),
(469,610,cs),
(479,610,o),
(491,604,o),
(491,590,cs),
(491,585,o),
(489,573,o),
(489,566,cs),
(489,531,o),
(514,514,o),
(549,514,cs),
(590,514,o),
(619,545,o),
(619,585,cs),
(619,642,o),
(576,680,o),
(521,680,cs),
(459,680,o),
(408,640,o),
(377,536,cs),
(353,455,o),
(334,396,o),
(272,363,cs),
(231,341,o),
(210,324,o),
(193,293,c),
(205,293,l),
(205,670,l),
(100,670,l),
(100,0,l),
(205,0,l),
(205,212,ls),
(205,284,o),
(250,333,o),
(312,333,cs),
(379,333,o),
(396,280,o),
(396,231,cs),
(396,122,ls),
(396,47,o),
(427,-12,o),
(543,-12,cs),
(649,-12,o),
(720,47,o),
(757,187,c),
(726,194,l),
(700,99,o),
(649,36,o),
(586,36,cs),
(530,36,o),
(504,73,o),
(504,138,cs),
(504,241,ls),
(504,333,o),
(447,376,o),
(365,376,cs),
(341,376,o),
(309,369,o),
(291,358,c),
(298,348,l),
(357,373,o),
(383,439,o),
(410,523,cs)
);
}
);
width = 672;
},
{
layerId = "28D540C6-4B1C-4739-9DB3-C8E6E4DDF73A";
shapes = (
{
closed = 1;
nodes = (
(690,368,l),
(674,385,l),
(556,359,l),
(574,340,l)
);
},
{
closed = 1;
nodes = (
(864,592,o),
(896,610,o),
(938,610,cs),
(958,610,o),
(982,604,o),
(982,590,cs),
(982,585,o),
(978,573,o),
(978,566,cs),
(978,531,o),
(1028,514,o),
(1098,514,cs),
(1180,514,o),
(1238,545,o),
(1238,585,cs),
(1238,642,o),
(1152,680,o),
(1042,680,cs),
(918,680,o),
(816,640,o),
(754,536,cs),
(706,455,o),
(668,396,o),
(544,363,cs),
(462,341,o),
(420,324,o),
(386,293,c),
(410,293,l),
(410,602,ls),
(410,626,o),
(430,640,o),
(490,640,cs),
(600,640,l),
(600,670,l),
(10,670,l),
(10,640,l),
(126,640,ls),
(180,640,o),
(200,626,o),
(200,602,cs),
(200,68,ls),
(200,44,o),
(180,30,o),
(126,30,cs),
(10,30,l),
(10,0,l),
(600,0,l),
(600,30,l),
(490,30,ls),
(430,30,o),
(410,44,o),
(410,68,cs),
(410,212,ls),
(410,284,o),
(500,333,o),
(624,333,cs),
(758,333,o),
(792,280,o),
(792,231,cs),
(792,122,ls),
(792,47,o),
(854,-12,o),
(1086,-12,cs),
(1298,-12,o),
(1440,47,o),
(1514,187,c),
(1452,194,l),
(1400,99,o),
(1298,36,o),
(1172,36,cs),
(1060,36,o),
(1008,73,o),
(1008,138,cs),
(1008,241,ls),
(1008,333,o),
(894,376,o),
(730,376,cs),
(682,376,o),
(618,369,o),
(582,358,c),
(596,348,l),
(714,373,o),
(766,439,o),
(820,523,cs)
);
}
);
width = 1344;
}
);
userData = {
com.typemytype.robofont.layerData = {
background = {
anchors = (
);
components = (
);
contours = (
);
lib = {
};
name = K;
unicodes = (
);
width = 672;
};
};
com.typemytype.robofont.mark = (
0.4827,
0.8546,
0.4678,
1
);
};
},
{
export = 0;
glyphname = R.ss01;
kernLeft = B;
lastChange = "2025-02-16 17:12:29 +0000";
layers = (
{
layerId = "ADE64B87-3839-4AD4-BD35-A3CFF79840FC";
shapes = (
{
closed = 1;
nodes = (
(195,334,l),
(195,358,l),
(154,358,l),
(154,334,l)
);
},
{
closed = 1;
nodes = (
(240,340,o),
(274,413,o),
(274,505,cs),
(274,599,o),
(238,670,o),
(156,670,cs),
(3,670,l),
(3,640,l),
(32,640,ls),
(45,640,o),
(50,626,o),
(50,602,cs),
(50,68,ls),
(50,44,o),
(45,30,o),
(32,30,cs),
(3,30,l),
(3,0,l),
(150,0,l),
(150,30,l),
(121,30,ls),
(108,30,o),
(103,44,o),
(103,68,cs),
(103,640,l),
(152,640,ls),
(193,640,o),
(219,596,o),
(219,505,cs),
(219,410,o),
(197,360,o),
(152,360,cs),
(83,360,l),
(83,330,l),
(152,330,ls),
(191,330,o),
(202,297,o),
(204,224,cs),
(206,135,ls),
(208,11,o),
(237,-14,o),
(275,-14,cs),
(322,-14,o),
(339,37,o),
(362,112,c),
(349,128,l),
(328,61,o),
(314,32,o),
(294,32,cs),
(273,32,o),
(265,59,o),
(262,125,cs),
(258,222,ls),
(254,312,o),
(227,336,o),
(158,356,c),
(156,340,l)
);
}
);
width = 324;
},
{
hints = (
{
name = _corner.serif.uc;
origin = (1,7);
type = Corner;
},
{
name = _corner.serif.uc;
options = 1;
origin = (1,8);
scale = (-1,1);
type = Corner;
},
{
name = _corner.serif.uc;
options = 1;
origin = (1,6);
scale = (-1,1);
type = Corner;
}
);
layerId = "484F8FD9-52EC-47CF-91D8-DA5450121283";
shapes = (
{
closed = 1;
nodes = (
(390,334,l),
(390,358,l),
(307,358,l),
(307,334,l)
);
},
{
closed = 1;
nodes = (
(479,340,o),
(547,413,o),
(547,505,cs),
(547,599,o),
(476,670,o),
(312,670,cs),
(100,670,l),
(100,0,l),
(205,0,l),
(205,640,l),
(303,640,ls),
(385,640,o),
(437,596,o),
(437,505,cs),
(437,410,o),
(393,360,o),
(303,360,cs),
(166,360,l),
(166,330,l),
(303,330,ls),
(381,330,o),
(404,297,o),
(407,224,cs),
(411,135,ls),
(416,11,o),
(474,-14,o),
(550,-14,cs),
(643,-14,o),
(678,37,o),
(724,112,c),
(697,128,l),
(655,61,o),
(627,32,o),
(588,32,cs),
(546,32,o),
(530,59,o),
(524,125,cs),
(515,222,ls),
(507,312,o),
(453,336,o),
(315,356,c),
(312,340,l)
);
}
);
width = 648;
},
{
layerId = "28D540C6-4B1C-4739-9DB3-C8E6E4DDF73A";
shapes = (
{
closed = 1;
nodes = (
(780,334,l),
(780,358,l),
(614,358,l),
(614,334,l)
);
},
{
closed = 1;
nodes = (
(958,340,o),
(1094,413,o),
(1094,505,cs),
(1094,599,o),
(952,670,o),
(624,670,cs),
(10,670,l),
(10,640,l),
(126,640,ls),
(180,640,o),
(200,626,o),
(200,602,cs),
(200,68,ls),
(200,44,o),
(180,30,o),
(126,30,cs),
(10,30,l),
(10,0,l),
(600,0,l),
(600,30,l),
(484,30,ls),
(430,30,o),
(410,44,o),
(410,68,cs),
(410,640,l),
(606,640,ls),
(770,640,o),
(874,596,o),
(874,505,cs),
(874,410,o),
(786,360,o),
(606,360,cs),
(332,360,l),
(332,330,l),
(606,330,ls),
(762,330,o),
(808,297,o),
(814,224,cs),
(822,135,ls),
(832,11,o),
(948,-14,o),
(1100,-14,cs),
(1286,-14,o),
(1356,37,o),
(1448,112,c),
(1394,128,l),
(1310,61,o),
(1254,32,o),
(1176,32,cs),
(1092,32,o),
(1060,59,o),
(1048,125,cs),
(1030,222,ls),
(1014,312,o),
(906,336,o),
(630,356,c),
(624,340,l)
);
}
);
width = 1296;
}
);
userData = {
com.typemytype.robofont.layerData = {
background = {
anchors = (
);
components = (
);
contours = (
);
lib = {
};
name = R;
unicodes = (
);
width = 648;
};
};
com.typemytype.robofont.mark = (
0.4827,
0.8546,
0.4678,
1
);
};
},
{
export = 0;
glyphname = S.ss01;
lastChange = "2018-07-13 09:52:20 +0000";
layers = (
{
layerId = "ADE64B87-3839-4AD4-BD35-A3CFF79840FC";
shapes = (
{
closed = 1;
nodes = (
(93,182,o),
(79,209,o),
(58,209,cs),
(38,209,o),
(23,176,o),
(22,131,cs),
(23,48,o),
(66,-18,o),
(132,-18,cs),
(214,-18,o),
(254,67,o),
(254,182,cs),
(254,258,o),
(235,328,o),
(182,373,cs),
(119,427,ls),
(87,454,o),
(80,491,o),
(80,533,cs),
(80,599,o),
(100,646,o),
(139,646,cs),
(162,646,o),
(182,633,o),
(182,598,cs),
(182,585,o),
(175,571,o),
(176,542,cs),
(176,509,o),
(188,477,o),
(211,477,cs),
(234,477,o),
(245,515,o),
(245,549,cs),
(244,614,o),
(213,682,o),
(139,682,cs),
(72,682,o),
(28,607,o),
(28,500,cs),
(29,444,o),
(42,379,o),
(87,341,cs),
(158,280,ls),
(193,250,o),
(203,198,o),
(203,151,cs),
(203,69,o),
(179,18,o),
(135,18,cs),
(114,18,o),
(85,41,o),
(85,76,cs),
(85,91,o),
(93,112,o),
(93,143,cs)
);
}
);
width = 276;
},
{
layerId = "484F8FD9-52EC-47CF-91D8-DA5450121283";
shapes = (
{
closed = 1;
nodes = (
(186,182,o),
(158,209,o),
(116,209,cs),
(75,209,o),
(45,176,o),
(45,131,cs),
(45,48,o),
(132,-18,o),
(263,-18,cs),
(427,-18,o),
(507,67,o),
(507,182,cs),
(507,258,o),
(470,328,o),
(364,373,cs),
(237,427,ls),
(174,454,o),
(159,491,o),
(159,533,cs),
(159,599,o),
(199,646,o),
(278,646,cs),
(324,646,o),
(363,633,o),
(363,598,cs),
(363,585,o),
(351,571,o),
(351,542,cs),
(351,509,o),
(376,477,o),
(422,477,cs),
(467,477,o),
(489,515,o),
(489,549,cs),
(489,614,o),
(425,682,o),
(278,682,cs),
(144,682,o),
(57,607,o),
(57,500,cs),
(57,444,o),
(84,379,o),
(173,341,cs),
(315,280,ls),
(386,250,o),
(405,198,o),
(405,151,cs),
(405,69,o),
(358,18,o),
(269,18,cs),
(227,18,o),
(170,41,o),
(170,76,cs),
(170,91,o),
(186,112,o),
(186,143,cs)
);
}
);
width = 552;
},
{
layerId = "28D540C6-4B1C-4739-9DB3-C8E6E4DDF73A";
shapes = (
{
closed = 1;
nodes = (
(372,182,o),
(316,209,o),
(232,209,cs),
(150,209,o),
(90,176,o),
(90,131,cs),
(90,48,o),
(264,-18,o),
(526,-18,cs),
(854,-18,o),
(1014,67,o),
(1014,182,cs),
(1014,258,o),
(940,328,o),
(728,373,cs),
(474,427,ls),
(348,454,o),
(318,491,o),
(318,533,cs),
(318,599,o),
(398,646,o),
(556,646,cs),
(648,646,o),
(726,633,o),
(726,598,cs),
(726,585,o),
(702,571,o),
(702,542,cs),
(702,509,o),
(752,477,o),
(844,477,cs),
(934,477,o),
(978,515,o),
(978,549,cs),
(978,614,o),
(850,682,o),
(556,682,cs),
(288,682,o),
(114,607,o),
(114,500,cs),
(114,444,o),
(168,379,o),
(346,341,cs),
(630,280,ls),
(772,250,o),
(810,198,o),
(810,151,cs),
(810,69,o),
(716,18,o),
(538,18,cs),
(454,18,o),
(340,41,o),
(340,76,cs),
(340,91,o),
(372,112,o),
(372,143,cs)
);
}
);
width = 1104;
}
);
userData = {
com.typemytype.robofont.layerData = {
background = {
anchors = (
);
components = (
);
contours = (
);
lib = {
};
name = S;
unicodes = (
);
width = 552;
};
};
com.typemytype.robofont.mark = (
0.4827,
0.8546,
0.4678,
1
);
};
},
{
export = 0;
glyphname = C_h.ss01;
kernLeft = C;
kernRight = c_h;
lastChange = "2018-07-13 09:52:20 +0000";
layers = (
{
layerId = "ADE64B87-3839-4AD4-BD35-A3CFF79840FC";
shapes = (
{
closed = 1;
nodes = (
(236,688,o),
(165,688,cs),
(90,688,o),
(25,572,o),
(25,335,cs),
(25,98,o),
(89,-18,o),
(183,-18,cs),
(261,-18,o),
(337,62,o),
(337,257,c),
(326,257,l),
(326,104,o),
(261,24,o),
(193,24,cs),
(107,24,o),
(83,132,o),
(83,335,cs),
(83,546,o),
(105,657,o),
(164,657,cs),
(185,657,o),
(200,640,o),
(200,613,cs),
(200,586,o),
(192,582,o),
(192,547,cs),
(192,508,o),
(205,482,o),
(226,482,cs),
(247,482,o),
(263,513,o),
(263,560,cs),
(263,622,o)
);
},
{
pos = (283,0);
ref = h.ss01;
}
);
width = 545;
},
{
layerId = "484F8FD9-52EC-47CF-91D8-DA5450121283";
shapes = (
{
closed = 1;
nodes = (
(471,688,o),
(329,688,cs),
(180,688,o),
(50,572,o),
(50,335,cs),
(50,98,o),
(177,-18,o),
(366,-18,cs),
(522.955,-18,o),
(673,62,o),
(673,257,c),
(651,257,l),
(651,104,o),
(522,24,o),
(385,24,cs),
(213,24,o),
(165,132.304,o),
(165,335,cs),
(165,546,o),
(209,657,o),
(328,657,cs),
(370,657,o),
(399,640,o),
(399,613,cs),
(399,586,o),
(383,582,o),
(383,547,cs),
(383,508,o),
(410,482,o),
(452,482,cs),
(493,482,o),
(525,513,o),
(525,560,cs),
(525,622,o)
);
},
{
pos = (566,0);
ref = h.ss01;
}
);
width = 1089;
},
{
layerId = "28D540C6-4B1C-4739-9DB3-C8E6E4DDF73A";
shapes = (
{
closed = 1;
nodes = (
(942,688,o),
(658,688,cs),
(360,688,o),
(100,572,o),
(100,335,cs),
(100,98,o),
(354,-18,o),
(732,-18,cs),
(1046,-18,o),
(1346,62,o),
(1346,257,c),
(1302,257,l),
(1302,104,o),
(1044,24,o),
(770,24,cs),
(426,24,o),
(330,132,o),
(330,335,cs),
(330,546,o),
(418,657,o),
(656,657,cs),
(740,657,o),
(798,640,o),
(798,613,cs),
(798,586,o),
(766,582,o),
(766,547,cs),
(766,508,o),
(820,482,o),
(904,482,cs),
(986,482,o),
(1050,513,o),
(1050,560,cs),
(1050,622,o)
);
},
{
pos = (1132,0);
ref = h.ss01;
}
);
width = 2178;
}
);
userData = {
com.typemytype.robofont.layerData = {
background = {
anchors = (
);
components = (
);
contours = (
{
points = (
{
smooth = 0;
x = 525;
y = 622;
},
{
smooth = 0;
x = 471;
y = 688;
},
{
segmentType = curve;
smooth = 1;
x = 329;
y = 688;
},
{
smooth = 0;
x = 180;
y = 688;
},
{
smooth = 0;
x = 50;
y = 572;
},
{
segmentType = curve;
smooth = 1;
x = 50;
y = 335;
},
{
smooth = 0;
x = 50;
y = 98;
},
{
smooth = 0;
x = 180;
y = -18;
},
{
segmentType = curve;
smooth = 1;
x = 340;
y = -18;
},
{
smooth = 0;
x = 460;
y = -18;
},
{
smooth = 0;
x = 537;
y = 40;
},
{
segmentType = curve;
smooth = 0;
x = 606;
y = 165;
},
{
segmentType = line;
smooth = 0;
x = 578;
y = 180;
},
{
smooth = 0;
x = 515;
y = 74;
},
{
smooth = 0;
x = 452;
y = 22;
},
{
segmentType = curve;
smooth = 1;
x = 369;
y = 22;
},
{
smooth = 0;
x = 219;
y = 22;
},
{
smooth = 0;
x = 165;
y = 131;
},
{
segmentType = curve;
smooth = 1;
x = 165;
y = 335;
},
{
smooth = 0;
x = 165;
y = 546;
},
{
smooth = 0;
x = 209;
y = 657;
},
{
segmentType = curve;
smooth = 1;
x = 328;
y = 657;
},
{
smooth = 0;
x = 370;
y = 657;
},
{
smooth = 0;
x = 399;
y = 640;
},
{
segmentType = curve;
smooth = 1;
x = 399;
y = 613;
},
{
smooth = 0;
x = 399;
y = 586;
},
{
smooth = 0;
x = 383;
y = 582;
},
{
segmentType = curve;
smooth = 1;
x = 383;
y = 547;
},
{
smooth = 0;
x = 383;
y = 508;
},
{
smooth = 0;
x = 410;
y = 482;
},
{
segmentType = curve;
smooth = 1;
x = 452;
y = 482;
},
{
smooth = 0;
x = 493;
y = 482;
},
{
smooth = 0;
x = 525;
y = 513;
},
{
segmentType = curve;
smooth = 1;
x = 525;
y = 560;
}
);
}
);
lib = {
};
name = C_h;
unicodes = (
);
width = 1089;
};
};
com.typemytype.robofont.mark = (
0.3692,
0.5456,
0.891,
1
);
};
},
{
glyphname = a;
kernLeft = a;
kernRight = a;
lastChange = "2025-02-16 17:18:04 +0000";
layers = (
{
anchors = (
{
name = bottom;
pos = (140,0);
},
{
name = ogonek;
pos = (272,0);
},
{
name = top;
pos = (140,440);
}
);
background = {
shapes = (
{
closed = 1;
nodes = (
(260,0,l),
(260,24,l),
(228,24,ls),
(217,24,o),
(212,30,o),
(212,40,cs),
(212,363,ls),
(212,414,o),
(191,450,o),
(131,450,cs),
(74,450,o),
(41,414,o),
(41,355,cs),
(41,324,o),
(52,306,o),
(69,306,cs),
(82,306,o),
(92,317,o),
(92,335,cs),
(92,362,o),
(72,367,o),
(72,390,cs),
(72,408,o),
(91,424,o),
(124,424,cs),
(166,424,o),
(180,401,o),
(180,360,cs),
(180,198,l),
(191,113,l),
(182,24,l),
(182,0,l)
);
},
{
closed = 1;
nodes = (
(172,-8,o),
(199,43,o),
(199,113,cs),
(199,194,o),
(173,244,o),
(115,244,cs),
(63,244,o),
(27,197,o),
(27,117,cs),
(27,38,o),
(63,-8,o),
(115,-8,cs)
);
},
{
closed = 1;
nodes = (
(80,19,o),
(63,55,o),
(63,117,cs),
(63,181,o),
(80,217,o),
(120,217,cs),
(159,217,o),
(181,181,o),
(181,113,cs),
(181,55,o),
(159,19,o),
(120,19,cs)
);
}
);
};
color = 4;
layerId = "ADE64B87-3839-4AD4-BD35-A3CFF79840FC";
shapes = (
{
closed = 1;
nodes = (
(272,0,l),
(272,24,l),
(240,24,ls),
(229,24,o),
(224,30,o),
(224,40,cs),
(224,365,ls),
(224,416,o),
(203,452,o),
(144,452,cs),
(86,452,o),
(53,416,o),
(53,357,cs),
(53,326,o),
(64,308,o),
(81,308,cs),
(94,308,o),
(104,319,o),
(104,337,cs),
(104,364,o),
(84,369,o),
(84,392,cs),
(84,410,o),
(103,426,o),
(135,426,cs),
(178,426,o),
(192,403,o),
(192,362,cs),
(192,198,l),
(203,113,l),
(194,47,l),
(194,0,l)
);
},
{
closed = 1;
nodes = (
(183,-8,o),
(211,45,o),
(211,113,cs),
(211,192,o),
(184,244,o),
(127,244,cs),
(75,244,o),
(39,195,o),
(39,117,cs),
(39,40,o),
(75,-8,o),
(127,-8,cs)
);
},
{
closed = 1;
nodes = (
(92,19,o),
(75,55,o),
(75,117,cs),
(75,181,o),
(92,217,o),
(132,217,cs),
(171,217,o),
(193,181,o),
(193,113,cs),
(193,55,o),
(171,19,o),
(132,19,cs)
);
}
);
width = 280;
},
{
anchors = (
{
name = bottom;
pos = (258,0);
},
{
name = ogonek;
pos = (510,0);
},
{
name = top;
pos = (258,440);
}
);
background = {
shapes = (
{
closed = 1;
nodes = (
(510,0,l),
(510,30,l),
(468,30,ls),
(437,30,o),
(425,44,o),
(425,68,cs),
(425,331,ls),
(425,405,o),
(375,454,o),
(258,454,cs),
(146,454,o),
(83,407,o),
(83,347,cs),
(83,311,o),
(108,286,o),
(145,286,cs),
(179,286,o),
(202,306,o),
(202,338,cs),
(202,368,o),
(182,376,o),
(182,395,cs),
(182,414,o),
(211,421,o),
(249,421,cs),
(307,421,o),
(325,391,o),
(325,331,cs),
(325,182,l),
(333,168,l),
(333,49,l),
(333,0,l)
);
},
{
closed = 1;
nodes = (
(296,-16,o),
(355,29,o),
(355,113,cs),
(355,197,o),
(296,248,o),
(206,248,cs),
(113,248,o),
(49,194,o),
(49,113,cs),
(49,35,o),
(113,-16,o),
(206,-16,cs)
);
},
{
closed = 1;
nodes = (
(183,24,o),
(147,59,o),
(147,113,cs),
(147,170,o),
(183,208,o),
(239,208,cs),
(294,208,o),
(331,170,o),
(331,113,cs),
(331,59,o),
(294,24,o),
(237,24,cs)
);
}
);
};
hints = (
{
name = _corner.serif.lc;
origin = (0,0);
scale = (1,-1);
type = Corner;
}
);
layerId = "484F8FD9-52EC-47CF-91D8-DA5450121283";
shapes = (
{
closed = 1;
nodes = (
(425,0,l),
(425,331,ls),
(425,405,o),
(375,454,o),
(258,454,cs),
(146,454,o),
(83,407,o),
(83,347,cs),
(83,311,o),
(108,286,o),
(145,286,cs),
(179,286,o),
(202,306,o),
(202,338,cs),
(202,368,o),
(182,376,o),
(182,395,cs),
(182,414,o),
(211,421,o),
(249,421,cs),
(307,421,o),
(325,391,o),
(325,331,cs),
(325,182,l),
(333,168,l),
(333,49,l),
(333,0,l)
);
},
{
closed = 1;
nodes = (
(296,-16,o),
(355,29,o),
(355,113,cs),
(355,197,o),
(296,248,o),
(206,248,cs),
(113,248,o),
(49,194,o),
(49,113,cs),
(49,35,o),
(113,-16,o),
(206,-16,cs)
);
},
{
closed = 1;
nodes = (
(183,24,o),
(147,59,o),
(147,113,cs),
(147,170,o),
(183,208,o),
(239,208,cs),
(294,208,o),
(331,170,o),
(331,113,cs),
(331,59,o),
(294,24,o),
(237,24,cs)
);
}
);
width = 515;
},
{
anchors = (
{
name = bottom;
pos = (516,0);
},
{
name = ogonek;
pos = (928,10);
},
{
name = top;
pos = (516,440);
}
);
background = {
shapes = (
{
closed = 1;
nodes = (
(1020,0,l),
(1020,30,l),
(936,30,ls),
(874,30,o),
(850,44,o),
(850,68,cs),
(850,331,ls),
(850,405,o),
(750,454,o),
(516,454,cs),
(292,454,o),
(166,407,o),
(166,347,cs),
(166,311,o),
(216,286,o),
(290,286,cs),
(358,286,o),
(404,306,o),
(404,338,cs),
(404,368,o),
(364,376,o),
(364,395,cs),
(364,414,o),
(422,421,o),
(498,421,cs),
(614,421,o),
(650,391,o),
(650,331,cs),
(650,182,l),
(666,168,l),
(666,0,l)
);
},
{
closed = 1;
nodes = (
(366,24,o),
(294,59,o),
(294,113,cs),
(294,170,o),
(366,208,o),
(478,208,cs),
(588,208,o),
(662,170,o),
(662,113,cs),
(662,59,o),
(588,24,o),
(474,24,cs)
);
},
{
closed = 1;
nodes = (
(592,-16,o),
(710,29,o),
(710,113,cs),
(710,197,o),
(592,248,o),
(412,248,cs),
(226,248,o),
(98,194,o),
(98,113,cs),
(98,35,o),
(226,-16,o),
(412,-16,cs)
);
}
);
};
layerId = "28D540C6-4B1C-4739-9DB3-C8E6E4DDF73A";
shapes = (
{
closed = 1;
nodes = (
(1020,0,l),
(1020,30,l),
(936,30,ls),
(813,30,o),
(765,44,o),
(765,68,cs),
(765,331,ls),
(765,405,o),
(690,454,o),
(516,454,cs),
(292,454,o),
(166,407,o),
(166,347,cs),
(166,311,o),
(216,286,o),
(290,286,cs),
(358,286,o),
(404,306,o),
(404,338,cs),
(404,368,o),
(364,376,o),
(364,395,cs),
(364,414,o),
(422,421,o),
(498,421,cs),
(679,421,o),
(735,391,o),
(735,331,cs),
(735,182,l),
(735,168,l),
(735,75,l),
(735,0,l)
);
},
{
closed = 1;
nodes = (
(625,-16,o),
(765,29,o),
(765,113,cs),
(765,197,o),
(625,248,o),
(412,248,cs),
(276,248,o),
(183,194,o),
(183,113,cs),
(183,35,o),
(276,-16,o),
(412,-16,cs)
);
},
{
closed = 1;
nodes = (
(315,24,o),
(209,59,o),
(209,113,cs),
(209,170,o),
(314,208,o),
(478,208,cs),
(632,208,o),
(735,170,o),
(735,113,cs),
(735,59,o),
(632,24,o),
(474,24,cs)
);
}
);
width = 1030;
}
);
unicode = 97;
userData = {
com.typemytype.robofont.layerData = {
background = {
anchors = (
);
components = (
);
contours = (
{
points = (
{
segmentType = curve;
smooth = 1;
x = 202;
y = 337;
},
{
smooth = 0;
x = 202;
y = 370;
},
{
smooth = 0;
x = 182;
y = 378;
},
{
segmentType = curve;
smooth = 1;
x = 182;
y = 397;
},
{
smooth = 0;
x = 182;
y = 416.44;
},
{
smooth = 0;
x = 211;
y = 424;
},
{
segmentType = curve;
smooth = 1;
x = 249;
y = 424;
},
{
smooth = 0;
x = 307;
y = 424;
},
{
smooth = 0;
x = 325;
y = 394;
},
{
segmentType = curve;
smooth = 1;
x = 325;
y = 335;
},
{
segmentType = line;
smooth = 0;
x = 325;
y = 182;
},
{
segmentType = line;
smooth = 0;
x = 333;
y = 168;
},
{
segmentType = line;
smooth = 0;
x = 333;
y = 0;
},
{
segmentType = line;
smooth = 0;
x = 515;
y = 0;
},
{
segmentType = line;
smooth = 0;
x = 515;
y = 30;
},
{
segmentType = line;
smooth = 1;
x = 468;
y = 30;
},
{
smooth = 0;
x = 437;
y = 30;
},
{
smooth = 0;
x = 425;
y = 44;
},
{
segmentType = curve;
smooth = 1;
x = 425;
y = 68;
},
{
segmentType = line;
smooth = 1;
x = 425;
y = 335;
},
{
smooth = 0;
x = 425;
y = 409;
},
{
smooth = 0;
x = 375;
y = 458;
},
{
segmentType = curve;
smooth = 1;
x = 258;
y = 458;
},
{
smooth = 0;
x = 146;
y = 458;
},
{
smooth = 0;
x = 83;
y = 410;
},
{
segmentType = curve;
smooth = 1;
x = 83;
y = 349;
},
{
smooth = 0;
x = 83;
y = 312;
},
{
smooth = 0;
x = 108;
y = 287;
},
{
segmentType = curve;
smooth = 1;
x = 145;
y = 287;
},
{
smooth = 0;
x = 179;
y = 287;
},
{
smooth = 0;
x = 202;
y = 307;
}
);
},
{
points = (
{
segmentType = curve;
smooth = 1;
x = 239;
y = 210;
},
{
smooth = 0;
x = 294;
y = 210;
},
{
smooth = 0;
x = 331;
y = 171;
},
{
segmentType = curve;
smooth = 1;
x = 331;
y = 113;
},
{
smooth = 0;
x = 331;
y = 58;
},
{
smooth = 0;
x = 294;
y = 22;
},
{
segmentType = curve;
smooth = 1;
x = 237;
y = 22;
},
{
smooth = 0;
x = 182;
y = 22;
},
{
smooth = 0;
x = 145;
y = 58;
},
{
segmentType = curve;
smooth = 1;
x = 145;
y = 113;
},
{
smooth = 0;
x = 145;
y = 171;
},
{
smooth = 0;
x = 182;
y = 210;
}
);
},
{
points = (
{
segmentType = curve;
smooth = 1;
x = 206;
y = 250;
},
{
smooth = 0;
x = 113;
y = 250;
},
{
smooth = 0;
x = 49;
y = 195;
},
{
segmentType = curve;
smooth = 1;
x = 49;
y = 113;
},
{
smooth = 0;
x = 49;
y = 34;
},
{
smooth = 0;
x = 113;
y = -18;
},
{
segmentType = curve;
smooth = 1;
x = 206;
y = -18;
},
{
smooth = 0;
x = 296;
y = -18;
},
{
smooth = 0;
x = 355;
y = 34;
},
{
segmentType = curve;
smooth = 1;
x = 355;
y = 113;
},
{
smooth = 0;
x = 355;
y = 195;
},
{
smooth = 0;
x = 296;
y = 250;
}
);
}
);
lib = {
};
name = a;
unicodes = (
);
width = 515;
};
};
com.typemytype.robofont.mark = (
0.9366,
0.9212,
0.4821,
1
);
};
},
{
glyphname = b;
kernLeft = b;
kernRight = b;
lastChange = "2025-02-16 17:19:00 +0000";
layers = (
{
layerId = "ADE64B87-3839-4AD4-BD35-A3CFF79840FC";
shapes = (
{
closed = 1;
nodes = (
(242,391,o),
(205,452,o),
(152,452,cs),
(117,452,o),
(82,417,o),
(82,306,c),
(93,306,l),
(93,670,l),
(-8,670,l),
(-8,640,l),
(21,640,ls),
(37,640,o),
(43,625,o),
(43,597,cs),
(43,201,ls),
(43,60,o),
(77,-12,o),
(136,-12,cs),
(197,-12,o),
(242,59,o),
(242,220,cs)
);
},
{
closed = 1;
nodes = (
(102,20,o),
(93,63,o),
(93,220,cs),
(93,363,o),
(106,416,o),
(141,416,cs),
(178,416,o),
(190,363,o),
(190,220,cs),
(190,77,o),
(172,20,o),
(137,20,cs)
);
}
);
width = 267;
},
{
hints = (
{
name = _corner.serif.lc;
origin = (0,8);
scale = (1,-1);
type = Corner;
}
);
layerId = "484F8FD9-52EC-47CF-91D8-DA5450121283";
shapes = (
{
closed = 1;
nodes = (
(484,390.588,o),
(410,452,o),
(304,452,cs),
(234,452,o),
(164,417,o),
(164,306,c),
(185,306,l),
(185,670,l),
(85,670,l),
(85,201,ls),
(85,60,o),
(154,-12,o),
(271,-12,cs),
(394,-12,o),
(484,59.16,o),
(484,220,cs)
);
},
{
closed = 1;
nodes = (
(204,20,o),
(185,63,o),
(185,220,cs),
(185,363,o),
(212,416,o),
(282,416,cs),
(356,416,o),
(379,362.634,o),
(379,220,cs),
(379,77.282,o),
(343,20,o),
(274,20,cs)
);
}
);
width = 534;
},
{
layerId = "28D540C6-4B1C-4739-9DB3-C8E6E4DDF73A";
shapes = (
{
closed = 1;
nodes = (
(968,391,o),
(820,452,o),
(608,452,cs),
(468,452,o),
(328,417,o),
(328,306,c),
(370,306,l),
(370,670,l),
(-30,670,l),
(-30,640,l),
(84,640,ls),
(148,640,o),
(170,625,o),
(170,597,cs),
(170,201,ls),
(170,60,o),
(308,-12,o),
(542,-12,cs),
(788,-12,o),
(968,59,o),
(968,220,cs)
);
},
{
closed = 1;
nodes = (
(408,20,o),
(370,63,o),
(370,220,cs),
(370,363,o),
(424,416,o),
(564,416,cs),
(712,416,o),
(758,363,o),
(758,220,cs),
(758,77,o),
(686,20,o),
(548,20,cs)
);
}
);
width = 1068;
}
);
unicode = 98;
userData = {
com.typemytype.robofont.guides = (
);
com.typemytype.robofont.layerData = {
background = {
anchors = (
);
components = (
);
contours = (
);
lib = {
};
name = b;
unicodes = (
);
width = 534;
};
};
com.typemytype.robofont.mark = (
0.4827,
0.8546,
0.4678,
1
);
};
},
{
glyphname = c;
kernLeft = c;
lastChange = "2018-07-13 09:52:20 +0000";
layers = (
{
background = {
shapes = (
{
closed = 1;
nodes = (
(405,281,o),
(431,309,o),
(431,350,cs),
(431,411,o),
(370,452,o),
(256,452,cs),
(128,452,o),
(50,366,o),
(50,220,cs),
(50,74,o),
(128,-12,o),
(265,-12,cs),
(376,-12,o),
(446,37,o),
(515,116,c),
(492,137,l),
(420,56,o),
(365,26,o),
(290,26,cs),
(189,26,o),
(155,96,o),
(155,223,cs),
(155,355,o),
(184,421,o),
(258,421,cs),
(284,421,o),
(304,408,o),
(304,387,cs),
(304,374,o),
(299,365,o),
(299,346,cs),
(299,306,o),
(329,281,o),
(363,281,cs)
);
}
);
};
layerId = "ADE64B87-3839-4AD4-BD35-A3CFF79840FC";
shapes = (
{
closed = 1;
nodes = (
(198,74,o),
(177,24,o),
(135,24,cs),
(91,24,o),
(78,95,o),
(78,223,cs),
(78,355,o),
(92,421,o),
(129,421,cs),
(162,421,o),
(188,367,o),
(193,269,c),
(208,269,l),
(208,455,l),
(193,455,l),
(192,442,o),
(188,432,o),
(181,432,cs),
(171,432,o),
(158,452,o),
(127,452,cs),
(64,452,o),
(25,366,o),
(25,220,cs),
(25,71,o),
(63,-16,o),
(129,-16,cs),
(182,-16,o),
(218,49,o),
(218,160,c),
(201,160,l)
);
}
);
width = 243;
},
{
background = {
shapes = (
{
closed = 1;
nodes = (
(405,281,o),
(431,309,o),
(431,350,cs),
(431,411,o),
(370,452,o),
(256,452,cs),
(128,452,o),
(50,366,o),
(50,220,cs),
(50,74,o),
(128,-12,o),
(265,-12,cs),
(376,-12,o),
(446,37,o),
(515,116,c),
(492,137,l),
(420,56,o),
(365,26,o),
(290,26,cs),
(189,26,o),
(155,96,o),
(155,223,cs),
(155,355,o),
(184,421,o),
(258,421,cs),
(284,421,o),
(304,408,o),
(304,387,cs),
(304,374,o),
(299,365,o),
(299,346,cs),
(299,306,o),
(329,281,o),
(363,281,cs)
);
}
);
};
layerId = "484F8FD9-52EC-47CF-91D8-DA5450121283";
shapes = (
{
closed = 1;
nodes = (
(395,74,o),
(354,24,o),
(270,24,cs),
(182,24,o),
(155,94.863,o),
(155,223,cs),
(155,355,o),
(184,421,o),
(258,421,cs),
(323,421,o),
(375,367,o),
(386,269,c),
(415,269,l),
(415,455,l),
(385,455,l),
(383,442,o),
(375,432,o),
(361,432,cs),
(341,432,o),
(315,452,o),
(254,452,cs),
(128,452,o),
(50,366.218,o),
(50,220,cs),
(50,71.261,o),
(126,-16,o),
(257,-16,cs),
(364,-16,o),
(435,49,o),
(436,160,c),
(402,160,l)
);
}
);
width = 486;
},
{
background = {
shapes = (
{
closed = 1;
nodes = (
(405,281,o),
(431,309,o),
(431,350,cs),
(431,411,o),
(370,452,o),
(256,452,cs),
(128,452,o),
(50,366,o),
(50,220,cs),
(50,74,o),
(128,-12,o),
(265,-12,cs),
(376,-12,o),
(446,37,o),
(515,116,c),
(492,137,l),
(420,56,o),
(365,26,o),
(290,26,cs),
(189,26,o),
(155,96,o),
(155,223,cs),
(155,355,o),
(184,421,o),
(258,421,cs),
(284,421,o),
(304,408,o),
(304,387,cs),
(304,374,o),
(299,365,o),
(299,346,cs),
(299,306,o),
(329,281,o),
(363,281,cs)
);
}
);
};
layerId = "28D540C6-4B1C-4739-9DB3-C8E6E4DDF73A";
shapes = (
{
closed = 1;
nodes = (
(790,74,o),
(708,24,o),
(540,24,cs),
(364,24,o),
(310,95,o),
(310,223,cs),
(310,355,o),
(368,421,o),
(516,421,cs),
(646,421,o),
(750,367,o),
(772,269,c),
(830,269,l),
(830,455,l),
(770,455,l),
(766,442,o),
(750,432,o),
(722,432,cs),
(682,432,o),
(630,452,o),
(508,452,cs),
(256,452,o),
(100,366,o),
(100,220,cs),
(100,71,o),
(252,-16,o),
(514,-16,cs),
(728,-16,o),
(870,49,o),
(872,160,c),
(804,160,l)
);
}
);
width = 972;
}
);
unicode = 99;
userData = {
com.typemytype.robofont.layerData = {
background = {
anchors = (
);
components = (
);
contours = (
{
points = (
{
segmentType = line;
smooth = 0;
x = 402;
y = 160;
},
{
smooth = 0;
x = 397.00105;
y = 73.0182;
},
{
smooth = 0;
x = 348.9037;
y = 24;
},
{
segmentType = curve;
smooth = 1;
x = 274;
y = 24;
},
{
smooth = 0;
x = 180;
y = 24;
},
{
smooth = 0;
x = 155;
y = 94.79808;
},
{
segmentType = curve;
smooth = 1;
x = 155;
y = 223;
},
{
smooth = 0;
x = 155;
y = 355;
},
{
smooth = 0;
x = 178;
y = 421;
},
{
segmentType = curve;
smooth = 1;
x = 254;
y = 421;
},
{
smooth = 0;
x = 328;
y = 421;
},
{
smooth = 0;
x = 340;
y = 365;
},
{
segmentType = curve;
smooth = 0;
x = 340;
y = 261;
},
{
segmentType = line;
smooth = 0;
x = 122;
y = 261;
},
{
segmentType = line;
smooth = 0;
x = 122;
y = 231;
},
{
segmentType = line;
smooth = 0;
x = 452;
y = 231;
},
{
smooth = 0;
x = 452;
y = 363;
},
{
smooth = 0;
x = 387;
y = 452;
},
{
segmentType = curve;
smooth = 1;
x = 254;
y = 452;
},
{
smooth = 0;
x = 125;
y = 452;
},
{
smooth = 0;
x = 50;
y = 366.21849;
},
{
segmentType = curve;
smooth = 1;
x = 50;
y = 220;
},
{
smooth = 0;
x = 50;
y = 71.2605;
},
{
smooth = 0;
x = 125;
y = -16;
},
{
segmentType = curve;
smooth = 1;
x = 253;
y = -16;
},
{
smooth = 0;
x = 371.1875;
y = -16;
},
{
smooth = 0;
x = 436;
y = 56;
},
{
segmentType = curve;
smooth = 0;
x = 436;
y = 160;
}
);
},
{
points = (
{
smooth = 0;
x = 923;
y = 163;
},
{
smooth = 0;
x = 902;
y = 163;
},
{
segmentType = curve;
smooth = 0;
x = 889;
y = 158;
},
{
smooth = 0;
x = 882;
y = 65;
},
{
smooth = 0;
x = 846;
y = 18;
},
{
segmentType = curve;
smooth = 1;
x = 769;
y = 18;
},
{
smooth = 0;
x = 682;
y = 18;
},
{
smooth = 0;
x = 655;
y = 91;
},
{
segmentType = curve;
smooth = 1;
x = 655;
y = 223;
},
{
smooth = 0;
x = 655;
y = 359;
},
{
smooth = 0;
x = 684;
y = 427;
},
{
segmentType = curve;
smooth = 1;
x = 759;
y = 427;
},
{
smooth = 0;
x = 823;
y = 427;
},
{
smooth = 0;
x = 875;
y = 373;
},
{
segmentType = curve;
smooth = 0;
x = 886;
y = 275;
},
{
segmentType = line;
smooth = 0;
x = 915;
y = 275;
},
{
segmentType = line;
smooth = 0;
x = 915;
y = 461;
},
{
segmentType = line;
smooth = 0;
x = 885;
y = 461;
},
{
smooth = 0;
x = 883;
y = 448;
},
{
smooth = 0;
x = 875;
y = 438;
},
{
segmentType = curve;
smooth = 1;
x = 861;
y = 438;
},
{
smooth = 0;
x = 841;
y = 438;
},
{
smooth = 0;
x = 815;
y = 458;
},
{
segmentType = curve;
smooth = 1;
x = 754;
y = 458;
},
{
smooth = 0;
x = 628;
y = 458;
},
{
smooth = 0;
x = 550;
y = 370;
},
{
segmentType = curve;
smooth = 1;
x = 550;
y = 220;
},
{
smooth = 0;
x = 550;
y = 70;
},
{
smooth = 0;
x = 628;
y = -18;
},
{
segmentType = curve;
smooth = 1;
x = 760;
y = -18;
},
{
smooth = 0;
x = 867;
y = -18;
},
{
smooth = 0;
x = 926;
y = 47;
},
{
segmentType = curve;
smooth = 0;
x = 936;
y = 158;
}
);
}
);
lib = {
};
name = c;
unicodes = (
);
width = 486;
};
};
com.typemytype.robofont.mark = (
0.9366,
0.9212,
0.4821,
1
);
};
},
{
glyphname = d;
kernLeft = c;
kernRight = d;
lastChange = "2025-02-16 17:19:33 +0000";
layers = (
{
background = {
shapes = (
{
closed = 1;
nodes = (
(250,670,l),
(250,640,l),
(307,640,ls),
(339,640,o),
(350,625,o),
(350,597,cs),
(350,308,ls),
(367,219,l),
(350,120,l),
(350,57,o),
(373,-10,o),
(476,-10,cs),
(547,-10,o),
(604,28,o),
(661,130,c),
(633,145,l),
(589,65,o),
(546,32,o),
(506,32,cs),
(474,32,o),
(450,56,o),
(450,118,cs),
(450,670,l)
);
},
{
closed = 1;
nodes = (
(353,60,o),
(303,26,o),
(250,26,cs),
(191,26,o),
(155,79,o),
(155,220,cs),
(155,361,o),
(191,414,o),
(250,414,cs),
(303,414,o),
(353,380,o),
(353,220,cs)
);
},
{
closed = 1;
nodes = (
(378,388,o),
(334,448,o),
(230,448,cs),
(125,448,o),
(50,368,o),
(50,220,cs),
(50,72,o),
(125,-8,o),
(230,-8,cs),
(334,-8,o),
(378,45,o),
(378,220,cs)
);
}
);
};
layerId = "ADE64B87-3839-4AD4-BD35-A3CFF79840FC";
shapes = (
{
closed = 1;
nodes = (
(184,221,l),
(179,134,l),
(179,0,l),
(271,0,l),
(271,30,l),
(247,30,ls),
(231,30,o),
(225,45,o),
(225,73,cs),
(225,670,l),
(130,670,l),
(130,640,l),
(157,640,ls),
(170,640,o),
(175,626,o),
(175,602,cs),
(175,359,l)
);
},
{
closed = 1;
nodes = (
(155,420,o),
(177,365,o),
(177,220,cs),
(177,74,o),
(155,18,o),
(125,18,cs),
(96,18,o),
(78,74,o),
(78,220,cs),
(78,365,o),
(96,420,o),
(125,420,cs)
);
},
{
closed = 1;
nodes = (
(189,395,o),
(168,452,o),
(115,452,cs),
(63,452,o),
(25,371,o),
(25,220,cs),
(25,68,o),
(63,-14,o),
(115,-14,cs),
(168,-14,o),
(189,43,o),
(189,220,cs)
);
}
);
width = 273;
},
{
background = {
shapes = (
{
closed = 1;
nodes = (
(367,221,l),
(358,134,l),
(358,0,l),
(541,0,l),
(541,30,l),
(493,30,ls),
(461,30,o),
(450,45,o),
(450,73,cs),
(450,670,l),
(260,670,l),
(260,640,l),
(313,640,ls),
(340,640,o),
(350,626,o),
(350,602,cs),
(350,359,l)
);
},
{
closed = 1;
nodes = (
(309,420,o),
(353,364.66,o),
(353,220,cs),
(353,73.893,o),
(309,18,o),
(250,18,cs),
(191,18,o),
(155,73.893,o),
(155,220,cs),
(155,364.66,o),
(191,420,o),
(250,420,cs)
);
},
{
closed = 1;
nodes = (
(378,395.462,o),
(335,452,o),
(230,452,cs),
(125,452,o),
(50,371.092,o),
(50,220,cs),
(50,67.605,o),
(125,-14,o),
(230,-14,cs),
(335,-14,o),
(378,43.025,o),
(378,220,cs)
);
}
);
};
hints = (
{
name = _corner.serif.lc;
origin = (0,10);
scale = (1,-1);
type = Corner;
}
);
layerId = "484F8FD9-52EC-47CF-91D8-DA5450121283";
shapes = (
{
closed = 1;
nodes = (
(367,221,l),
(358,134,l),
(358,0,l),
(541,0,l),
(541,30,l),
(493,30,ls),
(461,30,o),
(450,45,o),
(450,73,cs),
(450,670,l),
(350,670,l),
(350,359,l)
);
},
{
closed = 1;
nodes = (
(309,420,o),
(353,364.66,o),
(353,220,cs),
(353,73.893,o),
(309,18,o),
(250,18,cs),
(191,18,o),
(155,73.893,o),
(155,220,cs),
(155,364.66,o),
(191,420,o),
(250,420,cs)
);
},
{
closed = 1;
nodes = (
(378,395.462,o),
(335,452,o),
(230,452,cs),
(125,452,o),
(50,371.092,o),
(50,220,cs),
(50,67.605,o),
(125,-14,o),
(230,-14,cs),
(335,-14,o),
(378,43.025,o),
(378,220,cs)
);
}
);
width = 545;
},
{
background = {
shapes = (
{
closed = 1;
nodes = (
(250,670,l),
(250,640,l),
(307,640,ls),
(339,640,o),
(350,625,o),
(350,597,cs),
(350,308,ls),
(367,219,l),
(350,120,l),
(350,57,o),
(373,-10,o),
(476,-10,cs),
(547,-10,o),
(604,28,o),
(661,130,c),
(633,145,l),
(589,65,o),
(546,32,o),
(506,32,cs),
(474,32,o),
(450,56,o),
(450,118,cs),
(450,670,l)
);
},
{
closed = 1;
nodes = (
(353,60,o),
(303,26,o),
(250,26,cs),
(191,26,o),
(155,79,o),
(155,220,cs),
(155,361,o),
(191,414,o),
(250,414,cs),
(303,414,o),
(353,380,o),
(353,220,cs)
);
},
{
closed = 1;
nodes = (
(378,388,o),
(334,448,o),
(230,448,cs),
(125,448,o),
(50,368,o),
(50,220,cs),
(50,72,o),
(125,-8,o),
(230,-8,cs),
(334,-8,o),
(378,45,o),
(378,220,cs)
);
}
);
};
layerId = "28D540C6-4B1C-4739-9DB3-C8E6E4DDF73A";
shapes = (
{
closed = 1;
nodes = (
(734,221,l),
(716,134,l),
(716,0,l),
(1082,0,l),
(1082,30,l),
(986,30,ls),
(922,30,o),
(900,45,o),
(900,73,cs),
(900,670,l),
(520,670,l),
(520,640,l),
(626,640,ls),
(680,640,o),
(700,626,o),
(700,602,cs),
(700,359,l)
);
},
{
closed = 1;
nodes = (
(618,420,o),
(706,365,o),
(706,220,cs),
(706,74,o),
(618,18,o),
(500,18,cs),
(382,18,o),
(310,74,o),
(310,220,cs),
(310,365,o),
(382,420,o),
(500,420,cs)
);
},
{
closed = 1;
nodes = (
(756,395,o),
(670,452,o),
(460,452,cs),
(250,452,o),
(100,371,o),
(100,220,cs),
(100,68,o),
(250,-14,o),
(460,-14,cs),
(670,-14,o),
(756,43,o),
(756,220,cs)
);
}
);
width = 1090;
}
);
unicode = 100;
userData = {
com.typemytype.robofont.guides = (
);
com.typemytype.robofont.layerData = {
background = {
anchors = (
);
components = (
);
contours = (
);
lib = {
};
name = d;
unicodes = (
);
width = 545;
};
};
com.typemytype.robofont.mark = (
0.9366,
0.9212,
0.4821,
1
);
};
},
{
glyphname = e;
kernLeft = c;
kernRight = b;
lastChange = "2022-10-09 08:35:40 +0000";
layers = (
{
anchors = (
{
name = bottom;
pos = (140,0);
},
{
name = ogonek;
pos = (178,0);
},
{
name = top;
pos = (140,440);
}
);
background = {
shapes = (
{
closed = 1;
nodes = (
(198,-12,o),
(224,55,o),
(228,162,c),
(202,162,l),
(198,80,o),
(180,18,o),
(137,18,cs),
(90,18,o),
(76,88,o),
(76,220,cs),
(76,353,o),
(89,424,o),
(137,424,cs),
(183,424,o),
(196,359,o),
(196,245,c),
(225,260,l),
(57,260,l),
(57,232,l),
(232,232,l),
(232,365,o),
(211,452,o),
(139,452,cs),
(61,452,o),
(40,360,o),
(40,220,cs),
(40,78,o),
(63,-12,o),
(136,-12,cs)
);
}
);
};
color = 4;
layerId = "ADE64B87-3839-4AD4-BD35-A3CFF79840FC";
shapes = (
{
closed = 1;
nodes = (
(200,-12,o),
(225,55,o),
(229,162,c),
(203,162,l),
(199,80,o),
(182,18,o),
(140,18,cs),
(96,18,o),
(83,88,o),
(83,220,cs),
(83,353,o),
(95,424,o),
(140,424,cs),
(184,424,o),
(197,359,o),
(197,245,c),
(226,260,l),
(60,260,l),
(60,232,l),
(233,232,l),
(233,365,o),
(212,452,o),
(142,452,cs),
(67,452,o),
(47,360,o),
(47,220,cs),
(47,78,o),
(69,-12,o),
(139,-12,cs)
);
}
);
width = 280;
},
{
anchors = (
{
name = bottom;
pos = (254,0);
},
{
name = ogonek;
pos = (456,10);
},
{
name = top;
pos = (254,440);
}
);
background = {
shapes = (
{
closed = 1;
nodes = (
(377,-16,o),
(445,56,o),
(445,160,c),
(411,160,l),
(406,73,o),
(354,24,o),
(274,24,cs),
(180,24,o),
(155,95,o),
(155,223,cs),
(155,355,o),
(178,421,o),
(254,421,cs),
(328,421,o),
(340,365,o),
(340,261,c),
(122,261,l),
(122,231,l),
(452,231,l),
(452,363,o),
(387,452,o),
(254,452,cs),
(125,452,o),
(50,366,o),
(50,220,cs),
(50,71,o),
(125,-16,o),
(253,-16,cs)
);
}
);
};
layerId = "484F8FD9-52EC-47CF-91D8-DA5450121283";
shapes = (
{
closed = 1;
nodes = (
(377,-16,o),
(445,56,o),
(445,160,c),
(411,160,l),
(406,73,o),
(354,24,o),
(274,24,cs),
(180,24,o),
(155,95,o),
(155,223,cs),
(155,355,o),
(178,421,o),
(254,421,cs),
(328,421,o),
(340,365,o),
(340,261,c),
(411,261,l),
(122,261,l),
(122,231,l),
(452,231,l),
(452,363,o),
(387,452,o),
(254,452,cs),
(125,452,o),
(50,366,o),
(50,220,cs),
(50,71,o),
(125,-16,o),
(253,-16,cs)
);
}
);
width = 507;
},
{
anchors = (
{
name = bottom;
pos = (507,0);
},
{
name = ogonek;
pos = (913,10);
},
{
name = top;
pos = (507,440);
}
);
background = {
shapes = (
{
closed = 1;
nodes = (
(187,213,o),
(159,249,o),
(159,311,cs),
(159,379,o),
(194,421,o),
(243,421,cs),
(290,421,o),
(326,384,o),
(326,322,cs),
(326,260,o),
(294,213,o),
(236,213,cs)
);
},
{
closed = 1;
nodes = (
(398,-12,o),
(473,40,o),
(557,140,c),
(533,159,l),
(443,54,o),
(383.647,26,o),
(302,26,cs),
(180,26,o),
(155,112,o),
(155,220,cs),
(155,302,l),
(132,314,l),
(132,235,o),
(175,174,o),
(271,174,cs),
(365.222,174,o),
(430,224,o),
(430,307,cs),
(430,394,o),
(354,452,o),
(245,452,cs),
(126,452,o),
(50,372,o),
(50,220,cs),
(50,74,o),
(128,-12,o),
(273,-12,cs)
);
}
);
};
layerId = "28D540C6-4B1C-4739-9DB3-C8E6E4DDF73A";
shapes = (
{
closed = 1;
nodes = (
(754,-16,o),
(890,56,o),
(890,160,c),
(822,160,l),
(812,73,o),
(708,24,o),
(548,24,cs),
(360,24,o),
(310,95,o),
(310,223,cs),
(310,355,o),
(356,421,o),
(508,421,cs),
(656,421,o),
(680,365,o),
(680,261,c),
(785,261,l),
(244,261,l),
(244,231,l),
(904,231,l),
(904,363,o),
(774,452,o),
(508,452,cs),
(250,452,o),
(100,366,o),
(100,220,cs),
(100,71,o),
(250,-16,o),
(506,-16,cs)
);
}
);
width = 1014;
}
);
unicode = 101;
userData = {
com.typemytype.robofont.layerData = {
background = {
anchors = (
);
components = (
);
contours = (
{
points = (
{
segmentType = curve;
smooth = 1;
x = -240;
y = 454;
},
{
smooth = 0;
x = -372;
y = 454;
},
{
smooth = 0;
x = -450;
y = 367;
},
{
segmentType = curve;
smooth = 1;
x = -450;
y = 220;
},
{
smooth = 0;
x = -450;
y = 71;
},
{
smooth = 0;
x = -372;
y = -16;
},
{
segmentType = curve;
smooth = 1;
x = -240;
y = -16;
},
{
smooth = 0;
x = -108;
y = -16;
},
{
smooth = 0;
x = -30;
y = 71;
},
{
segmentType = curve;
smooth = 1;
x = -30;
y = 220;
},
{
smooth = 0;
x = -30;
y = 367;
},
{
smooth = 0;
x = -108;
y = 454;
}
);
},
{
points = (
{
segmentType = curve;
smooth = 1;
x = -240;
y = 423;
},
{
smooth = 0;
x = -160;
y = 423;
},
{
smooth = 0;
x = -135;
y = 353;
},
{
segmentType = curve;
smooth = 1;
x = -135;
y = 220;
},
{
smooth = 0;
x = -135;
y = 87;
},
{
smooth = 0;
x = -160;
y = 17;
},
{
segmentType = curve;
smooth = 1;
x = -240;
y = 17;
},
{
smooth = 0;
x = -320;
y = 17;
},
{
smooth = 0;
x = -345;
y = 87;
},
{
segmentType = curve;
smooth = 1;
x = -345;
y = 220;
},
{
smooth = 0;
x = -345;
y = 353;
},
{
smooth = 0;
x = -320;
y = 423;
}
);
},
{
points = (
{
smooth = 0;
x = 1048;
y = 146;
},
{
smooth = 0;
x = 1024;
y = 149;
},
{
segmentType = curve;
smooth = 0;
x = 1007;
y = 145;
},
{
smooth = 0;
x = 994;
y = 66;
},
{
smooth = 0;
x = 961;
y = 20;
},
{
segmentType = curve;
smooth = 1;
x = 881;
y = 20;
},
{
smooth = 0;
x = 782;
y = 20;
},
{
smooth = 0;
x = 755;
y = 92;
},
{
segmentType = curve;
smooth = 1;
x = 755;
y = 223;
},
{
smooth = 0;
x = 755;
y = 359;
},
{
smooth = 0;
x = 780;
y = 427;
},
{
segmentType = curve;
smooth = 1;
x = 863;
y = 427;
},
{
smooth = 0;
x = 943;
y = 427;
},
{
smooth = 0;
x = 956;
y = 369;
},
{
segmentType = curve;
smooth = 0;
x = 956;
y = 261;
},
{
segmentType = line;
smooth = 0;
x = 722;
y = 261;
},
{
segmentType = line;
smooth = 0;
x = 722;
y = 231;
},
{
segmentType = line;
smooth = 0;
x = 1068;
y = 231;
},
{
smooth = 0;
x = 1068;
y = 377;
},
{
smooth = 0;
x = 1000;
y = 458;
},
{
segmentType = curve;
smooth = 1;
x = 863;
y = 458;
},
{
smooth = 0;
x = 728;
y = 458;
},
{
smooth = 0;
x = 650;
y = 370;
},
{
segmentType = curve;
smooth = 1;
x = 650;
y = 220;
},
{
smooth = 0;
x = 650;
y = 70;
},
{
smooth = 0;
x = 728;
y = -18;
},
{
segmentType = curve;
smooth = 1;
x = 860;
y = -18;
},
{
smooth = 0;
x = 967;
y = -18;
},
{
smooth = 0;
x = 1038;
y = 39;
},
{
segmentType = curve;
smooth = 0;
x = 1061;
y = 140;
}
);
},
{
points = (
{
smooth = 0;
x = 432;
y = 146;
},
{
smooth = 0;
x = 408;
y = 149;
},
{
segmentType = curve;
smooth = 0;
x = 391;
y = 145;
},
{
smooth = 0;
x = 378.02214;
y = 67.13286;
},
{
smooth = 0;
x = 347.73333;
y = 22;
},
{
segmentType = curve;
smooth = 1;
x = 273;
y = 22;
},
{
smooth = 0;
x = 180.43103;
y = 22;
},
{
smooth = 0;
x = 155;
y = 93.50962;
},
{
segmentType = curve;
smooth = 1;
x = 155;
y = 223;
},
{
smooth = 0;
x = 155;
y = 355;
},
{
smooth = 0;
x = 178;
y = 421;
},
{
segmentType = curve;
smooth = 1;
x = 254;
y = 421;
},
{
smooth = 0;
x = 328;
y = 421;
},
{
smooth = 0;
x = 340;
y = 365;
},
{
segmentType = curve;
smooth = 0;
x = 340;
y = 261;
},
{
segmentType = line;
smooth = 0;
x = 122;
y = 261;
},
{
segmentType = line;
smooth = 0;
x = 122;
y = 231;
},
{
segmentType = line;
smooth = 0;
x = 452;
y = 231;
},
{
smooth = 0;
x = 452;
y = 373;
},
{
smooth = 0;
x = 387;
y = 452;
},
{
segmentType = curve;
smooth = 1;
x = 253;
y = 452;
},
{
smooth = 0;
x = 125;
y = 452;
},
{
smooth = 0;
x = 50;
y = 366.21849;
},
{
segmentType = curve;
smooth = 1;
x = 50;
y = 220;
},
{
smooth = 0;
x = 50;
y = 71.2605;
},
{
smooth = 0;
x = 124.74;
y = -16;
},
{
segmentType = curve;
smooth = 1;
x = 252;
y = -16;
},
{
smooth = 0;
x = 354.93333;
y = -16;
},
{
smooth = 0;
x = 422.04578;
y = 40.19905;
},
{
segmentType = curve;
smooth = 0;
x = 445;
y = 140;
}
);
}
);
lib = {
};
name = e;
unicodes = (
);
width = 507;
};
};
com.typemytype.robofont.mark = (
0.9366,
0.9212,
0.4821,
1
);
};
},
{
color = 7;
glyphname = f;
kernLeft = f;
kernRight = f;
lastChange = "2018-07-13 09:52:20 +0000";
layers = (
{
background = {
shapes = (
{
closed = 1;
nodes = (
(10,408,l),
(285,408,l),
(285,440,l),
(10,440,l)
);
},
{
pos = (5,0);
ref = longs;
}
);
};
layerId = "ADE64B87-3839-4AD4-BD35-A3CFF79840FC";
shapes = (
{
closed = 1;
nodes = (
(140,408,l),
(140,440,l),
(13,440,l),
(13,408,l)
);
},
{
pos = (5,0);
ref = longs;
}
);
width = 163;
},
{
background = {
shapes = (
{
closed = 1;
nodes = (
(10,408,l),
(285,408,l),
(285,440,l),
(10,440,l)
);
},
{
pos = (5,0);
ref = longs;
}
);
};
layerId = "484F8FD9-52EC-47CF-91D8-DA5450121283";
shapes = (
{
closed = 1;
nodes = (
(280,408,l),
(280,440,l),
(25,440,l),
(25,408,l)
);
},
{
pos = (10,0);
ref = longs;
}
);
width = 325;
},
{
background = {
shapes = (
{
closed = 1;
nodes = (
(10,408,l),
(285,408,l),
(285,440,l),
(10,440,l)
);
},
{
pos = (5,0);
ref = longs;
}
);
};
layerId = "28D540C6-4B1C-4739-9DB3-C8E6E4DDF73A";
shapes = (
{
closed = 1;
nodes = (
(560,408,l),
(560,440,l),
(50,440,l),
(50,408,l)
);
},
{
pos = (20,0);
ref = longs;
}
);
width = 650;
}
);
unicode = 102;
userData = {
com.typemytype.robofont.guides = (
);
com.typemytype.robofont.layerData = {
background = {
anchors = (
);
components = (
);
contours = (
);
lib = {
};
name = f;
unicodes = (
);
width = 325;
};
};
com.typemytype.robofont.mark = (
0.3692,
0.5456,
0.891,
1
);
};
},
{
glyphname = g;
lastChange = "2019-11-10 16:36:44 +0000";
layers = (
{
background = {
shapes = (
{
closed = 1;
nodes = (
(206,-285,o),
(254,-220,o),
(254,-100,cs),
(254,-24,o),
(230,36,o),
(158,46,cs),
(129,50,ls),
(94,55,o),
(77,66,o),
(77,107,cs),
(77,129,o),
(82,156,o),
(103,189,c),
(83,199,l),
(62,169,o),
(49,135,o),
(49,99,cs),
(49,57,o),
(62,24,o),
(125,15,cs),
(152,11,ls),
(207,3,o),
(226,-33,o),
(226,-103,cs),
(226,-210,o),
(187,-253,o),
(137,-253,cs),
(89,-253,o),
(52,-207,o),
(52,-120,cs),
(52,-56,o),
(71,-11,o),
(123,17,c),
(114,38,l),
(59,12,o),
(24,-41,o),
(24,-124,cs),
(24,-218,o),
(70,-285,o),
(137,-285,cs)
);
},
{
closed = 1;
nodes = (
(196,166,o),
(231,224,o),
(231,308,cs),
(231,394,o),
(198,450,o),
(138,450,cs),
(79,450,o),
(43,394,o),
(43,308,cs),
(43,224,o),
(77,166,o),
(136,166,cs)
);
},
{
closed = 1;
nodes = (
(98,194,o),
(79,237,o),
(79,308,cs),
(79,381,o),
(98,422,o),
(136,422,cs),
(176,422,o),
(195,381,o),
(195,308,cs),
(195,237,o),
(176,194,o),
(138,194,cs)
);
},
{
closed = 1;
nodes = (
(151,435,l),
(151,560,ls),
(151,588,o),
(157,603,o),
(175,603,cs),
(189,603,o),
(196,594,o),
(196,584,cs),
(196,561,o),
(176,556,o),
(176,529,cs),
(176,511,o),
(186,500,o),
(199,500,cs),
(217,500,o),
(227,518,o),
(227,552,cs),
(227,594,o),
(211,629,o),
(173,629,cs),
(141,629,o),
(123,607,o),
(123,561,cs),
(123,435,l)
);
}
);
};
color = 4;
layerId = "ADE64B87-3839-4AD4-BD35-A3CFF79840FC";
shapes = (
{
closed = 1;
nodes = (
(206,-285,o),
(254,-220,o),
(254,-100,cs),
(254,-23,o),
(231,36,o),
(158,48,cs),
(148,50,o),
(139,51,o),
(129,52,cs),
(93,56,o),
(77,67,o),
(77,107,cs),
(77,129,o),
(82,156,o),
(103,189,c),
(83,199,l),
(62,169,o),
(49,135,o),
(49,99,cs),
(49,57,o),
(65,22,o),
(125,15,cs),
(134,14,o),
(143,13,o),
(152,11,cs),
(208,1,o),
(226,-33,o),
(226,-103,cs),
(226,-209,o),
(187,-251,o),
(137,-251,cs),
(89,-251,o),
(52,-206,o),
(52,-120,cs),
(52,-56,o),
(71,-11,o),
(123,17,c),
(114,38,l),
(59,12,o),
(24,-41,o),
(24,-124,cs),
(24,-218,o),
(70,-285,o),
(137,-285,cs)
);
},
{
closed = 1;
nodes = (
(206,166,o),
(230,237,o),
(230,308,cs),
(230,379,o),
(206,450,o),
(138,450,cs),
(70,450,o),
(44,379,o),
(44,308,cs),
(44,237,o),
(66,166,o),
(136,166,cs)
);
},
{
closed = 1;
nodes = (
(97,194,o),
(79,241,o),
(79,308,cs),
(79,375,o),
(93,422,o),
(136,422,cs),
(179,422,o),
(195,375,o),
(195,308,cs),
(195,241,o),
(179,194,o),
(138,194,cs)
);
},
{
closed = 1;
nodes = (
(151,435,l),
(151,560,ls),
(151,588,o),
(157,603,o),
(175,603,cs),
(189,603,o),
(196,594,o),
(196,584,cs),
(196,561,o),
(176,556,o),
(176,529,cs),
(176,511,o),
(186,500,o),
(199,500,cs),
(217,500,o),
(227,518,o),
(227,552,cs),
(227,594,o),
(211,629,o),
(173,629,cs),
(141,629,o),
(123,607,o),
(123,561,cs),
(123,435,l)
);
}
);
width = 280;
},
{
background = {
shapes = (
{
closed = 1;
nodes = (
(378,388,o),
(334,448,o),
(230,448,cs),
(125,448,o),
(50,368,o),
(50,220,cs),
(50,72,o),
(125,-8,o),
(230,-8,cs),
(334,-8,o),
(378,45,o),
(378,220,cs)
);
},
{
closed = 1;
nodes = (
(191,26,o),
(155,79,o),
(155,220,cs),
(155,361,o),
(191,414,o),
(250,414,cs),
(303,414,o),
(353,380,o),
(353,220,cs),
(353,60,o),
(303,26,o),
(250,26,cs)
);
},
{
closed = 1;
nodes = (
(356,332,l),
(366,220,l),
(350,99,l),
(350,-102,ls),
(350,-200,o),
(312,-240,o),
(250,-240,cs),
(218,-240,o),
(194,-221,o),
(194,-190,cs),
(194,-168,o),
(207,-160,o),
(207,-131,cs),
(207,-94,o),
(180,-67,o),
(140,-67,cs),
(101,-67,o),
(73,-96,o),
(73,-142,cs),
(73,-215,o),
(142,-272,o),
(258,-272,cs),
(381,-272,o),
(450,-203,o),
(450,-98,cs),
(450,440,l),
(356,440,l)
);
}
);
};
layerId = "484F8FD9-52EC-47CF-91D8-DA5450121283";
shapes = (
{
closed = 1;
nodes = (
(436,-275,o),
(497,-169,o),
(497,-83,cs),
(497,-7,o),
(452,52,o),
(367,66,cs),
(324,73,o),
(262,76,o),
(222,77,cs),
(166,79,o),
(143,92,o),
(143,118,cs),
(143,149,o),
(157,162,o),
(185,191,c),
(153,202,l),
(107,171,o),
(74,140,o),
(74,90,cs),
(74,30,o),
(125,-5,o),
(215,-10,cs),
(270,-13,o),
(332,-17,o),
(358,-23,cs),
(429,-40,o),
(448,-76,o),
(448,-110,cs),
(448,-177,o),
(366,-225,o),
(257,-225,cs),
(146,-225,o),
(64,-177,o),
(64,-113,cs),
(64,-65,o),
(102,-27,o),
(214,-7,c),
(209,17,l),
(89,0,o),
(28,-42,o),
(28,-114,cs),
(28,-188,o),
(108,-275,o),
(257,-275,cs)
);
},
{
closed = 1;
nodes = (
(382,166,o),
(462,225,o),
(462,310,cs),
(462,395,o),
(382,450,o),
(257,450,cs),
(131,450,o),
(53,395,o),
(53,310,cs),
(53,225,o),
(131,166,o),
(257,166,cs)
);
},
{
closed = 1;
nodes = (
(200,196,o),
(158,239,o),
(158,310,cs),
(158,380,o),
(200,420,o),
(257,420,cs),
(314,420,o),
(357,380,o),
(357,310,cs),
(357,239,o),
(314,196,o),
(257,196,cs)
);
},
{
closed = 1;
nodes = (
(273,435,l),
(273,521,ls),
(273,565,o),
(284,581,o),
(302,581,cs),
(314,581,o),
(318,574,o),
(318,566,cs),
(318,560,o),
(316,549,o),
(316,542,cs),
(316,515,o),
(338,495,o),
(368,495,cs),
(403,495,o),
(428,522,o),
(428,558,cs),
(428,603,o),
(391,635,o),
(340,635,cs),
(270,635,o),
(241,588,o),
(241,525,cs),
(241,435,l)
);
}
);
width = 527;
},
{
background = {
shapes = (
{
closed = 1;
nodes = (
(378,388,o),
(334,448,o),
(230,448,cs),
(125,448,o),
(50,368,o),
(50,220,cs),
(50,72,o),
(125,-8,o),
(230,-8,cs),
(334,-8,o),
(378,45,o),
(378,220,cs)
);
},
{
closed = 1;
nodes = (
(191,26,o),
(155,79,o),
(155,220,cs),
(155,361,o),
(191,414,o),
(250,414,cs),
(303,414,o),
(353,380,o),
(353,220,cs),
(353,60,o),
(303,26,o),
(250,26,cs)
);
},
{
closed = 1;
nodes = (
(356,332,l),
(366,220,l),
(350,99,l),
(350,-102,ls),
(350,-200,o),
(312,-240,o),
(250,-240,cs),
(218,-240,o),
(194,-221,o),
(194,-190,cs),
(194,-168,o),
(207,-160,o),
(207,-131,cs),
(207,-94,o),
(180,-67,o),
(140,-67,cs),
(101,-67,o),
(73,-96,o),
(73,-142,cs),
(73,-215,o),
(142,-272,o),
(258,-272,cs),
(381,-272,o),
(450,-203,o),
(450,-98,cs),
(450,440,l),
(356,440,l)
);
}
);
};
layerId = "28D540C6-4B1C-4739-9DB3-C8E6E4DDF73A";
shapes = (
{
closed = 1;
nodes = (
(872,-275,o),
(994,-169,o),
(994,-83,cs),
(994,-7,o),
(904,52,o),
(734,66,cs),
(648,73,o),
(524,76,o),
(444,77,cs),
(332,79,o),
(286,92,o),
(286,118,cs),
(286,149,o),
(314,162,o),
(370,191,c),
(306,202,l),
(214,171,o),
(148,140,o),
(148,90,cs),
(148,30,o),
(250,-5,o),
(430,-10,cs),
(540,-13,o),
(664,-17,o),
(716,-23,cs),
(858,-40,o),
(896,-76,o),
(896,-110,cs),
(896,-177,o),
(732,-225,o),
(514,-225,cs),
(292,-225,o),
(128,-177,o),
(128,-113,cs),
(128,-65,o),
(204,-27,o),
(428,-7,c),
(418,17,l),
(178,0,o),
(56,-42,o),
(56,-114,cs),
(56,-188,o),
(216,-275,o),
(514,-275,cs)
);
},
{
closed = 1;
nodes = (
(764,166,o),
(924,225,o),
(924,310,cs),
(924,395,o),
(764,450,o),
(514,450,cs),
(262,450,o),
(106,395,o),
(106,310,cs),
(106,225,o),
(262,166,o),
(514,166,cs)
);
},
{
closed = 1;
nodes = (
(400,196,o),
(316,239,o),
(316,310,cs),
(316,380,o),
(400,420,o),
(514,420,cs),
(628,420,o),
(714,380,o),
(714,310,cs),
(714,239,o),
(628,196,o),
(514,196,cs)
);
},
{
closed = 1;
nodes = (
(546,435,l),
(546,521,ls),
(546,565,o),
(568,581,o),
(604,581,cs),
(628,581,o),
(636,574,o),
(636,566,cs),
(636,560,o),
(632,549,o),
(632,542,cs),
(632,515,o),
(676,495,o),
(736,495,cs),
(806,495,o),
(856,522,o),
(856,558,cs),
(856,603,o),
(782,635,o),
(680,635,cs),
(540,635,o),
(482,588,o),
(482,525,cs),
(482,435,l)
);
}
);
width = 1054;
}
);
unicode = 103;
userData = {
com.typemytype.robofont.guides = (
);
com.typemytype.robofont.layerData = {
background = {
anchors = (
);
components = (
);
contours = (
{
points = (
{
segmentType = curve;
smooth = 1;
x = 257;
y = -275;
},
{
smooth = 0;
x = 436.4958;
y = -275;
},
{
smooth = 0;
x = 497;
y = -169;
},
{
segmentType = curve;
smooth = 1;
x = 497;
y = -83;
},
{
smooth = 0;
x = 497;
y = -7;
},
{
smooth = 0;
x = 452;
y = 52;
},
{
segmentType = curve;
smooth = 1;
x = 367;
y = 66;
},
{
smooth = 0;
x = 324;
y = 73;
},
{
smooth = 0;
x = 262.12526;
y = 76.02134;
},
{
segmentType = curve;
smooth = 1;
x = 222;
y = 77;
},
{
smooth = 0;
x = 166;
y = 79;
},
{
smooth = 0;
x = 143;
y = 92;
},
{
segmentType = curve;
smooth = 1;
x = 143;
y = 118;
},
{
smooth = 0;
x = 143;
y = 150;
},
{
smooth = 0;
x = 174;
y = 163;
},
{
segmentType = curve;
smooth = 1;
x = 257;
y = 165;
},
{
smooth = 0;
x = 382.3887;
y = 167.98545;
},
{
smooth = 0;
x = 462;
y = 222;
},
{
segmentType = curve;
smooth = 1;
x = 462;
y = 310;
},
{
smooth = 0;
x = 462;
y = 394;
},
{
smooth = 0;
x = 382.38835;
y = 450;
},
{
segmentType = curve;
smooth = 1;
x = 257;
y = 450;
},
{
smooth = 0;
x = 131;
y = 450;
},
{
smooth = 0;
x = 53;
y = 394;
},
{
segmentType = curve;
smooth = 1;
x = 53;
y = 310;
},
{
smooth = 0;
x = 53;
y = 229;
},
{
smooth = 0;
x = 125;
y = 174;
},
{
segmentType = curve;
smooth = 0;
x = 242;
y = 174;
},
{
segmentType = line;
smooth = 0;
x = 242;
y = 191;
},
{
smooth = 0;
x = 117;
y = 191;
},
{
smooth = 0;
x = 74;
y = 139.52885;
},
{
segmentType = curve;
smooth = 1;
x = 74;
y = 90;
},
{
smooth = 0;
x = 74;
y = 30;
},
{
smooth = 0;
x = 129;
y = -1;
},
{
segmentType = curve;
smooth = 0;
x = 175;
y = -7;
},
{
segmentType = line;
smooth = 0;
x = 258;
y = 14;
},
{
smooth = 0;
x = 92;
y = 14;
},
{
smooth = 0;
x = 28;
y = -42;
},
{
segmentType = curve;
smooth = 1;
x = 28;
y = -114;
},
{
smooth = 0;
x = 28;
y = -188;
},
{
smooth = 0;
x = 107.95259;
y = -275;
}
);
},
{
points = (
{
segmentType = line;
smooth = 0;
x = 242;
y = 335;
},
{
segmentType = line;
smooth = 0;
x = 274;
y = 335;
},
{
segmentType = line;
smooth = 1;
x = 274;
y = 521;
},
{
smooth = 0;
x = 274;
y = 565;
},
{
smooth = 0;
x = 284.63333;
y = 581;
},
{
segmentType = curve;
smooth = 1;
x = 303;
y = 581;
},
{
smooth = 0;
x = 326;
y = 581;
},
{
smooth = 0;
x = 317;
y = 557;
},
{
segmentType = curve;
smooth = 1;
x = 317;
y = 542;
},
{
smooth = 0;
x = 317;
y = 515;
},
{
smooth = 0;
x = 339;
y = 495;
},
{
segmentType = curve;
smooth = 1;
x = 369;
y = 495;
},
{
smooth = 0;
x = 404;
y = 495;
},
{
smooth = 0;
x = 429;
y = 522;
},
{
segmentType = curve;
smooth = 1;
x = 429;
y = 558;
},
{
smooth = 0;
x = 429;
y = 603;
},
{
smooth = 0;
x = 392;
y = 635;
},
{
segmentType = curve;
smooth = 1;
x = 341;
y = 635;
},
{
smooth = 0;
x = 271.29592;
y = 635;
},
{
smooth = 0;
x = 242;
y = 588;
},
{
segmentType = curve;
smooth = 1;
x = 242;
y = 525;
}
);
},
{
points = (
{
segmentType = line;
smooth = 0;
x = 135;
y = -10;
},
{
segmentType = line;
smooth = 0;
x = 265;
y = -10;
},
{
segmentType = line;
smooth = 0;
x = 265;
y = 15;
},
{
segmentType = line;
smooth = 0;
x = 137;
y = 15;
}
);
},
{
points = (
{
segmentType = line;
smooth = 0;
x = 159;
y = 170;
},
{
segmentType = line;
smooth = 0;
x = 248;
y = 170;
},
{
segmentType = line;
smooth = 0;
x = 248;
y = 195;
},
{
segmentType = line;
smooth = 0;
x = 159;
y = 195;
}
);
},
{
points = (
{
segmentType = curve;
smooth = 1;
x = 257;
y = -13;
},
{
smooth = 0;
x = 412;
y = -13;
},
{
smooth = 0;
x = 448;
y = -63;
},
{
segmentType = curve;
smooth = 1;
x = 448;
y = -110;
},
{
smooth = 0;
x = 448;
y = -177;
},
{
smooth = 0;
x = 365.72308;
y = -225;
},
{
segmentType = curve;
smooth = 1;
x = 257;
y = -225;
},
{
smooth = 0;
x = 146;
y = -225;
},
{
smooth = 0;
x = 64;
y = -177;
},
{
segmentType = curve;
smooth = 1;
x = 64;
y = -113;
},
{
smooth = 0;
x = 64;
y = -57;
},
{
smooth = 0;
x = 118;
y = -13;
}
);
},
{
points = (
{
segmentType = curve;
smooth = 1;
x = 257;
y = 420;
},
{
smooth = 0;
x = 314;
y = 420;
},
{
smooth = 0;
x = 357;
y = 380;
},
{
segmentType = curve;
smooth = 1;
x = 357;
y = 310;
},
{
smooth = 0;
x = 357;
y = 239;
},
{
smooth = 0;
x = 314;
y = 196;
},
{
segmentType = curve;
smooth = 1;
x = 257;
y = 196;
},
{
smooth = 0;
x = 200;
y = 196;
},
{
smooth = 0;
x = 158;
y = 239;
},
{
segmentType = curve;
smooth = 1;
x = 158;
y = 310;
},
{
smooth = 0;
x = 158;
y = 380;
},
{
smooth = 0;
x = 200;
y = 420;
}
);
}
);
lib = {
};
name = g;
unicodes = (
);
width = 527;
};
};
com.typemytype.robofont.mark = (
0.9366,
0.9212,
0.4821,
1
);
};
},
{
glyphname = h;
kernLeft = h;
kernRight = a;
lastChange = "2025-02-16 17:18:27 +0000";
layers = (
{
background = {
shapes = (
{
closed = 1;
nodes = (
(138,0,l),
(138,30,l),
(115,30,ls),
(100,30,o),
(95,44,o),
(95,68,cs),
(95,266,ls),
(95,365,o),
(114,414,o),
(143,414,cs),
(172,414,o),
(181,383,o),
(181,314,cs),
(181,68,l),
(181,44,l),
(181,44,o),
(181,30,o),
(181,30,c),
(181,0,l),
(274,0,l),
(274,30,l),
(253,30,ls),
(237,30,o),
(231,44,o),
(231,68,cs),
(231,316,ls),
(231,400,o),
(209,450,o),
(157,450,cs),
(122,450,o),
(86,418,o),
(86,306,c),
(95,306,l),
(95,670,l),
(0,670,l),
(0,640,l),
(24,640,ls),
(40,640,o),
(45,625,o),
(45,597,cs),
(45,68,ls),
(45,44,o),
(40,30,o),
(27,30,cs),
(3,30,l),
(3,0,l)
);
}
);
};
color = 4;
layerId = "ADE64B87-3839-4AD4-BD35-A3CFF79840FC";
shapes = (
{
closed = 1;
nodes = (
(135,0,l),
(135,24,l),
(103,24,ls),
(91,24,o),
(88,30,o),
(88,40,cs),
(88,339,ls),
(88,396,o),
(114,425,o),
(147,425,cs),
(179,425,o),
(192,405,o),
(192,366,cs),
(192,40,l),
(192,34,o),
(192,29,o),
(192,24,c),
(192,24,l),
(192,0,l),
(272,0,l),
(272,24,l),
(240,24,ls),
(229,24,o),
(224,30,o),
(224,40,cs),
(224,369,ls),
(224,418,o),
(204,452,o),
(158,452,cs),
(111,452,o),
(72,420,o),
(72,308,c),
(88,386,l),
(88,670,l),
(8,670,l),
(8,646,l),
(40,646,ls),
(52,646,o),
(56,639,o),
(56,630,cs),
(56,40,ls),
(56,30,o),
(53,24,o),
(40,24,cs),
(8,24,l),
(8,0,l)
);
}
);
width = 280;
},
{
background = {
shapes = (
{
closed = 1;
nodes = (
(280,0,l),
(280,30,l),
(235,30,ls),
(205,30,o),
(195,44,o),
(195,68,cs),
(195,266,ls),
(195,365,o),
(232,414,o),
(290,414,cs),
(348,414,o),
(367,383,o),
(367,314,cs),
(367,68,l),
(367,55,o),
(367,43,o),
(367,30,c),
(367,30,l),
(367,0,l),
(552,0,l),
(552,30,l),
(510,30,ls),
(479,30,o),
(467,44,o),
(467,68,cs),
(467,316,ls),
(467,400,o),
(423,450,o),
(319,450,cs),
(248,450,o),
(177,418,o),
(177,306,c),
(195,306,l),
(195,670,l),
(5,670,l),
(5,640,l),
(52,640,ls),
(84,640,o),
(95,625,o),
(95,597,cs),
(95,68,ls),
(95,44,o),
(85,30,o),
(58,30,cs),
(10,30,l),
(10,0,l)
);
}
);
};
hints = (
{
name = _corner.serif.lc;
origin = (0,20);
type = Corner;
},
{
name = _corner.serif.lc;
origin = (0,0);
scale = (1,-1);
type = Corner;
},
{
name = _corner.serif.lc;
origin = (0,19);
scale = (1,-1);
type = Corner;
},
{
name = _corner.serif.lc;
origin = (0,9);
scale = (1,-1);
type = Corner;
}
);
layerId = "484F8FD9-52EC-47CF-91D8-DA5450121283";
shapes = (
{
closed = 1;
nodes = (
(195,0,l),
(195,266,ls),
(195,365,o),
(232,414,o),
(290,414,cs),
(348,414,o),
(367,383,o),
(367,314,cs),
(367,0,l),
(467,0,l),
(467,316,ls),
(467,400,o),
(423,450,o),
(319,450,cs),
(248,450,o),
(177,418,o),
(177,306,c),
(195,306,l),
(195,670,l),
(95,670,l),
(95,0,l)
);
}
);
width = 557;
},
{
background = {
shapes = (
{
closed = 1;
nodes = (
(530,-10,o),
(587,28,o),
(644,130,c),
(616,145,l),
(572,65,o),
(529,32,o),
(489,32,cs),
(457,32,o),
(433,56,o),
(433,118,cs),
(433,328,ls),
(433,404,o),
(393,450,o),
(300,450,cs),
(235,450,o),
(166,417,o),
(166,306,c),
(185,306,l),
(185,670,l),
(-15,670,l),
(-15,640,l),
(42,640,ls),
(74,640,o),
(85,625,o),
(85,597,cs),
(85,0,ls),
(185,0,l),
(185,281,ls),
(185,364,o),
(215,412,o),
(268,412,cs),
(313,412,o),
(333,384,o),
(333,327,cs),
(333,120,ls),
(333,57,o),
(356,-10,o),
(459,-10,cs)
);
}
);
};
layerId = "28D540C6-4B1C-4739-9DB3-C8E6E4DDF73A";
shapes = (
{
closed = 1;
nodes = (
(550,0,l),
(550,30,l),
(460,30,ls),
(400,30,o),
(380,44,o),
(380,68,cs),
(380,266,ls),
(380,365,o),
(454,414,o),
(570,414,cs),
(686,414,o),
(724,383,o),
(724,314,cs),
(724,68,l),
(724,55,o),
(724,43,o),
(724,30,c),
(724,30,l),
(724,0,l),
(1094,0,l),
(1094,30,l),
(1010,30,ls),
(948,30,o),
(924,44,o),
(924,68,cs),
(924,316,ls),
(924,400,o),
(836,450,o),
(628,450,cs),
(486,450,o),
(344,418,o),
(344,306,c),
(380,306,l),
(380,670,l),
(0,670,l),
(0,640,l),
(94,640,ls),
(158,640,o),
(180,625,o),
(180,597,cs),
(180,68,ls),
(180,44,o),
(160,30,o),
(106,30,cs),
(10,30,l),
(10,0,l)
);
}
);
width = 1104;
}
);
metricLeft = n;
metricRight = n;
unicode = 104;
userData = {
com.typemytype.robofont.layerData = {
background = {
anchors = (
);
components = (
);
contours = (
{
points = (
{
segmentType = line;
smooth = 0;
x = 190;
y = 670;
},
{
segmentType = line;
smooth = 0;
x = -1;
y = 670;
},
{
segmentType = line;
smooth = 0;
x = -1;
y = 640;
},
{
segmentType = line;
smooth = 1;
x = 47;
y = 640;
},
{
smooth = 0;
x = 79;
y = 640;
},
{
smooth = 0;
x = 90;
y = 625;
},
{
segmentType = curve;
smooth = 1;
x = 90;
y = 597;
},
{
segmentType = line;
smooth = 1;
x = 90;
y = 68;
},
{
smooth = 0;
x = 90;
y = 44;
},
{
smooth = 0;
x = 80;
y = 30;
},
{
segmentType = curve;
smooth = 1;
x = 53;
y = 30;
},
{
segmentType = line;
smooth = 0;
x = 6;
y = 30;
},
{
segmentType = line;
smooth = 0;
x = 6;
y = 0;
},
{
segmentType = line;
smooth = 0;
x = 275;
y = 0;
},
{
segmentType = line;
smooth = 0;
x = 275;
y = 30;
},
{
segmentType = line;
smooth = 1;
x = 230;
y = 30;
},
{
smooth = 0;
x = 200;
y = 30;
},
{
smooth = 0;
x = 190;
y = 44;
},
{
segmentType = curve;
smooth = 1;
x = 190;
y = 68;
},
{
segmentType = line;
smooth = 1;
x = 190;
y = 266;
},
{
smooth = 0;
x = 190;
y = 370;
},
{
smooth = 0;
x = 224;
y = 422;
},
{
segmentType = curve;
smooth = 1;
x = 286;
y = 422;
},
{
smooth = 0;
x = 344;
y = 422;
},
{
smooth = 0;
x = 362;
y = 391;
},
{
segmentType = curve;
smooth = 1;
x = 362;
y = 327;
},
{
segmentType = line;
smooth = 0;
x = 362;
y = 0;
},
{
segmentType = line;
smooth = 0;
x = 552;
y = 0;
},
{
segmentType = line;
smooth = 0;
x = 552;
y = 30;
},
{
segmentType = line;
smooth = 1;
x = 505;
y = 30;
},
{
smooth = 0;
x = 474;
y = 30;
},
{
smooth = 0;
x = 462;
y = 44;
},
{
segmentType = curve;
smooth = 1;
x = 462;
y = 68;
},
{
segmentType = line;
smooth = 1;
x = 462;
y = 328;
},
{
smooth = 0;
x = 462;
y = 409;
},
{
smooth = 0;
x = 418;
y = 458;
},
{
segmentType = curve;
smooth = 1;
x = 314;
y = 458;
},
{
smooth = 0;
x = 243;
y = 458;
},
{
smooth = 0;
x = 171;
y = 427;
},
{
segmentType = curve;
smooth = 0;
x = 171;
y = 306;
},
{
segmentType = line;
smooth = 0;
x = 190;
y = 306;
}
);
}
);
lib = {
};
name = h;
unicodes = (
);
width = 552;
};
};
com.typemytype.robofont.mark = (
0.9366,
0.9212,
0.4821,
1
);
};
},
{
glyphname = i;
kernRight = d;
lastChange = "2025-02-16 17:20:30 +0000";
layers = (
{
background = {
shapes = (
{
closed = 1;
nodes = (
(282,-10,o),
(339,28,o),
(396,130,c),
(368,145,l),
(324,65,o),
(281,32,o),
(241,32,cs),
(209,32,o),
(185,56,o),
(185,118,cs),
(185,440,l),
(-10,440,l),
(-10,410,l),
(42,410,ls),
(74,410,o),
(85,395,o),
(85,367,cs),
(85,120,ls),
(85,57,o),
(108,-10,o),
(211,-10,cs)
);
},
{
closed = 1;
nodes = (
(163,540,o),
(190,567,o),
(190,604,cs),
(190,640,o),
(163,667,o),
(126,667,cs),
(89,667,o),
(62,640,o),
(62,604,cs),
(62,567,o),
(89,540,o),
(126,540,cs)
);
}
);
};
layerId = "ADE64B87-3839-4AD4-BD35-A3CFF79840FC";
shapes = (
{
closed = 1;
nodes = (
(140,0,l),
(140,30,l),
(118,30,ls),
(103,30,o),
(98,44,o),
(98,68,cs),
(98,440,l),
(2,440,l),
(2,410,l),
(26,410,ls),
(42,410,o),
(48,395,o),
(48,367,cs),
(48,68,ls),
(48,44,o),
(43,30,o),
(29,30,cs),
(6,30,l),
(6,0,l)
);
},
{
closed = 1;
nodes = (
(89,540,o),
(103,567,o),
(103,604,cs),
(103,640,o),
(89,667,o),
(71,667,cs),
(52,667,o),
(39,640,o),
(39,604,cs),
(39,567,o),
(52,540,o),
(71,540,cs)
);
}
);
width = 145;
},
{
background = {
hints = (
{
name = _corner.serif.lc;
origin = (0,0);
scale = (1,-1);
type = Corner;
},
{
name = _corner.serif.lc;
origin = (0,2);
scale = (1,-1);
type = Corner;
},
{
name = _corner.serif.lc;
origin = (0,3);
type = Corner;
}
);
shapes = (
{
closed = 1;
nodes = (
(195,0,l),
(195,440,l),
(95,440,l),
(95,0,l)
);
}
);
};
hints = (
{
name = _corner.serif.lc;
origin = (1,0);
scale = (1,-1);
type = Corner;
},
{
name = _corner.serif.lc;
origin = (1,2);
scale = (1,-1);
type = Corner;
},
{
name = _corner.serif.lc;
origin = (1,3);
type = Corner;
}
);
layerId = "484F8FD9-52EC-47CF-91D8-DA5450121283";
shapes = (
{
closed = 1;
nodes = (
(178,540,o),
(205,567,o),
(205,604,cs),
(205,640,o),
(178,667,o),
(141,667,cs),
(104,667,o),
(77,640,o),
(77,604,cs),
(77,567,o),
(104,540,o),
(141,540,cs)
);
},
{
closed = 1;
nodes = (
(195,0,l),
(195,440,l),
(95,440,l),
(95,0,l)
);
}
);
width = 290;
},
{
background = {
shapes = (
{
closed = 1;
nodes = (
(282,-10,o),
(339,28,o),
(396,130,c),
(368,145,l),
(324,65,o),
(281,32,o),
(241,32,cs),
(209,32,o),
(185,56,o),
(185,118,cs),
(185,440,l),
(-10,440,l),
(-10,410,l),
(42,410,ls),
(74,410,o),
(85,395,o),
(85,367,cs),
(85,120,ls),
(85,57,o),
(108,-10,o),
(211,-10,cs)
);
},
{
closed = 1;
nodes = (
(163,540,o),
(190,567,o),
(190,604,cs),
(190,640,o),
(163,667,o),
(126,667,cs),
(89,667,o),
(62,640,o),
(62,604,cs),
(62,567,o),
(89,540,o),
(126,540,cs)
);
}
);
};
layerId = "28D540C6-4B1C-4739-9DB3-C8E6E4DDF73A";
shapes = (
{
closed = 1;
nodes = (
(560,0,l),
(560,30,l),
(470,30,ls),
(410,30,o),
(390,44,o),
(390,68,cs),
(390,440,l),
(8,440,l),
(8,410,l),
(104,410,ls),
(168,410,o),
(190,395,o),
(190,367,cs),
(190,68,ls),
(190,44,o),
(170,30,o),
(116,30,cs),
(22,30,l),
(22,0,l)
);
},
{
closed = 1;
nodes = (
(356,540,o),
(410,567,o),
(410,604,cs),
(410,640,o),
(356,667,o),
(282,667,cs),
(208,667,o),
(154,640,o),
(154,604,cs),
(154,567,o),
(208,540,o),
(282,540,cs)
);
}
);
width = 580;
}
);
unicode = 105;
userData = {
com.typemytype.robofont.guides = (
{
angle = 90;
isGlobal = 0;
magnetic = 5;
x = 105;
y = 322;
},
{
angle = 90;
isGlobal = 0;
magnetic = 5;
x = 205;
y = 316;
}
);
com.typemytype.robofont.layerData = {
background = {
anchors = (
);
components = (
);
contours = (
);
lib = {
};
name = i;
unicodes = (
);
width = 290;
};
};
};
},
{
glyphname = idotless;
lastChange = "2025-02-16 17:22:08 +0000";
layers = (
{
anchors = (
{
name = bottom;
pos = (145,0);
},
{
name = ogonek;
pos = (280,0);
},
{
name = top;
pos = (141,440);
}
);
background = {
hints = (
{
name = _corner.serif.lc;
origin = (1,0);
scale = (1,-1);
type = Corner;
},
{
name = _corner.serif.lc;
origin = (1,2);
scale = (1,-1);
type = Corner;
},
{
name = _corner.serif.lc;
origin = (1,3);
type = Corner;
}
);
shapes = (
{
closed = 1;
nodes = (
(178,540,o),
(205,567,o),
(205,604,cs),
(205,640,o),
(178,667,o),
(141,667,cs),
(104,667,o),
(77,640,o),
(77,604,cs),
(77,567,o),
(104,540,o),
(141,540,cs)
);
},
{
closed = 1;
nodes = (
(195,0,l),
(195,440,l),
(95,440,l),
(95,0,l)
);
}
);
};
hints = (
{
name = _corner.serif.lc;
origin = (0,0);
scale = (1,-1);
type = Corner;
},
{
name = _corner.serif.lc;
origin = (0,2);
scale = (1,-1);
type = Corner;
},
{
name = _corner.serif.lc;
origin = (0,3);
type = Corner;
}
);
layerId = "484F8FD9-52EC-47CF-91D8-DA5450121283";
shapes = (
{
closed = 1;
nodes = (
(195,0,l),
(195,440,l),
(95,440,l),
(95,0,l)
);
}
);
width = 290;
},
{
layerId = "ADE64B87-3839-4AD4-BD35-A3CFF79840FC";
width = 600;
},
{
layerId = "28D540C6-4B1C-4739-9DB3-C8E6E4DDF73A";
width = 600;
}
);
unicode = 305;
},
{
glyphname = j;
lastChange = "2018-07-13 09:52:20 +0000";
layers = (
{
background = {
shapes = (
{
closed = 1;
nodes = (
(188,540,o),
(215,567,o),
(215,604,cs),
(215,640,o),
(188,667,o),
(151,667,cs),
(114,667,o),
(87,640,o),
(87,604,cs),
(87,567,o),
(114,540,o),
(151,540,cs)
);
},
{
closed = 1;
nodes = (
(4,440,l),
(4,410,l),
(62,410,ls),
(94,410,o),
(105,395,o),
(105,367,cs),
(105,-126,ls),
(105,-210,o),
(75,-240,o),
(22,-240,cs),
(-11,-240,o),
(-29,-228,o),
(-29,-209,cs),
(-29,-186,o),
(-14,-174,o),
(-14,-145,cs),
(-14,-110,o),
(-40,-83,o),
(-78,-83,cs),
(-115,-83,o),
(-142,-112,o),
(-142,-157,cs),
(-142,-218,o),
(-81,-272,o),
(20,-272,cs),
(143,-272,o),
(205,-212,o),
(205,-117,cs),
(205,440,l)
);
}
);
};
layerId = "ADE64B87-3839-4AD4-BD35-A3CFF79840FC";
shapes = (
{
closed = 1;
nodes = (
(97,540,o),
(110,567,o),
(110,604,cs),
(110,640,o),
(97,667,o),
(78,667,cs),
(60,667,o),
(46,640,o),
(46,604,cs),
(46,567,o),
(60,540,o),
(78,540,cs)
);
},
{
closed = 1;
nodes = (
(10,440,l),
(10,410,l),
(34,410,ls),
(50,410,o),
(55,395,o),
(55,367,cs),
(55,-141,ls),
(55,-225,o),
(48,-255,o),
(24,-255,cs),
(8,-255,o),
(-2,-237,o),
(-2,-215,cs),
(-2,-186,o),
(10,-166,o),
(10,-142,cs),
(10,-110,o),
(-2,-86,o),
(-20,-86,cs),
(-38,-86,o),
(-51,-114,o),
(-51,-154,cs),
(-51,-231,o),
(-18,-287,o),
(24,-287,cs),
(72,-287,o),
(105,-227,o),
(105,-132,cs),
(105,440,l)
);
}
);
width = 150;
},
{
background = {
shapes = (
{
closed = 1;
nodes = (
(188,540,o),
(215,567,o),
(215,604,cs),
(215,640,o),
(188,667,o),
(151,667,cs),
(114,667,o),
(87,640,o),
(87,604,cs),
(87,567,o),
(114,540,o),
(151,540,cs)
);
},
{
closed = 1;
nodes = (
(4,440,l),
(4,410,l),
(62,410,ls),
(94,410,o),
(105,395,o),
(105,367,cs),
(105,-126,ls),
(105,-210,o),
(75,-240,o),
(22,-240,cs),
(-11,-240,o),
(-29,-228,o),
(-29,-209,cs),
(-29,-186,o),
(-14,-174,o),
(-14,-145,cs),
(-14,-110,o),
(-40,-83,o),
(-78,-83,cs),
(-115,-83,o),
(-142,-112,o),
(-142,-157,cs),
(-142,-218,o),
(-81,-272,o),
(20,-272,cs),
(143,-272,o),
(205,-212,o),
(205,-117,cs),
(205,440,l)
);
}
);
};
layerId = "484F8FD9-52EC-47CF-91D8-DA5450121283";
shapes = (
{
closed = 1;
nodes = (
(193,540,o),
(220,567,o),
(220,604,cs),
(220,640,o),
(193,667,o),
(156,667,cs),
(119,667,o),
(92,640,o),
(92,604,cs),
(92,567,o),
(119,540,o),
(156,540,cs)
);
},
{
closed = 1;
nodes = (
(19,440,l),
(19,410,l),
(67,410,ls),
(99,410,o),
(110,395,o),
(110,367,cs),
(110,-141,ls),
(110,-225,o),
(95,-255,o),
(47,-255,cs),
(15,-255,o),
(-3,-237,o),
(-3,-215,cs),
(-3,-186,o),
(20,-166,o),
(20,-142,cs),
(20,-110,o),
(-4,-86,o),
(-40,-86,cs),
(-76,-86,o),
(-102,-114,o),
(-102,-154,cs),
(-102,-231,o),
(-36,-287,o),
(48,-287,cs),
(144,-287,o),
(210,-227,o),
(210,-132,cs),
(210,440,l)
);
}
);
width = 300;
},
{
background = {
shapes = (
{
closed = 1;
nodes = (
(188,540,o),
(215,567,o),
(215,604,cs),
(215,640,o),
(188,667,o),
(151,667,cs),
(114,667,o),
(87,640,o),
(87,604,cs),
(87,567,o),
(114,540,o),
(151,540,cs)
);
},
{
closed = 1;
nodes = (
(4,440,l),
(4,410,l),
(62,410,ls),
(94,410,o),
(105,395,o),
(105,367,cs),
(105,-126,ls),
(105,-210,o),
(75,-240,o),
(22,-240,cs),
(-11,-240,o),
(-29,-228,o),
(-29,-209,cs),
(-29,-186,o),
(-14,-174,o),
(-14,-145,cs),
(-14,-110,o),
(-40,-83,o),
(-78,-83,cs),
(-115,-83,o),
(-142,-112,o),
(-142,-157,cs),
(-142,-218,o),
(-81,-272,o),
(20,-272,cs),
(143,-272,o),
(205,-212,o),
(205,-117,cs),
(205,440,l)
);
}
);
};
layerId = "28D540C6-4B1C-4739-9DB3-C8E6E4DDF73A";
shapes = (
{
closed = 1;
nodes = (
(386,540,o),
(440,567,o),
(440,604,cs),
(440,640,o),
(386,667,o),
(312,667,cs),
(238,667,o),
(184,640,o),
(184,604,cs),
(184,567,o),
(238,540,o),
(312,540,cs)
);
},
{
closed = 1;
nodes = (
(38,440,l),
(38,410,l),
(134,410,ls),
(198,410,o),
(220,395,o),
(220,367,cs),
(220,-141,ls),
(220,-225,o),
(190,-255,o),
(94,-255,cs),
(30,-255,o),
(-6,-237,o),
(-6,-215,cs),
(-6,-186,o),
(40,-166,o),
(40,-142,cs),
(40,-110,o),
(-8,-86,o),
(-80,-86,cs),
(-152,-86,o),
(-204,-114,o),
(-204,-154,cs),
(-204,-231,o),
(-72,-287,o),
(96,-287,cs),
(288,-287,o),
(420,-227,o),
(420,-132,cs),
(420,440,l)
);
}
);
width = 600;
}
);
unicode = 106;
userData = {
com.typemytype.robofont.guides = (
);
com.typemytype.robofont.layerData = {
background = {
anchors = (
);
components = (
);
contours = (
);
lib = {
};
name = j;
unicodes = (
);
width = 300;
};
};
};
},
{
glyphname = k;
kernLeft = h;
kernRight = c_k;
lastChange = "2018-07-13 09:52:20 +0000";
layers = (
{
background = {
shapes = (
{
closed = 1;
nodes = (
(185,670,l),
(-15,670,l),
(-15,640,l),
(42,640,ls),
(74,640,o),
(85,625,o),
(85,597,cs),
(85,0,ls),
(185,0,l),
(185,133,ls),
(185,192,o),
(210,235,o),
(259,235,cs),
(295,235,o),
(312,211,o),
(312,172,cs),
(312,111,ls),
(312,49,o),
(336,-10,o),
(442,-10,cs),
(513,-10,o),
(570,28,o),
(627,130,c),
(599,145,l),
(555,65,o),
(512,32,o),
(472,32,cs),
(442,32,o),
(420,54,o),
(420,110,cs),
(420,144,ls),
(420,227,o),
(373,266,o),
(292,266,cs),
(262,266,o),
(241,257,o),
(219,245,c),
(221,239,l),
(262,257,o),
(288,282,o),
(312,342,cs),
(329,384,o),
(339,393,o),
(352,393,cs),
(360,393,o),
(365,389,o),
(365,382,cs),
(365,377,o),
(364,370,o),
(364,363,cs),
(364,334,o),
(386,312,o),
(419,312,cs),
(456,312,o),
(482,337,o),
(482,373,cs),
(482,418,o),
(444,448,o),
(397,448,cs),
(338,448,o),
(307,412,o),
(282,352,cs),
(257,292,o),
(234,252,o),
(174,237,c),
(185,208,l)
);
},
{
closed = 1;
nodes = (
(210,245,l),
(219,231,l),
(272,254,l),
(261,274,l)
);
}
);
};
layerId = "ADE64B87-3839-4AD4-BD35-A3CFF79840FC";
shapes = (
{
closed = 1;
nodes = (
(270,0,l),
(270,30,l),
(262,30,ls),
(246,30,o),
(236,42,o),
(226,76,cs),
(158,300,l),
(122,234,l),
(173,61,ls),
(179,40,o),
(175,30,o),
(162,30,cs),
(148,30,l),
(148,0,l)
);
},
{
closed = 1;
nodes = (
(130,0,l),
(130,30,l),
(115,30,ls),
(100,30,o),
(95,44,o),
(95,68,cs),
(95,670,l),
(0,670,l),
(0,640,l),
(24,640,ls),
(40,640,o),
(45,625,o),
(45,597,cs),
(45,68,ls),
(45,44,o),
(40,30,o),
(27,30,cs),
(3,30,l),
(3,0,l)
);
},
{
closed = 1;
nodes = (
(187,331,ls),
(217,386,o),
(234,410,o),
(259,410,c),
(259,440,l),
(145,440,l),
(145,410,l),
(167,410,o),
(174,401,o),
(174,378,cs),
(174,358,o),
(167,339,o),
(155,316,cs),
(69,157,l),
(80,133,l)
);
}
);
width = 267;
},
{
background = {
shapes = (
{
closed = 1;
nodes = (
(185,670,l),
(-15,670,l),
(-15,640,l),
(42,640,ls),
(74,640,o),
(85,625,o),
(85,597,cs),
(85,0,ls),
(185,0,l),
(185,133,ls),
(185,192,o),
(210,235,o),
(259,235,cs),
(295,235,o),
(312,211,o),
(312,172,cs),
(312,111,ls),
(312,49,o),
(336,-10,o),
(442,-10,cs),
(513,-10,o),
(570,28,o),
(627,130,c),
(599,145,l),
(555,65,o),
(512,32,o),
(472,32,cs),
(442,32,o),
(420,54,o),
(420,110,cs),
(420,144,ls),
(420,227,o),
(373,266,o),
(292,266,cs),
(262,266,o),
(241,257,o),
(219,245,c),
(221,239,l),
(262,257,o),
(288,282,o),
(312,342,cs),
(329,384,o),
(339,393,o),
(352,393,cs),
(360,393,o),
(365,389,o),
(365,382,cs),
(365,377,o),
(364,370,o),
(364,363,cs),
(364,334,o),
(386,312,o),
(419,312,cs),
(456,312,o),
(482,337,o),
(482,373,cs),
(482,418,o),
(444,448,o),
(397,448,cs),
(338,448,o),
(307,412,o),
(282,352,cs),
(257,292,o),
(234,252,o),
(174,237,c),
(185,208,l)
);
},
{
closed = 1;
nodes = (
(210,245,l),
(219,231,l),
(272,254,l),
(261,274,l)
);
}
);
};
layerId = "484F8FD9-52EC-47CF-91D8-DA5450121283";
shapes = (
{
closed = 1;
nodes = (
(539,0,l),
(539,30,l),
(523,30,ls),
(491,30,o),
(472,42,o),
(451,76,cs),
(316,300,l),
(244,234,l),
(346,61,ls),
(358,40,o),
(349,30,o),
(323,30,cs),
(295,30,l),
(295,0,l)
);
},
{
closed = 1;
nodes = (
(260,0,l),
(260,30,l),
(230,30,ls),
(200,30,o),
(190,44,o),
(190,68,cs),
(190,670,l),
(0,670,l),
(0,640,l),
(47,640,ls),
(79,640,o),
(90,625,o),
(90,597,cs),
(90,68,ls),
(90,44,o),
(80,30,o),
(53,30,cs),
(6,30,l),
(6,0,l)
);
},
{
closed = 1;
nodes = (
(374,331,ls),
(433,386,o),
(468,410,o),
(517,410,c),
(517,440,l),
(290,440,l),
(290,410,l),
(334,410,o),
(348,401,o),
(348,378,cs),
(348,358,o),
(334,339,o),
(309,316,cs),
(137,157,l),
(159,133,l)
);
}
);
width = 534;
},
{
background = {
shapes = (
{
closed = 1;
nodes = (
(185,670,l),
(-15,670,l),
(-15,640,l),
(42,640,ls),
(74,640,o),
(85,625,o),
(85,597,cs),
(85,0,ls),
(185,0,l),
(185,133,ls),
(185,192,o),
(210,235,o),
(259,235,cs),
(295,235,o),
(312,211,o),
(312,172,cs),
(312,111,ls),
(312,49,o),
(336,-10,o),
(442,-10,cs),
(513,-10,o),
(570,28,o),
(627,130,c),
(599,145,l),
(555,65,o),
(512,32,o),
(472,32,cs),
(442,32,o),
(420,54,o),
(420,110,cs),
(420,144,ls),
(420,227,o),
(373,266,o),
(292,266,cs),
(262,266,o),
(241,257,o),
(219,245,c),
(221,239,l),
(262,257,o),
(288,282,o),
(312,342,cs),
(329,384,o),
(339,393,o),
(352,393,cs),
(360,393,o),
(365,389,o),
(365,382,cs),
(365,377,o),
(364,370,o),
(364,363,cs),
(364,334,o),
(386,312,o),
(419,312,cs),
(456,312,o),
(482,337,o),
(482,373,cs),
(482,418,o),
(444,448,o),
(397,448,cs),
(338,448,o),
(307,412,o),
(282,352,cs),
(257,292,o),
(234,252,o),
(174,237,c),
(185,208,l)
);
},
{
closed = 1;
nodes = (
(210,245,l),
(219,231,l),
(272,254,l),
(261,274,l)
);
}
);
};
layerId = "28D540C6-4B1C-4739-9DB3-C8E6E4DDF73A";
shapes = (
{
closed = 1;
nodes = (
(1078,0,l),
(1078,30,l),
(1046,30,ls),
(982,30,o),
(944,42,o),
(902,76,cs),
(632,300,l),
(488,234,l),
(692,61,ls),
(716,40,o),
(698,30,o),
(646,30,cs),
(590,30,l),
(590,0,l)
);
},
{
closed = 1;
nodes = (
(520,0,l),
(520,30,l),
(460,30,ls),
(400,30,o),
(380,44,o),
(380,68,cs),
(380,670,l),
(0,670,l),
(0,640,l),
(94,640,ls),
(158,640,o),
(180,625,o),
(180,597,cs),
(180,68,ls),
(180,44,o),
(160,30,o),
(106,30,cs),
(12,30,l),
(12,0,l)
);
},
{
closed = 1;
nodes = (
(748,331,ls),
(866,386,o),
(936,410,o),
(1034,410,c),
(1034,440,l),
(580,440,l),
(580,410,l),
(668,410,o),
(696,401,o),
(696,378,cs),
(696,358,o),
(668,339,o),
(618,316,cs),
(274,157,l),
(318,133,l)
);
}
);
width = 1068;
}
);
unicode = 107;
userData = {
com.typemytype.robofont.layerData = {
background = {
anchors = (
);
components = (
);
contours = (
);
lib = {
};
name = h;
unicodes = (
);
width = 534;
};
};
};
},
{
glyphname = l;
kernLeft = h;
kernRight = d;
lastChange = "2018-07-13 09:52:20 +0000";
layers = (
{
background = {
shapes = (
{
closed = 1;
nodes = (
(296,-10,o),
(340,30,o),
(396,130,c),
(368,145,l),
(326,69,o),
(292,37,o),
(248,37,cs),
(209,37,o),
(185,60,o),
(185,132,cs),
(185,670,l),
(-15,670,l),
(-15,640,l),
(42,640,ls),
(74,640,o),
(85,625,o),
(85,597,cs),
(85,136,ls),
(85,57,o),
(117,-10,o),
(218,-10,cs)
);
}
);
};
layerId = "ADE64B87-3839-4AD4-BD35-A3CFF79840FC";
shapes = (
{
closed = 1;
nodes = (
(138,0,l),
(138,30,l),
(115,30,ls),
(100,30,o),
(95,44,o),
(95,68,cs),
(95,670,l),
(0,670,l),
(0,640,l),
(24,640,ls),
(40,640,o),
(45,625,o),
(45,597,cs),
(45,68,ls),
(45,44,o),
(40,30,o),
(27,30,cs),
(3,30,l),
(3,0,l)
);
}
);
width = 143;
},
{
background = {
shapes = (
{
closed = 1;
nodes = (
(296,-10,o),
(340,30,o),
(396,130,c),
(368,145,l),
(326,69,o),
(292,37,o),
(248,37,cs),
(209,37,o),
(185,60,o),
(185,132,cs),
(185,670,l),
(-15,670,l),
(-15,640,l),
(42,640,ls),
(74,640,o),
(85,625,o),
(85,597,cs),
(85,136,ls),
(85,57,o),
(117,-10,o),
(218,-10,cs)
);
}
);
};
layerId = "484F8FD9-52EC-47CF-91D8-DA5450121283";
shapes = (
{
closed = 1;
nodes = (
(275,0,l),
(275,30,l),
(230,30,ls),
(200,30,o),
(190,44,o),
(190,68,cs),
(190,670,l),
(0,670,l),
(0,640,l),
(47,640,ls),
(79,640,o),
(90,625,o),
(90,597,cs),
(90,68,ls),
(90,44,o),
(80,30,o),
(53,30,cs),
(5,30,l),
(5,0,l)
);
}
);
width = 285;
},
{
background = {
shapes = (
{
closed = 1;
nodes = (
(296,-10,o),
(340,30,o),
(396,130,c),
(368,145,l),
(326,69,o),
(292,37,o),
(248,37,cs),
(209,37,o),
(185,60,o),
(185,132,cs),
(185,670,l),
(-15,670,l),
(-15,640,l),
(42,640,ls),
(74,640,o),
(85,625,o),
(85,597,cs),
(85,136,ls),
(85,57,o),
(117,-10,o),
(218,-10,cs)
);
}
);
};
layerId = "28D540C6-4B1C-4739-9DB3-C8E6E4DDF73A";
shapes = (
{
closed = 1;
nodes = (
(550,0,l),
(550,30,l),
(460,30,ls),
(400,30,o),
(380,44,o),
(380,68,cs),
(380,670,l),
(0,670,l),
(0,640,l),
(94,640,ls),
(158,640,o),
(180,625,o),
(180,597,cs),
(180,68,ls),
(180,44,o),
(160,30,o),
(106,30,cs),
(10,30,l),
(10,0,l)
);
}
);
width = 570;
}
);
unicode = 108;
userData = {
com.typemytype.robofont.guides = (
);
com.typemytype.robofont.layerData = {
background = {
anchors = (
);
components = (
);
contours = (
{
points = (
{
segmentType = line;
smooth = 0;
x = 190;
y = 670;
},
{
segmentType = line;
smooth = 0;
x = -1;
y = 670;
},
{
segmentType = line;
smooth = 0;
x = -1;
y = 640;
},
{
segmentType = line;
smooth = 1;
x = 47;
y = 640;
},
{
smooth = 0;
x = 79;
y = 640;
},
{
smooth = 0;
x = 90;
y = 625;
},
{
segmentType = curve;
smooth = 1;
x = 90;
y = 597;
},
{
segmentType = line;
smooth = 1;
x = 90;
y = 68;
},
{
smooth = 0;
x = 90;
y = 44;
},
{
smooth = 0;
x = 80;
y = 30;
},
{
segmentType = curve;
smooth = 1;
x = 53;
y = 30;
},
{
segmentType = line;
smooth = 0;
x = 6;
y = 30;
},
{
segmentType = line;
smooth = 0;
x = 6;
y = 0;
},
{
segmentType = line;
smooth = 0;
x = 260;
y = 0;
},
{
segmentType = line;
smooth = 0;
x = 260;
y = 30;
},
{
segmentType = line;
smooth = 1;
x = 230;
y = 30;
},
{
smooth = 0;
x = 200;
y = 30;
},
{
smooth = 0;
x = 190;
y = 44;
},
{
segmentType = curve;
smooth = 1;
x = 190;
y = 68;
}
);
}
);
lib = {
};
name = l;
unicodes = (
);
width = 285;
};
};
};
},
{
glyphname = m;
kernLeft = m;
kernRight = a;
lastChange = "2018-07-13 09:52:20 +0000";
layers = (
{
background = {
shapes = (
{
closed = 1;
nodes = (
(783,-10,o),
(840,28,o),
(897,130,c),
(869,145,l),
(825,65,o),
(782,32,o),
(742,32,cs),
(710,32,o),
(686,56,o),
(686,118,cs),
(686,328,ls),
(686,404,o),
(646,450,o),
(552,450,cs),
(487,450,o),
(417,417,o),
(417,306,c),
(438,328,l),
(438,404,o),
(398,450,o),
(305,450,cs),
(240,450,o),
(171,417,o),
(171,306,c),
(186,306,l),
(186,440,l),
(-5,440,l),
(-5,410,l),
(47,410,ls),
(79,410,o),
(90,395,o),
(90,367,cs),
(90,0,ls),
(190,0,l),
(190,281,ls),
(190,364,o),
(220,412,o),
(273,412,cs),
(318,412,o),
(338,384,o),
(338,327,c),
(338,0,ls),
(438,0,l),
(438,281,ls),
(438,364,o),
(468,412,o),
(521,412,cs),
(566,412,o),
(586,384,o),
(586,327,cs),
(586,120,ls),
(586,57,o),
(609,-10,o),
(712,-10,cs)
);
}
);
};
layerId = "ADE64B87-3839-4AD4-BD35-A3CFF79840FC";
shapes = (
{
closed = 1;
nodes = (
(130,0,l),
(130,30,l),
(118,30,ls),
(103,30,o),
(98,44,o),
(98,68,cs),
(98,280,ls),
(98,365,o),
(116,414,o),
(145,414,cs),
(174,414,o),
(184,383,o),
(184,314,cs),
(184,68,ls),
(184,44,o),
(179,30,o),
(165,30,cs),
(151,30,l),
(151,0,l),
(266,0,l),
(266,30,l),
(255,30,ls),
(240,30,o),
(234,44,o),
(234,68,cs),
(234,280,ls),
(234,365,o),
(252,414,o),
(281,414,cs),
(310,414,o),
(320,383,o),
(320,321,cs),
(320,68,l),
(320,30,l),
(320,30,l),
(320,0,l),
(412,0,l),
(412,30,l),
(391,30,ls),
(376,30,o),
(370,44,o),
(370,68,cs),
(370,318,ls),
(370,401,o),
(348,450,o),
(295,450,cs),
(260,450,o),
(223,415,o),
(223,306,c),
(231,316,l),
(231,400,o),
(210,450,o),
(160,450,cs),
(124,450,o),
(89,419,o),
(89,307,c),
(95,307,l),
(95,440,l),
(5,440,l),
(5,410,l),
(26,410,ls),
(42,410,o),
(48,395,o),
(48,367,cs),
(48,68,ls),
(48,44,o),
(43,30,o),
(29,30,cs),
(5,30,l),
(5,0,l)
);
}
);
width = 415;
},
{
background = {
shapes = (
{
closed = 1;
nodes = (
(783,-10,o),
(840,28,o),
(897,130,c),
(869,145,l),
(825,65,o),
(782,32,o),
(742,32,cs),
(710,32,o),
(686,56,o),
(686,118,cs),
(686,328,ls),
(686,404,o),
(646,450,o),
(552,450,cs),
(487,450,o),
(417,417,o),
(417,306,c),
(438,328,l),
(438,404,o),
(398,450,o),
(305,450,cs),
(240,450,o),
(171,417,o),
(171,306,c),
(186,306,l),
(186,440,l),
(-5,440,l),
(-5,410,l),
(47,410,ls),
(79,410,o),
(90,395,o),
(90,367,cs),
(90,0,ls),
(190,0,l),
(190,281,ls),
(190,364,o),
(220,412,o),
(273,412,cs),
(318,412,o),
(338,384,o),
(338,327,c),
(338,0,ls),
(438,0,l),
(438,281,ls),
(438,364,o),
(468,412,o),
(521,412,cs),
(566,412,o),
(586,384,o),
(586,327,cs),
(586,120,ls),
(586,57,o),
(609,-10,o),
(712,-10,cs)
);
}
);
};
layerId = "484F8FD9-52EC-47CF-91D8-DA5450121283";
shapes = (
{
closed = 1;
nodes = (
(260,0,l),
(260,30,l),
(235,30,ls),
(205,30,o),
(195,44,o),
(195,68,cs),
(195,280,ls),
(195,365,o),
(232,414,o),
(290,414,cs),
(348,414,o),
(367,383,o),
(367,314,cs),
(367,68,ls),
(367,44,o),
(357,30,o),
(330,30,cs),
(302,30,l),
(302,0,l),
(532,0,l),
(532,30,l),
(510,30,ls),
(479,30,o),
(467,44,o),
(467,68,cs),
(467,280,ls),
(467,365,o),
(504,414,o),
(562,414,cs),
(620,414,o),
(639,383,o),
(639,321,cs),
(639,68,l),
(639,30,l),
(639,30,l),
(639,0,l),
(824,0,l),
(824,30,l),
(782,30,ls),
(751,30,o),
(739,44,o),
(739,68,cs),
(739,318,ls),
(739,401,o),
(695,450,o),
(590,450,cs),
(519,450,o),
(445,415,o),
(445,306,c),
(461,316,l),
(461,400,o),
(419,450,o),
(319,450,cs),
(248,450,o),
(177,419,o),
(177,307,c),
(189,307,l),
(189,440,l),
(10,440,l),
(10,410,l),
(52,410,ls),
(84,410,o),
(95,395,o),
(95,367,cs),
(95,68,ls),
(95,44,o),
(85,30,o),
(58,30,cs),
(10,30,l),
(10,0,l)
);
}
);
width = 829;
},
{
background = {
shapes = (
{
closed = 1;
nodes = (
(783,-10,o),
(840,28,o),
(897,130,c),
(869,145,l),
(825,65,o),
(782,32,o),
(742,32,cs),
(710,32,o),
(686,56,o),
(686,118,cs),
(686,328,ls),
(686,404,o),
(646,450,o),
(552,450,cs),
(487,450,o),
(417,417,o),
(417,306,c),
(438,328,l),
(438,404,o),
(398,450,o),
(305,450,cs),
(240,450,o),
(171,417,o),
(171,306,c),
(186,306,l),
(186,440,l),
(-5,440,l),
(-5,410,l),
(47,410,ls),
(79,410,o),
(90,395,o),
(90,367,cs),
(90,0,ls),
(190,0,l),
(190,281,ls),
(190,364,o),
(220,412,o),
(273,412,cs),
(318,412,o),
(338,384,o),
(338,327,c),
(338,0,ls),
(438,0,l),
(438,281,ls),
(438,364,o),
(468,412,o),
(521,412,cs),
(566,412,o),
(586,384,o),
(586,327,cs),
(586,120,ls),
(586,57,o),
(609,-10,o),
(712,-10,cs)
);
}
);
};
layerId = "28D540C6-4B1C-4739-9DB3-C8E6E4DDF73A";
shapes = (
{
closed = 1;
nodes = (
(520,0,l),
(520,30,l),
(470,30,ls),
(410,30,o),
(390,44,o),
(390,68,cs),
(390,280,ls),
(390,365,o),
(464,414,o),
(580,414,cs),
(696,414,o),
(734,383,o),
(734,314,cs),
(734,68,ls),
(734,44,o),
(714,30,o),
(660,30,cs),
(604,30,l),
(604,0,l),
(1064,0,l),
(1064,30,l),
(1020,30,ls),
(958,30,o),
(934,44,o),
(934,68,cs),
(934,280,ls),
(934,365,o),
(1008,414,o),
(1124,414,cs),
(1240,414,o),
(1278,383,o),
(1278,321,cs),
(1278,68,l),
(1278,30,l),
(1278,30,l),
(1278,0,l),
(1648,0,l),
(1648,30,l),
(1564,30,ls),
(1502,30,o),
(1478,44,o),
(1478,68,cs),
(1478,318,ls),
(1478,401,o),
(1390,450,o),
(1180,450,cs),
(1038,450,o),
(890,415,o),
(890,306,c),
(922,316,l),
(922,400,o),
(838,450,o),
(638,450,cs),
(496,450,o),
(354,419,o),
(354,307,c),
(378,307,l),
(378,440,l),
(20,440,l),
(20,410,l),
(104,410,ls),
(168,410,o),
(190,395,o),
(190,367,cs),
(190,68,ls),
(190,44,o),
(170,30,o),
(116,30,cs),
(20,30,l),
(20,0,l)
);
}
);
width = 1658;
}
);
unicode = 109;
userData = {
com.typemytype.robofont.guides = (
{
angle = 0;
isGlobal = 0;
magnetic = 5;
x = 260;
y = 291;
}
);
com.typemytype.robofont.layerData = {
background = {
anchors = (
);
components = (
);
contours = (
{
points = (
{
segmentType = line;
smooth = 0;
x = 302;
y = 0;
},
{
segmentType = line;
smooth = 0;
x = 532;
y = 0;
},
{
segmentType = line;
smooth = 0;
x = 532;
y = 30;
},
{
segmentType = line;
smooth = 1;
x = 510;
y = 30;
},
{
smooth = 0;
x = 479;
y = 30;
},
{
smooth = 0;
x = 467;
y = 44;
},
{
segmentType = curve;
smooth = 1;
x = 467;
y = 68;
},
{
segmentType = line;
smooth = 1;
x = 467;
y = 314;
},
{
smooth = 0;
x = 467;
y = 390;
},
{
smooth = 0;
x = 501;
y = 422;
},
{
segmentType = curve;
smooth = 1;
x = 555;
y = 422;
},
{
smooth = 0;
x = 614;
y = 422;
},
{
smooth = 0;
x = 639;
y = 391;
},
{
segmentType = curve;
smooth = 1;
x = 639;
y = 337;
},
{
segmentType = line;
smooth = 0;
x = 639;
y = 0;
},
{
segmentType = line;
smooth = 0;
x = 824;
y = 0;
},
{
segmentType = line;
smooth = 0;
x = 824;
y = 30;
},
{
segmentType = line;
smooth = 1;
x = 782;
y = 30;
},
{
smooth = 0;
x = 751;
y = 30;
},
{
smooth = 0;
x = 739;
y = 44;
},
{
segmentType = curve;
smooth = 1;
x = 739;
y = 68;
},
{
segmentType = line;
smooth = 1;
x = 739;
y = 335;
},
{
smooth = 0;
x = 739;
y = 409;
},
{
smooth = 0;
x = 695;
y = 458;
},
{
segmentType = curve;
smooth = 1;
x = 588;
y = 458;
},
{
smooth = 0;
x = 511;
y = 458;
},
{
smooth = 0;
x = 443;
y = 421;
},
{
segmentType = curve;
smooth = 0;
x = 443;
y = 328;
},
{
segmentType = line;
smooth = 0;
x = 458;
y = 328;
},
{
smooth = 0;
x = 458;
y = 409;
},
{
smooth = 0;
x = 423;
y = 458;
},
{
segmentType = curve;
smooth = 1;
x = 315;
y = 458;
},
{
smooth = 0;
x = 243;
y = 458;
},
{
smooth = 0;
x = 176;
y = 428;
},
{
segmentType = curve;
smooth = 0;
x = 176;
y = 317;
},
{
segmentType = line;
smooth = 0;
x = 189;
y = 317;
},
{
segmentType = line;
smooth = 0;
x = 189;
y = 440;
},
{
segmentType = line;
smooth = 0;
x = 10;
y = 440;
},
{
segmentType = line;
smooth = 0;
x = 10;
y = 410;
},
{
segmentType = line;
smooth = 1;
x = 52;
y = 410;
},
{
smooth = 0;
x = 84;
y = 410;
},
{
smooth = 0;
x = 95;
y = 395;
},
{
segmentType = curve;
smooth = 1;
x = 95;
y = 367;
},
{
segmentType = line;
smooth = 1;
x = 95;
y = 68;
},
{
smooth = 0;
x = 95;
y = 44;
},
{
smooth = 0;
x = 85;
y = 30;
},
{
segmentType = curve;
smooth = 1;
x = 58;
y = 30;
},
{
segmentType = line;
smooth = 0;
x = 10;
y = 30;
},
{
segmentType = line;
smooth = 0;
x = 10;
y = 0;
},
{
segmentType = line;
smooth = 0;
x = 260;
y = 0;
},
{
segmentType = line;
smooth = 0;
x = 260;
y = 30;
},
{
segmentType = line;
smooth = 1;
x = 235;
y = 30;
},
{
smooth = 0;
x = 205;
y = 30;
},
{
smooth = 0;
x = 195;
y = 44;
},
{
segmentType = curve;
smooth = 1;
x = 195;
y = 68;
},
{
segmentType = line;
smooth = 1;
x = 195;
y = 291;
},
{
smooth = 0;
x = 195;
y = 383;
},
{
smooth = 0;
x = 229;
y = 422;
},
{
segmentType = curve;
smooth = 1;
x = 286;
y = 422;
},
{
smooth = 0;
x = 349;
y = 422;
},
{
smooth = 0;
x = 367;
y = 391;
},
{
segmentType = curve;
smooth = 1;
x = 367;
y = 327;
},
{
segmentType = line;
smooth = 1;
x = 367;
y = 68;
},
{
smooth = 0;
x = 367;
y = 44;
},
{
smooth = 0;
x = 357;
y = 30;
},
{
segmentType = curve;
smooth = 1;
x = 330;
y = 30;
},
{
segmentType = line;
smooth = 0;
x = 302;
y = 30;
}
);
}
);
lib = {
};
name = m;
unicodes = (
);
width = 829;
};
};
com.typemytype.robofont.mark = (
0.9366,
0.9212,
0.4821,
1
);
};
},
{
glyphname = n;
kernLeft = m;
kernRight = a;
lastChange = "2025-02-16 17:18:36 +0000";
layers = (
{
background = {
shapes = (
{
closed = 1;
nodes = (
(140,0,l),
(140,30,l),
(118,30,ls),
(103,30,o),
(98,44,o),
(98,68,cs),
(98,266,ls),
(98,365,o),
(116,414,o),
(145,414,cs),
(174,414,o),
(184,383,o),
(184,314,cs),
(184,68,l),
(184,30,l),
(184,30,l),
(184,0,l),
(276,0,l),
(276,30,l),
(255,30,ls),
(240,30,o),
(234,44,o),
(234,68,cs),
(234,316,ls),
(234,400,o),
(212,450,o),
(160,450,cs),
(124,450,o),
(88,418,o),
(88,306,c),
(95,306,l),
(95,440,l),
(5,440,l),
(5,410,l),
(26,410,ls),
(42,410,o),
(48,395,o),
(48,367,cs),
(48,68,ls),
(48,44,o),
(43,30,o),
(29,30,cs),
(5,30,l),
(5,0,l)
);
}
);
};
color = 4;
layerId = "ADE64B87-3839-4AD4-BD35-A3CFF79840FC";
shapes = (
{
closed = 1;
nodes = (
(135,0,l),
(135,24,l),
(103,24,ls),
(91,24,o),
(88,30,o),
(88,40,cs),
(88,337,ls),
(88,394,o),
(114,423,o),
(147,423,cs),
(179,423,o),
(192,403,o),
(192,364,cs),
(192,40,l),
(192,24,l),
(192,24,l),
(192,0,l),
(272,0,l),
(272,24,l),
(240,24,ls),
(229,24,o),
(224,30,o),
(224,40,cs),
(224,367,ls),
(224,416,o),
(204,450,o),
(158,450,cs),
(111,450,o),
(71,418,o),
(71,306,c),
(86,385,l),
(86,440,l),
(8,440,l),
(8,416,l),
(40,416,ls),
(52,416,o),
(56,409,o),
(56,400,cs),
(56,40,ls),
(56,30,o),
(53,24,o),
(40,24,cs),
(8,24,l),
(8,0,l)
);
}
);
width = 280;
},
{
background = {
shapes = (
{
closed = 1;
nodes = (
(280,0,l),
(280,30,l),
(235,30,ls),
(205,30,o),
(195,44,o),
(195,68,cs),
(195,266,ls),
(195,365,o),
(232,414,o),
(290,414,cs),
(348,414,o),
(367,383,o),
(367,314,cs),
(367,68,l),
(367,30,l),
(367,30,l),
(367,0,l),
(552,0,l),
(552,30,l),
(510,30,ls),
(479,30,o),
(467,44,o),
(467,68,cs),
(467,316,ls),
(467,400,o),
(423,450,o),
(319,450,cs),
(248,450,o),
(176,418,o),
(176,306,c),
(189,306,l),
(189,440,l),
(10,440,l),
(10,410,l),
(52,410,ls),
(84,410,o),
(95,395,o),
(95,367,cs),
(95,68,ls),
(95,44,o),
(85,30,o),
(58,30,cs),
(10,30,l),
(10,0,l)
);
}
);
};
hints = (
{
name = _corner.serif.lc;
origin = (0,20);
type = Corner;
},
{
name = _corner.serif.lc;
origin = (0,9);
scale = (1,-1);
type = Corner;
},
{
name = _corner.serif.lc;
origin = (0,19);
scale = (1,-1);
type = Corner;
},
{
name = _corner.serif.lc;
origin = (0,0);
scale = (1,-1);
type = Corner;
}
);
layerId = "484F8FD9-52EC-47CF-91D8-DA5450121283";
shapes = (
{
closed = 1;
nodes = (
(195,0,l),
(195,266,ls),
(195,365,o),
(232,414,o),
(290,414,cs),
(348,414,o),
(367,383,o),
(367,314,cs),
(367,0,l),
(467,0,l),
(467,316,ls),
(467,400,o),
(423,450,o),
(319,450,cs),
(248,450,o),
(176,418,o),
(176,306,c),
(189,306,l),
(189,440,l),
(95,440,l),
(95,0,l)
);
}
);
width = 557;
},
{
background = {
shapes = (
{
closed = 1;
nodes = (
(535,-10,o),
(592,28,o),
(649,130,c),
(621,145,l),
(577,65,o),
(534,32,o),
(494,32,cs),
(462,32,o),
(438,56,o),
(438,118,cs),
(438,328,ls),
(438,404,o),
(398,450,o),
(305,450,cs),
(240,450,o),
(171,417,o),
(171,306,c),
(186,306,l),
(186,440,l),
(-5,440,l),
(-5,410,l),
(47,410,ls),
(79,410,o),
(90,395,o),
(90,367,cs),
(90,0,ls),
(190,0,l),
(190,281,ls),
(190,364,o),
(220,412,o),
(273,412,cs),
(318,412,o),
(338,384,o),
(338,327,cs),
(338,120,ls),
(338,57,o),
(361,-10,o),
(464,-10,cs)
);
}
);
};
layerId = "28D540C6-4B1C-4739-9DB3-C8E6E4DDF73A";
shapes = (
{
closed = 1;
nodes = (
(560,0,l),
(560,30,l),
(470,30,ls),
(410,30,o),
(390,44,o),
(390,68,cs),
(390,266,ls),
(390,365,o),
(464,414,o),
(580,414,cs),
(696,414,o),
(734,383,o),
(734,314,cs),
(734,68,l),
(734,30,l),
(734,30,l),
(734,0,l),
(1104,0,l),
(1104,30,l),
(1020,30,ls),
(958,30,o),
(934,44,o),
(934,68,cs),
(934,316,ls),
(934,400,o),
(846,450,o),
(638,450,cs),
(496,450,o),
(352,418,o),
(352,306,c),
(378,306,l),
(378,440,l),
(20,440,l),
(20,410,l),
(104,410,ls),
(168,410,o),
(190,395,o),
(190,367,cs),
(190,68,ls),
(190,44,o),
(170,30,o),
(116,30,cs),
(20,30,l),
(20,0,l)
);
}
);
width = 1114;
}
);
unicode = 110;
userData = {
com.typemytype.robofont.guides = (
);
com.typemytype.robofont.layerData = {
background = {
anchors = (
);
components = (
);
contours = (
{
points = (
{
segmentType = line;
smooth = 0;
x = 195;
y = 0;
},
{
segmentType = line;
smooth = 1;
x = 195;
y = 281;
},
{
smooth = 0;
x = 195;
y = 364;
},
{
smooth = 0;
x = 225;
y = 412;
},
{
segmentType = curve;
smooth = 1;
x = 278;
y = 412;
},
{
smooth = 0;
x = 323;
y = 412;
},
{
smooth = 0;
x = 343;
y = 384;
},
{
segmentType = curve;
smooth = 1;
x = 343;
y = 327;
},
{
segmentType = line;
smooth = 1;
x = 343;
y = 120;
},
{
smooth = 0;
x = 343;
y = 57;
},
{
smooth = 0;
x = 366;
y = -10;
},
{
segmentType = curve;
smooth = 1;
x = 469;
y = -10;
},
{
smooth = 0;
x = 540;
y = -10;
},
{
smooth = 0;
x = 597;
y = 28;
},
{
segmentType = curve;
smooth = 0;
x = 654;
y = 130;
},
{
segmentType = line;
smooth = 0;
x = 626;
y = 145;
},
{
smooth = 0;
x = 582;
y = 65;
},
{
smooth = 0;
x = 539;
y = 32;
},
{
segmentType = curve;
smooth = 1;
x = 499;
y = 32;
},
{
smooth = 0;
x = 467;
y = 32;
},
{
smooth = 0;
x = 443;
y = 56;
},
{
segmentType = curve;
smooth = 1;
x = 443;
y = 118;
},
{
segmentType = line;
smooth = 1;
x = 443;
y = 328;
},
{
smooth = 0;
x = 443;
y = 404;
},
{
smooth = 0;
x = 403;
y = 450;
},
{
segmentType = curve;
smooth = 1;
x = 310;
y = 450;
},
{
smooth = 0;
x = 245;
y = 450;
},
{
smooth = 0;
x = 176;
y = 417;
},
{
segmentType = curve;
smooth = 0;
x = 176;
y = 306;
},
{
segmentType = line;
smooth = 0;
x = 191;
y = 306;
},
{
segmentType = line;
smooth = 0;
x = 191;
y = 440;
},
{
segmentType = line;
smooth = 0;
x = 0;
y = 440;
},
{
segmentType = line;
smooth = 0;
x = 0;
y = 410;
},
{
segmentType = line;
smooth = 1;
x = 52;
y = 410;
},
{
smooth = 0;
x = 84;
y = 410;
},
{
smooth = 0;
x = 95;
y = 395;
},
{
segmentType = curve;
smooth = 1;
x = 95;
y = 367;
},
{
segmentType = line;
smooth = 1;
x = 95;
y = 0;
}
);
}
);
lib = {
};
name = n;
unicodes = (
);
width = 557;
};
};
com.typemytype.robofont.mark = (
0.9366,
0.9212,
0.4821,
1
);
};
},
{
glyphname = o;
kernLeft = c;
kernRight = b;
lastChange = "2019-11-10 16:30:15 +0000";
layers = (
{
anchors = (
{
name = bottom;
pos = (140,0);
},
{
name = center;
pos = (140,220);
},
{
name = ogonek;
pos = (244,10);
},
{
name = top;
pos = (140,440);
},
{
name = topright;
pos = (260,440);
}
);
background = {
shapes = (
{
closed = 1;
nodes = (
(70,452,o),
(46,365,o),
(46,220,cs),
(46,74,o),
(70,-12,o),
(140,-12,cs),
(210,-12,o),
(234,74,o),
(234,220,cs),
(234,366,o),
(210,452,o),
(140,452,cs)
);
},
{
closed = 1;
nodes = (
(188,422,o),
(204,353,o),
(204,220,cs),
(204,88,o),
(188,18,o),
(140,18,cs),
(92,18,o),
(76,88,o),
(76,220,cs),
(76,353,o),
(92,422,o),
(140,422,cs)
);
}
);
};
color = 4;
layerId = "ADE64B87-3839-4AD4-BD35-A3CFF79840FC";
shapes = (
{
closed = 1;
nodes = (
(214,-12,o),
(236,80,o),
(236,220,cs),
(236,360,o),
(215,452,o),
(141,452,cs),
(65,452,o),
(44,360,o),
(44,220,cs),
(44,80,o),
(69,-12,o),
(139,-12,cs)
);
},
{
closed = 1;
nodes = (
(93,16,o),
(80,87,o),
(80,220,cs),
(80,353,o),
(93,424,o),
(139,424,cs),
(187,424,o),
(200,355,o),
(200,220,cs),
(200,85,o),
(187,16,o),
(141,16,cs)
);
}
);
width = 280;
},
{
anchors = (
{
name = bottom;
pos = (260,0);
},
{
name = center;
pos = (260,220);
},
{
name = ogonek;
pos = (468,10);
},
{
name = top;
pos = (260,440);
},
{
name = topright;
pos = (500,440);
}
);
layerId = "484F8FD9-52EC-47CF-91D8-DA5450121283";
shapes = (
{
closed = 1;
nodes = (
(392,-12,o),
(470,74,o),
(470,220,cs),
(470,366,o),
(392,452,o),
(260,452,cs),
(128,452,o),
(50,366,o),
(50,220,cs),
(50,74,o),
(128,-12,o),
(260,-12,cs)
);
},
{
closed = 1;
nodes = (
(180,18,o),
(155,88,o),
(155,220,cs),
(155,353,o),
(180,422,o),
(260,422,cs),
(340,422,o),
(365,353,o),
(365,220,cs),
(365,88,o),
(340,18,o),
(260,18,cs)
);
}
);
width = 520;
},
{
anchors = (
{
name = bottom;
pos = (520,0);
},
{
name = center;
pos = (520,220);
},
{
name = ogonek;
pos = (936,10);
},
{
name = top;
pos = (520,440);
},
{
name = topright;
pos = (1000,440);
}
);
layerId = "28D540C6-4B1C-4739-9DB3-C8E6E4DDF73A";
shapes = (
{
closed = 1;
nodes = (
(784,-12,o),
(940,74,o),
(940,220,cs),
(940,366,o),
(784,452,o),
(520,452,cs),
(256,452,o),
(100,366,o),
(100,220,cs),
(100,74,o),
(256,-12,o),
(520,-12,cs)
);
},
{
closed = 1;
nodes = (
(360,18,o),
(310,88,o),
(310,220,cs),
(310,353,o),
(360,422,o),
(520,422,cs),
(680,422,o),
(730,353,o),
(730,220,cs),
(730,88,o),
(680,18,o),
(520,18,cs)
);
}
);
width = 1040;
}
);
unicode = 111;
userData = {
com.typemytype.robofont.layerData = {
background = {
anchors = (
);
components = (
);
contours = (
);
lib = {
};
name = o;
unicodes = (
);
width = 520;
};
};
com.typemytype.robofont.mark = (
0.4827,
0.8546,
0.4678,
1
);
};
},
{
glyphname = p;
kernRight = b;
lastChange = "2019-11-10 16:33:55 +0000";
layers = (
{
background = {
shapes = (
{
closed = 0;
nodes = (
(236,218,ls),
(236,360,o),
(219,450,o),
(151,450,cs),
(104,450,o),
(76,401,o),
(76,306,c),
(88,380,l)
);
},
{
closed = 0;
nodes = (
(88,218,ls),
(88,353,o),
(105,422,o),
(149,422,cs),
(193,422,o),
(200,353,o),
(200,218,cs)
);
}
);
};
color = 4;
layerId = "ADE64B87-3839-4AD4-BD35-A3CFF79840FC";
shapes = (
{
closed = 1;
nodes = (
(146,-275,l),
(146,-251,l),
(103,-251,ls),
(91,-251,o),
(88,-245,o),
(88,-235,cs),
(88,132,l),
(76,132,l),
(76,37,o),
(104,-12,o),
(151,-12,cs),
(219,-12,o),
(236,78,o),
(236,220,cs),
(236,360,o),
(219,450,o),
(151,450,cs),
(104,450,o),
(76,401,o),
(76,306,c),
(86,306,l),
(86,440,l),
(8,440,l),
(8,416,l),
(40,416,ls),
(52,416,o),
(56,409,o),
(56,400,cs),
(56,-235,ls),
(56,-245,o),
(53,-251,o),
(40,-251,cs),
(8,-251,l),
(8,-275,l)
);
},
{
closed = 1;
nodes = (
(105,16,o),
(88,85,o),
(88,220,cs),
(88,353,o),
(105,422,o),
(149,422,cs),
(193,422,o),
(200,353,o),
(200,220,cs),
(200,85,o),
(193,16,o),
(149,16,cs)
);
}
);
width = 280;
},
{
background = {
shapes = (
{
closed = 1;
nodes = (
(280,-275,l),
(280,-245,l),
(232,-245,ls),
(205,-245,o),
(195,-231,o),
(195,-207,cs),
(195,81,l),
(178,219,l),
(187,306,l),
(187,440,l),
(4,440,l),
(4,410,l),
(52,410,ls),
(84,410,o),
(95,395,o),
(95,367,cs),
(95,-207,ls),
(95,-231,o),
(85,-245,o),
(55,-245,cs),
(10,-245,l),
(10,-275,l)
);
},
{
closed = 1;
nodes = (
(236,18,o),
(192,73.893,o),
(192,220,cs),
(192,364.66,o),
(236,420,o),
(295,420,cs),
(354,420,o),
(390,364.66,o),
(390,220,cs),
(390,73.893,o),
(354,18,o),
(295,18,cs)
);
},
{
closed = 1;
nodes = (
(420,-14,o),
(495,67.605,o),
(495,220,cs),
(495,371.092,o),
(420,452,o),
(315,452,cs),
(210,452,o),
(167,395.462,o),
(167,220,cs),
(167,43.025,o),
(210,-14,o),
(315,-14,cs)
);
}
);
};
layerId = "484F8FD9-52EC-47CF-91D8-DA5450121283";
shapes = (
{
closed = 1;
nodes = (
(280,-275,l),
(280,-245,l),
(232,-245,ls),
(205,-245,o),
(195,-231,o),
(195,-207,cs),
(195,81,l),
(182,81,l),
(203,11,o),
(245,-14,o),
(315,-14,cs),
(420,-14,o),
(495,68,o),
(495,220,cs),
(495,371,o),
(420,452,o),
(315,452,cs),
(229,452,o),
(185,414,o),
(171,305,c),
(187,305,l),
(187,440,l),
(4,440,l),
(4,410,l),
(52,410,ls),
(84,410,o),
(95,395,o),
(95,367,cs),
(95,-207,ls),
(95,-231,o),
(85,-245,o),
(55,-245,cs),
(10,-245,l),
(10,-275,l)
);
},
{
closed = 1;
nodes = (
(236,18,o),
(192,73.893,o),
(192,220,cs),
(192,364.66,o),
(236,420,o),
(295,420,cs),
(354,420,o),
(390,364.66,o),
(390,220,cs),
(390,73.893,o),
(354,18,o),
(295,18,cs)
);
}
);
width = 545;
},
{
background = {
shapes = (
{
closed = 1;
nodes = (
(190,-265,ls),
(190,81,l),
(173,219,l),
(184,306,l),
(184,440,l),
(-11,440,l),
(-11,410,l),
(47,410,ls),
(79,410,o),
(90,395,o),
(90,367,cs),
(90,-265,l)
);
},
{
closed = 1;
nodes = (
(237,26,o),
(187,60,o),
(187,220,cs),
(187,380,o),
(237,414,o),
(290,414,cs),
(349,414,o),
(385,361,o),
(385,220,cs),
(385,79,o),
(349,26,o),
(290,26,cs)
);
},
{
closed = 1;
nodes = (
(415,-8,o),
(490,72,o),
(490,220,cs),
(490,368,o),
(415,448,o),
(310,448,cs),
(206,448,o),
(162,388,o),
(162,220,cs),
(162,45,o),
(206,-8,o),
(310,-8,cs)
);
}
);
};
layerId = "28D540C6-4B1C-4739-9DB3-C8E6E4DDF73A";
shapes = (
{
closed = 1;
nodes = (
(560,-275,l),
(560,-245,l),
(464,-245,ls),
(410,-245,o),
(390,-231,o),
(390,-207,cs),
(390,81,l),
(364,81,l),
(406,11,o),
(490,-14,o),
(630,-14,cs),
(840,-14,o),
(990,68,o),
(990,220,cs),
(990,371,o),
(840,452,o),
(630,452,cs),
(458,452,o),
(370,414,o),
(342,305,c),
(374,305,l),
(374,440,l),
(8,440,l),
(8,410,l),
(104,410,ls),
(168,410,o),
(190,395,o),
(190,367,cs),
(190,-207,ls),
(190,-231,o),
(170,-245,o),
(110,-245,cs),
(20,-245,l),
(20,-275,l)
);
},
{
closed = 1;
nodes = (
(472,18,o),
(384,74,o),
(384,220,cs),
(384,365,o),
(472,420,o),
(590,420,cs),
(708,420,o),
(780,365,o),
(780,220,cs),
(780,74,o),
(708,18,o),
(590,18,cs)
);
}
);
width = 1090;
}
);
metricLeft = n;
unicode = 112;
userData = {
com.typemytype.robofont.guides = (
);
com.typemytype.robofont.layerData = {
background = {
anchors = (
);
components = (
);
contours = (
);
lib = {
};
name = l;
unicodes = (
);
width = 545;
};
};
com.typemytype.robofont.mark = (
0.9366,
0.9212,
0.4821,
1
);
};
},
{
glyphname = q;
kernLeft = c;
lastChange = "2018-07-13 09:52:20 +0000";
layers = (
{
background = {
shapes = (
{
closed = 1;
nodes = (
(450,-265,l),
(450,367,ls),
(450,395,o),
(461,410,o),
(493,410,cs),
(551,410,l),
(551,440,l),
(356,440,l),
(356,306,l),
(367,219,l),
(350,81,l),
(350,-265,ls)
);
},
{
closed = 1;
nodes = (
(334,-8,o),
(378,45,o),
(378,220,cs),
(378,388,o),
(334,448,o),
(230,448,cs),
(125,448,o),
(50,368,o),
(50,220,cs),
(50,72,o),
(125,-8,o),
(230,-8,cs)
);
},
{
closed = 1;
nodes = (
(191,26,o),
(155,79,o),
(155,220,cs),
(155,361,o),
(191,414,o),
(250,414,cs),
(303,414,o),
(353,380,o),
(353,220,cs),
(353,60,o),
(303,26,o),
(250,26,cs)
);
}
);
};
layerId = "ADE64B87-3839-4AD4-BD35-A3CFF79840FC";
shapes = (
{
closed = 1;
nodes = (
(268,-275,l),
(268,-245,l),
(245,-245,ls),
(230,-245,o),
(225,-231,o),
(225,-207,cs),
(225,367,ls),
(225,395,o),
(231,410,o),
(247,410,cs),
(271,410,l),
(271,440,l),
(179,440,l),
(179,306,l),
(184,219,l),
(175,81,l),
(175,-207,ls),
(175,-231,o),
(170,-245,o),
(157,-245,cs),
(133,-245,l),
(133,-275,l)
);
},
{
closed = 1;
nodes = (
(96,18,o),
(78,74,o),
(78,220,cs),
(78,365,o),
(96,420,o),
(125,420,cs),
(155,420,o),
(177,365,o),
(177,220,cs),
(177,74,o),
(155,18,o),
(125,18,cs)
);
},
{
closed = 1;
nodes = (
(168,-14,o),
(189,43,o),
(189,220,cs),
(189,395,o),
(168,452,o),
(115,452,cs),
(63,452,o),
(25,371,o),
(25,220,cs),
(25,68,o),
(63,-14,o),
(115,-14,cs)
);
}
);
width = 273;
},
{
background = {
shapes = (
{
closed = 1;
nodes = (
(450,-265,l),
(450,367,ls),
(450,395,o),
(461,410,o),
(493,410,cs),
(551,410,l),
(551,440,l),
(356,440,l),
(356,306,l),
(367,219,l),
(350,81,l),
(350,-265,ls)
);
},
{
closed = 1;
nodes = (
(334,-8,o),
(378,45,o),
(378,220,cs),
(378,388,o),
(334,448,o),
(230,448,cs),
(125,448,o),
(50,368,o),
(50,220,cs),
(50,72,o),
(125,-8,o),
(230,-8,cs)
);
},
{
closed = 1;
nodes = (
(191,26,o),
(155,79,o),
(155,220,cs),
(155,361,o),
(191,414,o),
(250,414,cs),
(303,414,o),
(353,380,o),
(353,220,cs),
(353,60,o),
(303,26,o),
(250,26,cs)
);
}
);
};
layerId = "484F8FD9-52EC-47CF-91D8-DA5450121283";
shapes = (
{
closed = 1;
nodes = (
(535,-275,l),
(535,-245,l),
(490,-245,ls),
(460,-245,o),
(450,-231,o),
(450,-207,cs),
(450,367,ls),
(450,395,o),
(461,410,o),
(493,410,cs),
(541,410,l),
(541,440,l),
(358,440,l),
(358,306,l),
(367,219,l),
(350,81,l),
(350,-207,ls),
(350,-231,o),
(340,-245,o),
(313,-245,cs),
(265,-245,l),
(265,-275,l)
);
},
{
closed = 1;
nodes = (
(191,18,o),
(155,73.893,o),
(155,220,cs),
(155,364.66,o),
(191,420,o),
(250,420,cs),
(309,420,o),
(353,364.66,o),
(353,220,cs),
(353,73.893,o),
(309,18,o),
(250,18,cs)
);
},
{
closed = 1;
nodes = (
(335,-14,o),
(378,43.025,o),
(378,220,cs),
(378,395.462,o),
(335,452,o),
(230,452,cs),
(125,452,o),
(50,371.092,o),
(50,220,cs),
(50,67.605,o),
(125,-14,o),
(230,-14,cs)
);
}
);
width = 545;
},
{
background = {
shapes = (
{
closed = 1;
nodes = (
(450,-265,l),
(450,367,ls),
(450,395,o),
(461,410,o),
(493,410,cs),
(551,410,l),
(551,440,l),
(356,440,l),
(356,306,l),
(367,219,l),
(350,81,l),
(350,-265,ls)
);
},
{
closed = 1;
nodes = (
(334,-8,o),
(378,45,o),
(378,220,cs),
(378,388,o),
(334,448,o),
(230,448,cs),
(125,448,o),
(50,368,o),
(50,220,cs),
(50,72,o),
(125,-8,o),
(230,-8,cs)
);
},
{
closed = 1;
nodes = (
(191,26,o),
(155,79,o),
(155,220,cs),
(155,361,o),
(191,414,o),
(250,414,cs),
(303,414,o),
(353,380,o),
(353,220,cs),
(353,60,o),
(303,26,o),
(250,26,cs)
);
}
);
};
layerId = "28D540C6-4B1C-4739-9DB3-C8E6E4DDF73A";
shapes = (
{
closed = 1;
nodes = (
(1070,-275,l),
(1070,-245,l),
(980,-245,ls),
(920,-245,o),
(900,-231,o),
(900,-207,cs),
(900,367,ls),
(900,395,o),
(922,410,o),
(986,410,cs),
(1082,410,l),
(1082,440,l),
(716,440,l),
(716,306,l),
(734,219,l),
(700,81,l),
(700,-207,ls),
(700,-231,o),
(680,-245,o),
(626,-245,cs),
(530,-245,l),
(530,-275,l)
);
},
{
closed = 1;
nodes = (
(382,18,o),
(310,74,o),
(310,220,cs),
(310,365,o),
(382,420,o),
(500,420,cs),
(618,420,o),
(706,365,o),
(706,220,cs),
(706,74,o),
(618,18,o),
(500,18,cs)
);
},
{
closed = 1;
nodes = (
(670,-14,o),
(756,43,o),
(756,220,cs),
(756,395,o),
(670,452,o),
(460,452,cs),
(250,452,o),
(100,371,o),
(100,220,cs),
(100,68,o),
(250,-14,o),
(460,-14,cs)
);
}
);
width = 1090;
}
);
unicode = 113;
userData = {
com.typemytype.robofont.guides = (
);
com.typemytype.robofont.layerData = {
background = {
anchors = (
);
components = (
);
contours = (
);
lib = {
};
name = l;
unicodes = (
);
width = 545;
};
};
com.typemytype.robofont.mark = (
0.9366,
0.9212,
0.4821,
1
);
};
},
{
glyphname = r;
kernLeft = m;
lastChange = "2018-07-13 09:52:20 +0000";
layers = (
{
background = {
shapes = (
{
closed = 1;
nodes = (
(190,0,ls),
(190,275,ls),
(190,369,o),
(228,411,o),
(282,411,cs),
(307,411,o),
(315,401,o),
(315,388,cs),
(315,372,o),
(302,360,o),
(302,335,cs),
(302,300,o),
(328,275,o),
(363,275,cs),
(401,275,o),
(430,303,o),
(430,353,cs),
(430,408,o),
(385,450,o),
(303,450,cs),
(240.477,450,o),
(172,410,o),
(172,306,c),
(186,306,l),
(186,440,l),
(-5,440,l),
(-5,410,l),
(47,410,ls),
(79,410,o),
(90,395,o),
(90,367,cs),
(90,0,l)
);
}
);
};
layerId = "ADE64B87-3839-4AD4-BD35-A3CFF79840FC";
shapes = (
{
closed = 1;
nodes = (
(140,0,l),
(140,30,l),
(118,30,ls),
(103,30,o),
(98,44,o),
(98,68,cs),
(98,260,ls),
(98,364,o),
(115,416,o),
(146,416,cs),
(159,416,o),
(164,406,o),
(164,395,cs),
(164,381,o),
(154,362,o),
(154,330,cs),
(154,299,o),
(166,277,o),
(183,277,cs),
(201,277,o),
(214,304,o),
(214,349,cs),
(214,407,o),
(191,452,o),
(153,452,cs),
(124,452,o),
(88,421,o),
(88,300,c),
(95,300,l),
(95,440,l),
(5,440,l),
(5,410,l),
(26,410,ls),
(42,410,o),
(48,395,o),
(48,367,cs),
(48,68,ls),
(48,44,o),
(43,30,o),
(29,30,cs),
(5,30,l),
(5,0,l)
);
}
);
width = 220;
},
{
background = {
shapes = (
{
closed = 1;
nodes = (
(190,0,ls),
(190,275,ls),
(190,369,o),
(228,411,o),
(282,411,cs),
(307,411,o),
(315,401,o),
(315,388,cs),
(315,372,o),
(302,360,o),
(302,335,cs),
(302,300,o),
(328,275,o),
(363,275,cs),
(401,275,o),
(430,303,o),
(430,353,cs),
(430,408,o),
(385,450,o),
(303,450,cs),
(240.477,450,o),
(172,410,o),
(172,306,c),
(186,306,l),
(186,440,l),
(-5,440,l),
(-5,410,l),
(47,410,ls),
(79,410,o),
(90,395,o),
(90,367,cs),
(90,0,l)
);
}
);
};
layerId = "484F8FD9-52EC-47CF-91D8-DA5450121283";
shapes = (
{
closed = 1;
nodes = (
(280,0,l),
(280,30,l),
(235,30,ls),
(205,30,o),
(195,44,o),
(195,68,cs),
(195,260,ls),
(195,364,o),
(229,416,o),
(291,416,cs),
(317,416,o),
(327,406,o),
(327,395,cs),
(327,381,o),
(307,362,o),
(307,330,cs),
(307,299,o),
(332,277,o),
(365,277,cs),
(401,277,o),
(428,304,o),
(428,349,cs),
(428,407,o),
(382,452,o),
(306,452,cs),
(248,452,o),
(176,421,o),
(176,300,c),
(189,300,l),
(189,440,l),
(10,440,l),
(10,410,l),
(52,410,ls),
(84,410,o),
(95,395,o),
(95,367,cs),
(95,68,ls),
(95,44,o),
(85,30,o),
(58,30,cs),
(10,30,l),
(10,0,l)
);
}
);
width = 440;
},
{
background = {
shapes = (
{
closed = 1;
nodes = (
(190,0,ls),
(190,275,ls),
(190,369,o),
(228,411,o),
(282,411,cs),
(307,411,o),
(315,401,o),
(315,388,cs),
(315,372,o),
(302,360,o),
(302,335,cs),
(302,300,o),
(328,275,o),
(363,275,cs),
(401,275,o),
(430,303,o),
(430,353,cs),
(430,408,o),
(385,450,o),
(303,450,cs),
(240.477,450,o),
(172,410,o),
(172,306,c),
(186,306,l),
(186,440,l),
(-5,440,l),
(-5,410,l),
(47,410,ls),
(79,410,o),
(90,395,o),
(90,367,cs),
(90,0,l)
);
}
);
};
layerId = "28D540C6-4B1C-4739-9DB3-C8E6E4DDF73A";
shapes = (
{
closed = 1;
nodes = (
(560,0,l),
(560,30,l),
(470,30,ls),
(410,30,o),
(390,44,o),
(390,68,cs),
(390,260,ls),
(390,364,o),
(458,416,o),
(582,416,cs),
(634,416,o),
(654,406,o),
(654,395,cs),
(654,381,o),
(614,362,o),
(614,330,cs),
(614,299,o),
(664,277,o),
(730,277,cs),
(802,277,o),
(856,304,o),
(856,349,cs),
(856,407,o),
(764,452,o),
(612,452,cs),
(496,452,o),
(352,421,o),
(352,300,c),
(378,300,l),
(378,440,l),
(20,440,l),
(20,410,l),
(104,410,ls),
(168,410,o),
(190,395,o),
(190,367,cs),
(190,68,ls),
(190,44,o),
(170,30,o),
(116,30,cs),
(20,30,l),
(20,0,l)
);
}
);
width = 880;
}
);
unicode = 114;
userData = {
com.typemytype.robofont.layerData = {
background = {
anchors = (
);
components = (
);
contours = (
{
points = (
{
segmentType = curve;
smooth = 1;
x = 307;
y = 336;
},
{
smooth = 0;
x = 307;
y = 368;
},
{
smooth = 0;
x = 327;
y = 387;
},
{
segmentType = curve;
smooth = 1;
x = 327;
y = 401;
},
{
smooth = 0;
x = 327;
y = 412;
},
{
smooth = 0;
x = 317;
y = 422;
},
{
segmentType = curve;
smooth = 1;
x = 291;
y = 422;
},
{
smooth = 0;
x = 229;
y = 422;
},
{
smooth = 0;
x = 195;
y = 370;
},
{
segmentType = curve;
smooth = 1;
x = 195;
y = 266;
},
{
segmentType = line;
smooth = 1;
x = 195;
y = 68;
},
{
smooth = 0;
x = 195;
y = 44;
},
{
smooth = 0;
x = 205;
y = 30;
},
{
segmentType = curve;
smooth = 1;
x = 235;
y = 30;
},
{
segmentType = line;
smooth = 0;
x = 280;
y = 30;
},
{
segmentType = line;
smooth = 0;
x = 280;
y = 0;
},
{
segmentType = line;
smooth = 0;
x = 10;
y = 0;
},
{
segmentType = line;
smooth = 0;
x = 10;
y = 30;
},
{
segmentType = line;
smooth = 1;
x = 58;
y = 30;
},
{
smooth = 0;
x = 85;
y = 30;
},
{
smooth = 0;
x = 95;
y = 44;
},
{
segmentType = curve;
smooth = 1;
x = 95;
y = 68;
},
{
segmentType = line;
smooth = 1;
x = 95;
y = 367;
},
{
smooth = 0;
x = 95;
y = 395;
},
{
smooth = 0;
x = 84;
y = 410;
},
{
segmentType = curve;
smooth = 1;
x = 52;
y = 410;
},
{
segmentType = line;
smooth = 0;
x = 10;
y = 410;
},
{
segmentType = line;
smooth = 0;
x = 10;
y = 440;
},
{
segmentType = line;
smooth = 0;
x = 189;
y = 440;
},
{
segmentType = line;
smooth = 0;
x = 189;
y = 306;
},
{
segmentType = line;
smooth = 0;
x = 176;
y = 306;
},
{
smooth = 0;
x = 176;
y = 427;
},
{
smooth = 0;
x = 248;
y = 458;
},
{
segmentType = curve;
smooth = 1;
x = 306;
y = 458;
},
{
smooth = 0;
x = 382;
y = 458;
},
{
smooth = 0;
x = 428;
y = 413;
},
{
segmentType = curve;
smooth = 1;
x = 428;
y = 355;
},
{
smooth = 0;
x = 428;
y = 310;
},
{
smooth = 0;
x = 401;
y = 283;
},
{
segmentType = curve;
smooth = 1;
x = 365;
y = 283;
},
{
smooth = 0;
x = 332;
y = 283;
},
{
smooth = 0;
x = 307;
y = 305;
}
);
}
);
lib = {
};
name = r;
unicodes = (
);
width = 440;
};
};
com.typemytype.robofont.mark = (
0.9366,
0.9212,
0.4821,
1
);
};
},
